<?xml version="1.0" standalone="no"?>
<!DOCTYPE svg PUBLIC "-//W3C//DTD SVG 1.1//EN" "http://www.w3.org/Graphics/SVG/1.1/DTD/svg11.dtd" >
<svg xmlns="http://www.w3.org/2000/svg">
<metadata></metadata>
<defs>
<font id="kg_somebody_that_i_used_to_Rg" horiz-adv-x="606" >
<font-face units-per-em="2048" ascent="1638" descent="-410" />
<missing-glyph horiz-adv-x="500" />
<glyph horiz-adv-x="2048" />
<glyph horiz-adv-x="2048" />
<glyph unicode="&#xd;" horiz-adv-x="1000" />
<glyph unicode=" " />
<glyph unicode="!" horiz-adv-x="328" d="M44 1850v4q0 16 16 28q4 0 16 1t16 1h16t7 -1t6 -1h15q2 0 15 -5t17 -5h6q4 0 6 1t6 1q26 0 31 -27t7 -47v-94q0 -128 -8 -261t-8 -263q0 -120 4 -240t4 -240q0 -58 1 -127t-9 -129l8 -12l46 8q8 0 13 -18t5 -22q0 -22 -18 -29t-36 -7q-12 0 -29 -1t-33 2t-27 11t-11 26 q0 16 3 29t7 29q0 12 1 45t3 70t3 70t1 47v38q0 126 -4 249t-4 249q0 118 7 245t7 243q0 14 1 22l2 16t-1 18t-8 26q-4 2 -12 5t-12 3q-12 4 -35 1t-35 -3q-2 4 -4 22t-2 22zM60 126q0 44 29 67t75 23q28 6 51 -4t39 -27t25 -37t9 -32q0 -16 -8 -36t-20 -38t-29 -30t-35 -12 q-22 0 -46 6t-44 20t-33 38t-13 62zM128 132q0 -28 15 -49t45 -21q12 0 24 12t12 26v4q-2 4 -5 13t-3 11l-8 8q-44 2 -53 4t-11 4h-4h-4q-2 -2 -5 -4t-3 -4v-4z" />
<glyph unicode="&#x22;" horiz-adv-x="374" d="M84 1170q0 20 7 26t17 22t9 39t-1 39q0 34 -14 58t-18 54q-4 18 7 34t29 16q20 0 32 -17t18 -41t8 -48t2 -38q0 -18 -2 -47t-10 -56t-23 -46t-41 -19q-14 0 -17 5t-3 19zM214 1196q0 20 7 26t17 22t9 39t-1 39q0 34 -14 58t-18 54q-4 18 7 34t29 16q20 0 32 -17t18 -41 t8 -48t2 -38q0 -18 -2 -47t-10 -56t-23 -46t-41 -19q-14 0 -17 5t-3 19z" />
<glyph unicode="#" horiz-adv-x="1196" d="M109 841q-1 11 9 13h36q44 0 85 3t85 3h54q28 64 51 124t37 130q-6 10 -33 13t-60 2t-63 -2t-44 3q-12 8 -15 19t-3 23t5 22t19 10q40 0 85 -1t85 -1q10 0 25 1t23 7t15 23t12 37t8 37t5 23q6 20 22 66t34 93t36 84t30 41h56q10 0 21 -7t21 -7t11 -11t1 -17q0 -22 -7 -28 t-19 -6t-29 3t-35 1q-22 -26 -37 -71t-25 -77q-4 -10 -12 -35t-17 -53t-17 -53t-10 -35v-4q0 -10 7 -11t15 -1q58 0 116 6t118 2q20 6 34 23t22 38t13 44t9 39q2 8 9 30t15 46t14 46t10 30q10 10 13 29t7 37t11 32t25 14q14 0 24 -2t19 -4t21 -4t32 0q16 -4 16 -14v-20 q0 -4 1 -15t-9 -13l-84 6q-2 -10 -9 -36t-16 -55t-17 -56t-10 -35q-10 -36 -28 -71t-18 -73h190q10 0 9 -10t-1 -14q0 -10 -3 -21t-13 -19q-52 4 -107 -4t-109 -12q-12 -6 -25 -35t-27 -64t-25 -68t-17 -47q-4 -4 -5 -11t-5 -13q-4 -8 -6 -16l8 -8h38q32 0 61 4t61 4 q40 0 40 -42q0 -16 -8 -24t-21 -11t-27 -3h-26q-8 0 -28 -1t-43 -2t-43 -3t-28 -2q-8 -6 -14 -14t-10 -18l-88 -310v-4q0 -10 7 -11t16 -3t17 -9t8 -27q0 -6 -1 -20t-15 -14h-96q-18 0 -21 14t-3 26v24q4 36 19 78t33 86t35 88t25 84q0 22 -28 22h-4q-6 0 -28 -3t-48 -5 t-48 -5t-28 -3q-4 0 -24 1t-24 -1q-8 -2 -20 -25t-25 -58t-26 -75t-23 -76t-17 -63t-7 -33v-4q16 -2 31 -9t15 -27q0 -14 2 -21t2 -11t-2 -7t-10 -7h-15h-29t-30 1l-14 1h-18q-30 0 -29 6t1 34q0 16 13 36t19 36q12 34 19 59t29 53l48 166v16q0 2 -19 4t-29 4t-35 2h-53h-52 h-34q-12 8 -14 20t-2 24q0 4 -1 15zM450 868l8 -8h32h32q18 2 46 4t55 5t47 5l20 2l8 8l56 112v16l40 110v20h-133t-131 -20q-4 -12 -12 -41t-19 -62t-20 -62t-13 -41q-2 -4 -8 -20t-8 -20v-4v-4z" />
<glyph unicode="$" horiz-adv-x="672" d="M52 444v29v49t1 49t1 29v16v13t10 11q6 0 23 1t37 3t38 3t24 1q22 0 19 -15t-5 -39q-10 -4 -20 -5t-20 -1t-21 -4t-23 -14l-12 -98q4 -6 6 -18t2 -25v-24v-17q10 -64 21 -113t29 -85t47 -60t77 -38q-2 54 0 104q0 114 5 207t5 205q0 52 2 122t4 132q-52 84 -97 157 t-78 147t-50 156t-11 188q8 72 31 131t55 104t71 72t81 37l3 36t1 22l-48 6q-10 2 -16 10t-6 18t6 20t16 14q4 0 10 1t10 1h24h16h17h27q12 -6 14 -22t2 -28v-33t-2 -45q56 -10 93 -47t60 -86t36 -105t25 -106q10 -48 15 -92t1 -96q0 -18 -21 -25t-45 -7q-12 0 -27 -1t-27 0 t-19 9t-7 26q2 8 4 18t14 10h68q2 46 -8 110t-31 127t-54 114t-77 71q-2 -84 -4 -183t-3 -193t-2 -173t-1 -123v-210q30 -48 58 -97t52 -101q2 -6 14 -35t27 -65t29 -71l22 -55q16 -46 28 -104t8 -102q-6 -108 -58 -171t-168 -61h-18h-4v-48t6 -4l14 -4q20 0 20 1t18 1 q20 0 22 -10t2 -30q0 -12 -1 -21t-13 -13h-34q-18 0 -32 -3t-26 -4t-24 3t-24 20v34t1 26t2 25t-1 33q-72 12 -114 44t-66 83t-35 122t-21 159zM134 1496q-4 -76 8 -139t35 -122t56 -116t69 -117v56q0 10 -1 23t-1 29v75v111t1 132t1 136t1 123t1 95q-42 -8 -73 -40t-52 -75 t-32 -89t-13 -82zM355 272q3 -56 3 -96q0 -20 1 -52t1 -44h20q30 0 59 11t52 31t38 47t17 59q6 72 -8 142t-40 137t-61 132t-69 129v-136q0 -12 -1 -50t-2 -82t-2 -82t-1 -50q-10 -40 -7 -96z" />
<glyph unicode="%" horiz-adv-x="740" d="M46 1630q0 30 9 72t28 81t47 67t66 28q10 0 17 -3t17 -13h19t29 -1t29 -1h19h67t96 1t96 1h67q14 0 33 -5t19 -17v-12q-22 -66 -46 -155t-48 -182t-48 -181t-46 -154q0 -2 -4 -8t-4 -8q-8 -22 -22 -62t-28 -79t-25 -70t-13 -37l-21 -70t-31 -105t-31 -105l-21 -70 q-22 -64 -38 -116q-14 -44 -25 -82t-9 -44q-2 -10 -9 -36t-14 -55t-14 -55t-9 -36q-4 -14 -5 -36t-4 -43t-12 -38t-27 -19l-64 10q14 36 26 80t23 90t23 91t24 85q14 42 34 109t40 131t34 110l14 46l32 94l240 792q10 46 23 85t13 85q-8 0 -30 -2t-30 0h-37t-76 1t-76 1h-37 q-4 0 -20 -3t-20 -5v-4q0 -28 8 -54t8 -54t-9 -58t-26 -57t-43 -44t-58 -17q-56 0 -88 42t-32 94zM110 1642q0 -28 10 -52t46 -24q38 0 60 35t22 69q0 10 -5 28t-15 35t-23 29t-27 12q-12 0 -24 -20t-22 -44t-16 -45t-6 -23zM348 118q0 22 9 49t25 50t38 39t48 16 q30 14 62 10t57 -20t41 -41t16 -55v-20q-18 -66 -59 -105t-111 -39q-60 0 -93 27t-33 89zM426 118q0 -42 14 -47t54 -5q30 0 53 28t23 54q0 22 -10 42t-32 20h-20q-4 -2 -16 -13t-16 -11q-18 -10 -28 -13t-15 -9t-6 -16t-1 -30z" />
<glyph unicode="&#x26;" horiz-adv-x="796" d="M64 316q0 50 10 108t25 117t35 115t40 104q14 34 28 73t14 77q-10 30 -23 68t-27 78l-28 80t-22 76q-18 76 -24 170t-2 180q8 108 65 185t143 111q94 32 158 -9t88 -135q14 -72 8 -162t-54 -220q-42 -100 -71 -169t-49 -117t-35 -79t-29 -51q0 -30 17 -75t39 -93t42 -93 t28 -75l134 -252q6 0 16 12t19 29t15 33t8 24q6 28 8 45t3 30t0 27t-1 38q0 20 -3 55t-9 71t-16 66t-24 40l-54 -32q-6 0 -10 9t-7 20t-5 22t-4 15q14 2 42 13t60 24t60 27t42 22q14 0 23 -21t9 -33l-68 -26l34 -300q0 -34 -8 -76t-21 -83t-28 -75t-27 -52q28 -56 50 -94 t54 -66q10 -22 -8 -44t-56 -12q0 14 -10 35t-25 43t-30 43t-23 33l-10 -28q-10 0 -29 -25t-50 -56t-74 -56t-99 -25q-66 0 -113 27t-79 72t-47 102t-15 115zM128 360q0 -46 10 -96t33 -93t60 -71t91 -28q30 0 66 18t66 45t51 60t21 61v16q-6 12 -20 36t-30 51t-30 52t-20 37 q0 2 -6 14t-12 26t-11 26t-7 14q0 2 -3 8t-5 8q-6 16 -22 57t-34 84t-35 76t-25 33t-21 -27t-28 -68t-31 -92t-29 -99t-21 -88t-8 -60zM162 1470q2 -124 24 -258t80 -246l160 360q40 128 49 198t5 108q0 24 -7 54t-22 55t-38 42t-53 17q-58 0 -97 -34t-61 -83t-31 -107 t-9 -106z" />
<glyph unicode="'" horiz-adv-x="304" d="M84 1170q0 20 7 26t17 22t9 39t-1 39q0 34 -14 58t-18 54q-4 18 7 34t29 16q20 0 32 -17t18 -41t8 -48t2 -38q0 -18 -2 -47t-10 -56t-23 -46t-41 -19q-14 0 -17 5t-3 19z" />
<glyph unicode="(" horiz-adv-x="622" d="M60 780v18t1 37t2 43t1 36q4 54 6 122t7 139t12 138t19 121q12 50 30 111t42 119t56 108t72 80l10 10l17 17l17 17t10 8l84 56q2 0 8 1t16 1h22q16 0 29 -2t27 -6l-4 -62l-24 8t-26 2q-70 -8 -126 -64t-97 -130t-66 -151t-33 -125q-12 -74 -20 -163t-13 -182t-7 -184 t0 -167q2 -70 10 -160t27 -181t54 -175t91 -144q28 -30 53 -40t71 -12q12 0 25 -10t18 -24t-2 -27t-35 -19q-82 4 -142 45t-102 106t-68 149t-40 174t-19 179t-3 165z" />
<glyph unicode=")" horiz-adv-x="630" d="M60 1954q14 4 27 6t29 2h22q8 0 15 -1t9 -1l84 -56q2 0 10 -8l17 -17l17 -17l10 -10q40 -30 72 -80t56 -108t42 -119t30 -111q12 -54 19 -121t12 -138t7 -139t6 -122q0 -14 1 -36t2 -43t1 -37v-18l-10 -18q2 -76 -3 -165t-19 -179t-40 -174t-68 -149t-102 -106t-142 -45 q-28 6 -35 19t-2 27t18 24t25 10q46 2 71 12t53 40q56 60 91 144t54 175t27 181t10 160q2 76 0 167t-7 184t-13 182t-20 163q-8 48 -33 125t-66 151t-98 130t-125 64q-14 2 -26 -2l-24 -8z" />
<glyph unicode="*" horiz-adv-x="718" d="M78 1038q0 16 10 28t28 12q0 -2 2 -2h4h6l152 -40h14q0 20 -11 37t-24 33t-24 32t-11 34q0 14 14 31t30 17q24 0 41 -32t32 -69t26 -69t23 -32h4q2 0 4 2l96 96q8 18 21 37t35 19q12 0 22 -7t10 -21v-4l-8 -32l-120 -120q12 -20 46 -29t70 -16t64 -19t28 -38 q0 -42 -40 -42q-16 0 -20 1t-20 9q-6 2 -23 9t-37 14t-37 14t-23 9h-20q0 -28 9 -54t21 -52t21 -53t9 -55q0 -16 -17 -28t-31 -12q-8 0 -12 1t-12 7q-4 12 -12 40t-19 60t-20 60t-13 40q-4 10 -9 17t-15 7q-8 0 -29 -25t-47 -56t-54 -56t-52 -25q-32 0 -32 30q0 18 13 31 t30 24t34 19t27 18q2 2 10 11t18 19t18 20t10 12q2 4 15 17t17 15v4v4l-8 8q-10 2 -35 10t-53 15t-53 14t-35 9q-22 6 -40 10t-18 32z" />
<glyph unicode="+" horiz-adv-x="684" d="M74 697q-2 9 0 19t6 20t10 10q38 4 88 12t80 8q20 0 30 -2q0 12 -1 23t-1 17v26t-2 32q0 28 -5 53t-7 53q0 18 5 39t29 21h16t12 -6l10 -264h10h4q12 0 31 2t39 4t39 5t31 3l11 1t25 3t25 3l11 1q2 -2 6 -4l8 -4q26 0 24 -31t-2 -63q0 -6 -8 -11t-18 -7t-20 0t-12 10 q-6 12 -5 21t1 13t-2 6t-12 2l-184 -12l4 -94q-8 -24 -6 -57t2 -57q0 -10 4 -26l6 -24q6 -16 14 -17t14 -1t11 -3t5 -21v-20q-8 -8 -15 -8h-17q-36 -2 -48 -3t-18 27l-2 4v2q2 4 -1 19t1 19q0 14 -2 42t-4 64t-4 75t-2 79l-206 -12q-6 0 -8 9z" />
<glyph unicode="," horiz-adv-x="276" d="M52 -144q34 24 62 45t28 55t-11 67t-25 65q2 8 14 20t22 6q18 -14 31 -34t22 -41t13 -39t4 -30q0 -18 -9 -41t-25 -46t-39 -41t-51 -24q-22 -4 -29 6t-7 24v8z" />
<glyph unicode="-" d="M70 743q0 19 3 35t9 16q10 2 23 -4t33 -4v-40l104 10q26 0 49 -4t47 -4h4h52t52 2l11 1t25 3t25 3l11 1q2 -2 6 -4l8 -4q28 0 25 -19t-3 -51q0 -6 -6 -13t-13 -10t-15 -3t-10 8q-10 26 -11 27t-21 1l-394 4q-6 0 -10 15t-4 34z" />
<glyph unicode="." horiz-adv-x="260" d="M62 70q0 24 11 52t49 28q26 0 46 -12t20 -42t-17 -58t-57 -28q-4 0 -13 1t-13 1q-20 14 -23 24t-3 34z" />
<glyph unicode="/" horiz-adv-x="698" d="M44 36q0 26 15 52t25 48q4 8 11 35t14 56t14 55t11 36q4 20 15 62t26 95t31 111t31 111t27 95t18 62q2 8 14 45t27 79t27 79t14 45q8 24 13 49t19 47l136 444q0 40 17 86t27 86l-64 -8q-14 0 -19 13t-5 23q0 6 3 23t13 17l124 -2l16 -16v-8q0 -4 1 -8t1 -6q0 -28 -5 -62 t-13 -58l-270 -868q-16 -48 -26 -86l-24 -88q-16 -62 -27 -110t-23 -95t-25 -95t-29 -110q-4 -12 -12 -43t-17 -65t-19 -63t-18 -37l22 4h8q16 0 24 -13t8 -27q0 -20 -14 -26t-33 -6t-39 3t-32 3q-16 0 -27 8t-11 28z" />
<glyph unicode="0" horiz-adv-x="770" d="M48 970v100q0 78 8 167t29 177t53 170t78 146t105 104t135 44q50 0 89 -30t66 -69t44 -79t23 -60q30 -168 39 -314t9 -302q0 -50 -1 -101t-1 -105q0 -12 -1 -41t-1 -47v-14q0 -18 -3 -56t-6 -79t-6 -75t-5 -46q-6 -60 -20 -125t-40 -124t-65 -108t-99 -79 q-32 -14 -53 -21t-49 -7q-44 0 -87 20t-79 44q-38 28 -57 73t-33 93q-6 22 -12 43t-16 39q-24 158 -34 328t-10 334zM118 684q6 -30 8 -64t2 -68q0 -22 1 -41t3 -35q2 -46 16 -115t41 -134t70 -112t105 -47q68 0 115 41t79 107t51 149t29 166t13 156t5 119v30q0 26 1 61 t1 53q-4 40 -2 73t4 47v8q0 14 -2 47t-4 67t-4 63t-2 35q-2 10 -4 29t-4 41q-4 52 -12 124t-26 141t-50 121t-82 62q-28 -2 -70 -11t-78 -37q-64 -66 -104 -139t-62 -155t-29 -173t-7 -193v-90q0 -14 -1 -63t-1 -105v-158z" />
<glyph unicode="1" horiz-adv-x="806" d="M52 22q0 22 2 56t6 50q0 4 20 5t42 1l6 -66q2 0 16 -1t31 -2t31 -1h18h16q16 0 24 1t15 1t15 1t24 1q6 0 25 1t23 1q10 16 10 40v38q0 10 -1 32t-1 26q-6 106 -3 221t7 232t5 233t-5 222q-4 48 -1 84t6 71t5 71t-2 84q0 2 1 22t1 44v44v22q0 10 -2 30t-3 40t-2 37t-1 21 q0 2 -3 11t-3 13q2 4 0 20t-2 20h-6q-6 -6 -12 -14q-12 -16 -22 -26q-30 -34 -54 -59t-52 -65q-10 -6 -27 -26t-29 -20t-23 16t-11 30l102 112q2 2 11 14t19 26t20 26t12 16t12 15t21 23t21 24t14 16q12 14 25 18t35 0q18 -2 18 -24q0 -20 -2 -28t-2 -32q0 -50 2 -101 t4 -101v-30v-53t-1 -54t-1 -31t1 -30t2 -53t2 -53t1 -30q2 -4 2 -20t-2 -20l-8 -1040v-15t1 -27t1 -27v-15q0 -8 8 -8l208 -8q8 0 8 9v13q0 18 -2 16t-2 16q0 8 9 12t21 6t25 1t23 -1l-2 -82q0 -18 -4 -36t-24 -18q-8 0 -23 -1t-32 -3t-32 -3t-23 -1q-54 0 -108 -1t-108 -1 q-42 0 -75 -1t-65 -2t-65 -1t-77 2q-12 0 -33 -1t-21 25z" />
<glyph unicode="2" horiz-adv-x="780" d="M81 33q1 11 1 21q-2 26 1 42t9 29t14 26t18 33q50 122 100 230t94 234q10 26 25 70t31 90t31 89t25 69q34 84 59 152t59 154q12 30 29 78t32 101t25 103t8 80q8 30 6 60t-12 55t-25 42t-33 23q-162 2 -263 -84t-141 -252q-6 -16 -4 -39t2 -43q0 -4 8 -4h18t19 -1t11 -9 l-2 -9l-4 -18l-4 -18l-2 -9q0 -6 -5 -4t-12 5t-15 5t-14 -4h-60q-16 0 -16 23v39q0 20 1 38t9 34q18 86 54 162t94 133t140 89t192 32q40 0 67 -27t44 -64t23 -75t4 -58q2 -26 -3 -63t-14 -76t-20 -76t-19 -63q-10 -22 -25 -62t-32 -84t-32 -84t-25 -62q-16 -38 -36 -99 t-42 -126t-43 -127t-35 -100q-70 -170 -115 -274t-71 -163t-34 -83t-6 -32l66 -4h154q76 0 139 -4t139 2v16q-2 12 -3 17t-2 9t-1 9v17q-2 16 1 24t19 8q8 0 27 -5t29 -11q2 -18 3 -28t1 -20t1 -22t5 -30q0 -2 1 -8t1 -10q0 -20 -14 -29t-34 -9h-104h-16h-34t-34 1l-16 1 q-10 -2 -25 -2h-32t-30 1t-17 1h-56q-6 0 -22 1t-35 1t-35 1t-22 1l-134 4q-10 8 -9 19z" />
<glyph unicode="3" horiz-adv-x="754" d="M43 485q-3 37 3 85q2 8 11 13t21 7t23 2t17 2q4 0 3 -1t-2 -3t2 -2t15 2q36 6 50 10h8q18 0 25 -12t7 -28v-11t-10 -7h-14q-22 -14 -38 -12t-42 -8q-2 -8 -2 -21t-2 -23q-4 -38 -2 -83t2 -85q0 -34 10 -77t29 -82t48 -66t67 -27q38 -6 84 4t89 32t76 53t47 67 q12 36 23 81t20 92t15 92t6 83q0 76 -22 152t-50 146q-10 24 -18 48t-16 46q-6 18 -20 42t-33 46t-40 41t-41 29q-10 4 -25 7t-31 7q-24 6 -52 12t-52 15t-40 21t-16 28q0 14 16 27t30 23q6 4 15 11t5 3q82 76 134 162t102 176q10 18 20 38t20 38q2 2 6 8t8 14q8 14 19 34 t9 12l30 44l-190 -2q-36 0 -55 1t-29 1h-15h-11q-18 -2 -52 -4t-56 -2q-30 0 -52 4t-22 18q0 12 7 30t23 18h62q102 0 194 5t196 5q16 4 31 0t31 -4q18 0 25 -15t11 -31q0 -2 1 -4t1 -4q-46 -56 -76 -110t-58 -110q-26 -50 -52 -98q-4 -8 -10 -16q-4 -8 -10 -16t-10 -16 t-8 -13t-8 -9q-32 -46 -66 -92t-70 -88q0 2 -6 -6t-10 -12q4 -4 20 -11t36 -13q26 -8 51 -17t37 -17q42 -32 74 -75t55 -92t41 -101t34 -102l20 -60q16 -50 20 -102t4 -102v-52q0 -10 -2 -29t-4 -40t-4 -41t-4 -28q-4 -24 -11 -53t-17 -55t-21 -48t-23 -34q-38 -46 -78 -76 t-83 -47t-88 -23t-91 -6q-42 -2 -81 23t-70 65t-50 91t-19 101l-6 124q0 46 -3 83z" />
<glyph unicode="4" horiz-adv-x="704" d="M42 700q0 14 4 28l8 28q4 10 8 21t4 25v57t1 31t1 13v5q2 10 2 20t2 24q2 26 5 57t6 60t6 52t5 33q8 18 8 37t-2 41q-2 28 2 52t16 48q0 14 3 41l6 54t5 50t4 31q0 6 1 17t3 15q2 32 8 80t14 93t18 76t24 31q16 0 23 -13t7 -23t-2 -19t-6 -19q-12 -110 -24 -228t-26 -234 q-12 -104 -24 -211t-22 -207v-16q0 -4 -2 -21t-3 -37t-2 -38t-1 -24q0 -4 11 -8t25 -7t26 -5t14 -2l202 -2q26 8 48 10q18 2 38 6t35 10t25 17t10 27l-2 272v32q0 48 1 98t3 100q0 14 1 38t1 40q2 48 3 96t1 92v57t-2 57q0 14 -1 43t-1 60v59v44q0 10 15 12t27 0q4 0 7 -1 t7 -1h10l4 -234q2 -28 2 -66v-66q0 -52 -1 -106t-3 -108q0 -18 -1 -50t-1 -54q-6 -168 -6 -330v-70q0 -14 2 -22t6 -18t6 -20t2 -22q0 -8 -3 -21t-7 -23v-16q0 -8 -1 -17t-1 -17v-54q-2 -92 2 -181t8 -177v-55t4 -55q8 -22 8 -52q0 -22 -8 -28t-30 -6l-74 -8q-8 -2 -19 8 t-17 24t-3 29t21 25l54 4q0 8 -2 14q0 4 -1 9t-1 18v36v63v90t-2 90q-2 32 -2 77v77v68q-10 28 -34 28t-46 -5t-44 -11q-2 0 -3 -1t-3 -1q-22 -6 -41 -10t-41 -4q-36 0 -72 3t-74 7h-44q-20 0 -41 1t-38 7t-28 19t-11 37z" />
<glyph unicode="5" horiz-adv-x="672" d="M58 178q0 8 13 19t29 11l6 -18q2 -4 2 -6t2 -6q4 -16 12 -36t22 -38t38 -30t62 -12q114 -6 198 57t112 165q12 38 14 71t2 73v56q-12 44 -33 69t-48 38t-60 16t-69 3q-16 0 -50 -5t-52 -9q-6 -2 -13 -2t-11 -2q-22 -4 -48 -6t-54 -2q-4 0 -16 4q-10 4 -19 5t-13 11 q0 20 2 85t3 139t2 139t1 85q0 6 -1 44t-3 72t-3 68t-1 42q-4 30 -4 68v72q0 36 -1 72t-3 72v28t-2 40q0 4 -1 9t-1 9q-2 22 -3 42t-1 26v80l-4 18q-4 16 -4 28q0 2 1 3t1 3t1 6t1 8q0 6 2 10q22 8 33 8t23 -2q20 -4 48 2q108 -4 182 -1t120 3h122q10 2 19 0t7 -14 q-2 -8 4 -20q8 -16 -4 -30v-44q0 -4 -2 -20t-18 -16q-2 0 -5 -1t-9 -1q-12 -2 -21 0t-9 16v54q-2 10 -3 9t-1 7h-10t-10 2q-14 0 -20 2h-20q-26 -2 -66 -2h-72q-40 0 -77 -1t-67 -1q-36 -2 -66 -2l-8 -6l-1 -14t-2 -31t-1 -35v-26l4 -202q0 -2 0 6t-1 15t-1 5v-24t2 -71 t4 -135q2 -34 2 -77t2 -75l4 -112q2 -22 1 -60t-3 -72q0 -10 -1 -26t-1 -26q-2 -24 -3 -48t-1 -44q0 -28 2 -52t6 -42q2 -10 4 -11t6 -1q18 0 38 1t42 3q6 0 13 1t15 1q14 2 40 7t38 5q82 0 148 -17t102 -71q18 -26 25 -62t11 -86t-2 -99t-22 -95q-16 -48 -44 -90t-68 -76 q-46 -38 -116 -58t-134 -20q-36 -2 -69 14t-59 42t-42 59t-16 63z" />
<glyph unicode="6" horiz-adv-x="682" d="M57 843q1 111 5 219l1 12t2 25t2 25l1 12v-2q0 2 1 3t1 3l6 74q8 30 14 48t12 46q4 12 5 25t5 25q16 58 37 118t47 115t54 104t56 83l10 8q12 14 28 32t34 34t39 27t43 11q24 0 35 -3t9 -25q2 -4 2 -33t4 -67q2 -16 -3 -27t-27 -11q-28 0 -35 5t-3 29q2 8 3 35t-1 37 l-52 -44q-6 -4 -12 -11t-10 -11v2q0 -4 -4 -9t-8 -13q-10 -14 -22 -34t-26 -41t-25 -39t-17 -30q-16 -28 -24 -51t-14 -45v-6q-10 -20 -19 -45t-13 -35v2q-8 -32 -22 -80t-24 -106q-4 -14 -5 -26t-3 -18q-6 -36 -11 -83t-8 -98t-4 -99t-1 -86q4 -42 4 -85t4 -85q2 -34 4 -72 t2 -72q2 2 4 6t6 8q4 6 16 18q18 24 44 56t60 60t76 48t92 20q92 -2 148 -55t70 -149q14 -94 -3 -190t-58 -173t-105 -123t-144 -40q-74 6 -123 49t-80 105t-46 136t-22 142t-8 122t-1 76q-4 106 -3 217zM148 390q0 -22 8 -74t29 -106t58 -97t97 -49q52 -4 92 21t60 59 l32 52q6 12 12 26t11 24l7 14t0 -2q22 64 31 119t5 117q-2 24 -11 53t-27 54t-45 41t-65 16q-48 0 -87 -18t-72 -48t-59 -68t-44 -76q0 -10 -10 -20q-4 -4 -6 -10t-6 -10v2q-8 -16 -10 -18v-2z" />
<glyph unicode="7" horiz-adv-x="742" d="M44 1742l6 40q2 64 23 81t67 17h25t29 2q16 2 40 2t46 2q44 2 88 3t66 5l220 -2q4 0 7 -1t7 -1h20q8 -4 5 -19t-7 -29q-4 -16 -4 -24q-4 -20 -9 -52l-10 -64t-9 -55l-4 -23l-128 -434q-4 -22 -9 -41t-11 -39q-6 -22 -11 -44t-9 -44l-216 -950q4 6 4 5t-2 -7t-4 -13 t-4 -13q0 -2 -1 -3t-1 -3q-4 -14 -8 -19t-26 -5q-16 0 -28 5t-12 27v4q28 96 49 191t41 191l4 28t6 28q8 38 15 75t17 73q2 6 6 20t8 30t9 31t7 23q20 52 34 109t28 115l12 54q10 34 19 71t19 71q2 0 2 2t2 4l4 8q10 64 27 125t35 119q12 42 27 95t28 109t22 111t11 103 h-140q-90 0 -187 -7t-169 -23v-6q0 -4 -1 -6t-1 -4l6 -36q0 -10 -20 -10q-10 0 -24 1t-36 -3z" />
<glyph unicode="8" horiz-adv-x="642" d="M50 416q2 26 6 53t8 49q2 6 8 19t8 19q4 12 6 28t2 30q4 6 6 11t6 11l12 24q22 42 32 62t17 33t16 28t27 47l38 74q4 2 8 12t8 22t7 23t3 15q0 16 -15 40l-25 40q-2 2 -2 3t-2 3q-2 0 -4 10v-2l-4 8v-2q-2 2 -4 3t-4 5q-6 6 -6 10q-24 34 -44 86t-34 110t-21 115t-7 101 v14q0 2 2 18t5 34t5 33t2 19l34 108q40 76 113 109t153 33q80 4 126 -48t56 -132q6 -28 1 -74t-19 -105t-38 -125t-56 -132q-6 -18 -20 -52t-26 -54q-2 -2 -4 -6l-4 -8q-28 -42 -45 -87t-19 -57q10 -24 26 -52t34 -56t36 -53t34 -43q0 -2 9 -24t22 -58t27 -80t26 -88 q10 -32 13 -76t9 -70q2 -8 3 -27t3 -25q6 -26 2 -59t-6 -55q-2 -62 -32 -108t-76 -75t-101 -42t-105 -7q-90 8 -138 51t-70 103t-25 131t-3 135zM112 352q0 -8 1 -30t1 -48t1 -48t3 -30q24 -60 65 -98t105 -42q48 -4 90 9t75 38t55 62t26 79q10 94 -5 195t-46 193t-73 165 t-86 113q-16 -22 -26 -40t-32 -58q-2 -2 -7 -12t-10 -21t-10 -21t-5 -12l-6 -12l-16 -28t-10 -18t-13 -33t-24 -63t-24 -63t-11 -31q-8 -28 -13 -49t-5 -49v-20q0 -6 1 -11t1 -9zM150 1508q-2 -72 11 -141t35 -128t51 -104t57 -71q2 2 13 16t11 16l26 42q6 12 15 31t19 41 t20 42t20 32q6 0 10 4q4 16 8 24q4 14 10 24q10 28 28 79t32 110t18 117t-14 102q-12 32 -38 52t-72 24q-48 4 -94 -13t-82 -55t-59 -99t-25 -145z" />
<glyph unicode="9" horiz-adv-x="708" d="M42 1258q8 48 26 114q24 86 68 178t107 166t144 122t183 48q52 0 66 -36t14 -84v-161t-1 -152t-1 -153v-162l6 -422q0 -36 -1 -84t-2 -99t-2 -99t-1 -84l4 -244q2 -4 1 -29t1 -29v-16q0 -32 -32 -32l-116 2q-4 0 -7 13t-3 17q0 8 1 19t9 11l54 8q2 0 10 12q4 6 6 12 q-2 14 -2 52v80v80t-2 52v8v8l6 404v89v147v147t-2 89l-30 -84q-24 -46 -54 -89t-68 -75t-85 -51t-103 -19q-46 0 -82 21t-60 55t-37 76t-13 84q-10 42 -2 90zM106 1186q0 -8 1 -31t1 -29q10 -48 42 -84t84 -36q72 0 126 34t93 90t63 128t38 147t19 147t5 128q0 28 1 62 t-9 64l-8 8h-36q-66 0 -128 -41t-114 -103t-89 -132t-55 -126q-34 -112 -34 -226z" />
<glyph unicode=":" horiz-adv-x="342" d="M100 540q0 48 31 78t77 30h28q18 -12 29 -42t11 -50q0 -40 -23 -74t-69 -34q-42 0 -63 26t-21 66zM108 954q0 18 3 37t11 35t22 26t36 10q32 0 56 -16t24 -56t-20 -77t-68 -37q-4 0 -16 1t-16 1q-24 18 -28 32t-4 44z" />
<glyph unicode=";" horiz-adv-x="318" d="M78 -170q32 28 56 54t24 68t-10 83t-22 81q2 10 12 20t20 12q18 2 30 -20t20 -52t11 -61t3 -45q0 -22 -7 -54t-20 -62t-34 -51t-51 -21q-32 0 -32 36v12zM78 332q0 8 5 28t14 41t21 36t24 15h80q18 0 25 -25t7 -37q0 -20 -7 -42t-20 -40t-32 -29t-41 -11q-30 0 -53 15 t-23 49z" />
<glyph unicode="&#x3c;" horiz-adv-x="680" d="M88 784v16l8 8q110 78 199 181t159 217q2 4 13 23t23 40t23 40t13 25q6 10 13 21t23 11q12 0 24 -19t12 -29q0 -12 -6 -21t-18 -11q-46 -102 -117 -200t-145 -182l-72 -72q-8 -8 -29 -32t-27 -32q0 -2 3 -8t5 -8q90 -126 169 -245t157 -257q10 -16 14 -23t4 -21 q0 -12 -7 -24t-21 -12q-10 0 -22 3t-16 13q-8 14 -27 49t-40 74t-40 74t-27 49q-46 76 -98 149t-110 139q-16 20 -28 29t-12 35z" />
<glyph unicode="=" horiz-adv-x="844" d="M70 703q-2 9 0 19t6 20t10 10q18 2 58 5t83 5t80 3t53 1q26 0 49 -4t47 -4h4q12 0 40 1t60 2t60 3t40 2l11 1t25 3t25 3l11 1q2 -2 6 -4l8 -4q14 0 17 -11t1 -28t-6 -36t-4 -35q0 -6 -6 -13t-13 -10t-15 -3t-10 8q-10 26 -4 47t-14 21l-614 -12q-6 0 -8 9zM86 934v64v17 t8 15q4 0 10 1t10 1q18 0 21 -10t3 -22t2 -25t18 -19h76q24 0 57 -1t57 9h416q6 0 7 -12t1 -16q0 -24 -21 -30t-39 -6q-28 0 -53 4t-53 4h-58q-22 0 -77 -1t-118 -2t-118 -3t-77 -2q-4 -4 -19 -1t-19 1h-2q-2 0 -4 2q-28 4 -28 32z" />
<glyph unicode="&#x3e;" horiz-adv-x="704" d="M84 1330v8q0 4 1 5t1 3q0 12 7 14t17 2q14 -2 37 -28t49 -61t52 -71t46 -54q22 -36 36 -55t23 -29t16 -17l19 -19q8 -10 31 -34t49 -50t48 -50t32 -32q12 -12 26 -20t26 -16t21 -19t9 -27q0 -2 -1 -4t-1 -4v-6l-72 -72q-4 -4 -32 -40t-66 -87t-78 -105t-66 -90 q-4 -6 -17 -26t-28 -43t-28 -43t-15 -24q-14 -18 -20 -22t-24 -4q-16 0 -27 6t-11 24q0 22 15 37t27 31q40 54 75 112t77 110q24 32 44 57t40 49t41 49t45 57q14 18 24 40q-114 108 -208 215t-176 241q0 -2 -7 7t-17 24t-21 31t-19 30z" />
<glyph unicode="?" horiz-adv-x="616" d="M54 116q0 120 120 120q22 0 40 -12t30 -30t19 -39t7 -41t-8 -41t-21 -38t-32 -28t-41 -11q-52 0 -83 34t-31 86zM66 1366v44q12 12 9 33t-1 31q4 34 12 76t20 84t28 82t40 74q28 40 68 65t94 25q78 0 125 -33t73 -105q10 -30 20 -74t12 -80q0 -88 -22 -203t-66 -217 q-40 -90 -95 -155t-139 -123q-4 -4 -15 -10t-24 -12t-24 -11t-17 -7q0 -6 -1 -29t-1 -31q0 -24 1 -59t2 -71t2 -71t1 -61q0 -14 -19 -20t-29 -6q-8 0 -12 1t-12 7q-4 30 -5 72t-1 86t1 86t1 72q-8 14 -9 26t-1 26q0 20 17 33t39 21t46 14t36 16q58 38 106 104t80 132 q46 96 61 189t15 169q0 26 -4 62t-12 68q-12 52 -40 88t-86 36q-46 0 -81 -36t-59 -78q-42 -74 -57 -161t-15 -145q0 -4 1 -21t1 -23q2 -8 13 -6t15 2q18 0 26 2t26 2q10 0 6 -24t0 -36q-34 0 -53 -6t-33 -6q-4 0 -20 1t-20 1q-18 22 -21 42t-3 48zM118 116q0 -24 6 -45 t34 -21q22 0 39 18t17 38q0 28 -9 47t-39 19q-28 0 -38 -14t-10 -42z" />
<glyph unicode="@" horiz-adv-x="848" d="M70 682v92q0 68 5 161t20 193t43 198t73 177t111 132t156 61q70 6 119 -18t83 -68t53 -103t29 -121t13 -123t3 -109v-62q-2 -32 -4 -79t-7 -99t-16 -104t-31 -93t-51 -67t-77 -26q-34 0 -45 18t-15 41t-7 44t-17 27q-12 -10 -25 -29t-21 -29q-6 -10 -18 -23t-28 -25 t-36 -22t-42 -10q-64 0 -91 53t-27 129q0 44 5 103t17 122t33 125t52 111t73 79t98 30q20 0 48 -3t40 -21v-52q0 -46 -3 -104t-6 -118t-5 -118t-2 -104q0 -10 1 -39t1 -39q0 -8 3 -20t7 -24t12 -21t18 -9q44 0 58 34t22 72q6 32 13 81t13 102t9 103t3 84q-2 64 -9 145 t-32 153t-74 121t-133 49q-58 0 -102 -27t-78 -69t-58 -94t-40 -102q-4 -10 -10 -29t-13 -40t-12 -38t-5 -21q0 -2 -3 -23t-7 -52t-9 -67t-8 -67t-6 -52t-3 -23q0 -22 1 -53t2 -63t2 -63t1 -51v-14v-10q6 -64 13 -135t24 -138t49 -127t90 -102q24 -20 50 -35t58 -15 q68 -10 111 31t68 105t37 139t18 133q14 18 20 27t10 11t10 -1t22 -7q0 -2 -1 -13t-2 -24t-2 -25t-1 -14q0 -68 -24 -142t-48 -138q-30 -76 -88 -114t-140 -38q-62 0 -109 28t-82 71t-59 95t-40 100t-26 102t-14 106v96q0 4 -3 12t-5 12zM284 824q0 -18 2 -40t8 -43t17 -34 t31 -13q42 8 73 46t53 93t35 120t19 125t5 109t-5 73q0 44 -40 44q-60 0 -98 -59t-61 -139t-31 -160t-8 -122z" />
<glyph unicode="A" horiz-adv-x="1046" d="M54 62q10 0 40 4t40 6q-2 4 1 17t5 17q8 48 12 91t7 85t6 86t11 92q4 24 9 71t11 95t13 89t17 53q6 72 13 145t13 145q2 4 5 17t3 21q4 32 5 66t13 64l30 136q-4 10 -1 20t7 26l10 40t10 60q4 28 10 64t14 74l16 76t16 70q8 22 19 37t35 17q18 0 32 -15t18 -33l266 -1034 l28 -120v-16q2 -4 5 -14t6 -22t6 -23t3 -13q2 -8 9 -45t17 -88t22 -108t22 -108t17 -87t9 -44l42 -12q16 0 18 -1t14 3q17 -8 17 -25q0 -5 -1 -10q-6 -25 -28 -31h-24q-10 -2 -24 -4t-36 -4l-48 2l-22 102q0 8 -4 28t-8 42t-8 43t-4 31l-22 162l-62 266q-4 0 -19 -1t-34 -3 t-35 -3t-18 -1t-8 -1t-10 -1q-31 -2 -63 -2q-40 0 -80.5 3t-79.5 3q-32 0 -63 -2h-18q0 -2 -2 -17t-4 -23q-10 -108 -22 -211t-24 -207q-2 -18 -3 -46t0 -56t2 -55t3 -45h-46q-6 0 -24 1t-37 2t-37 2t-24 3q-18 6 -18 30q-1 7 -1 11q0 9 15 13zM286 810l2 -56q2 -12 24 -15 t26 -5q8 0 22 -2l28 -4t25 -3t13 -1q17 -1 35 -1q36 0 75 3q58 4 114 8q8 0 24 -7t16 9q-4 54 -12 98q-14 90 -41 182t-53 182q-28 90 -45 184t-43 186q-4 8 -9 28t-11 43t-11 43l-7 28l-8 8l-4 -2h-4l-8 -8q-4 -20 -11 -59t-16 -88t-19 -104t-19 -104t-16 -88t-11 -57 q0 -4 -2 -26t-4 -24q0 -4 -2 -13t-5 -20t-5 -20t-2 -11q-4 -30 -10 -77t-12 -92t-10 -79t-4 -36z" />
<glyph unicode="B" horiz-adv-x="884" d="M54 1824q2 16 8 29t26 15q2 0 15 -1t15 -1l54 6l32 4q5 1 11 1l21 -3h15t28 -1t27 -2t16 -1q60 -6 120 -20t110 -50q36 -24 73 -60t66 -79t47 -91t18 -96q0 -72 -26 -141t-70 -127t-103 -103t-125 -71q8 -12 22 -19t30 -12t32 -9t28 -12q96 -56 176 -145t108 -209v-19 t1 -29t1 -29v-19q-4 -258 -121 -379t-357 -133h-35t-37 -2q-12 8 -23 7t-25 1q-22 -2 -25 -10t-3 -17t-4 -17t-26 -10q-16 -2 -24 -2t-6 14l4 180l6 102q-6 26 -8 62t-4 58q-4 72 -5 136q0 32 -0.5 64t0.5 63q1 63 3 128t2 137v64t1 89t2 89t1 66v98q-2 4 -3 10t-1 10t1 15 t1 13t1 8t1 10v98v298q0 2 -3 7t-5 7l-2 2q-2 0 -2 -1t-2 -1h-2q-2 6 -8 3t-14 -3q-2 0 -3 -1t-3 -1q-2 -2 -4 -2q-8 0 -10 3t-8 1q-18 0 -21 9t-5 21zM206 1205q0 -55 6 -129q8 -16 37 -19t41 -1q48 2 98 25t96 57t84 74t66 78q14 18 24 44t16 55t8 56t2 49q0 36 -26 81 t-64 87t-80 74t-74 40q-8 2 -29 7t-45 11t-46 10t-30 4h-30q-7 1 -16 1h-10q-16 -1 -24 -13v-65v-100v-100v-65q0 -4 -1 -20t-2 -37t-1 -42v-33v-129zM212 528v-35q0 -107 10 -225v-32t1 -47t2 -47t1 -30q-4 -20 12 -28q11 -5 20 -5q4 0 8 1h18h25t25 1t16 1q218 10 315 115 t101 331q0 106 -49 192t-127 146t-176 90q-86 26 -171 26h-23q0 -24 -8 -42v-27t1 -49t1 -49v-27q0 -138 -2 -260z" />
<glyph unicode="C" horiz-adv-x="814" d="M60 955v73v83t2 77q2 54 6 127t17 149t36 150t61 132t94 94t134 36q74 0 133 -28t100 -76t63 -111t22 -131v-33t-4 -33l-122 -4q-30 10 -27 26t19 34l68 4q-2 50 -20 101t-51 93t-79 67q-43 23 -95 23h-9q-84 0 -137 -55t-83 -132t-43 -161t-15 -144q0 -4 -1 -25t-2 -48 t-2 -55t-1 -44t-1 -40l-2 -48t-1 -42v-20q0 -8 2 -42t5 -83t7 -107t7 -113t7 -103t6 -76q4 -54 19 -123t43 -130t74 -104t114 -43q48 0 87 34t70 89t54 123t38 135t22 126t7 95q16 20 40 13t34 -31l-6 -50q-2 -36 -11 -95t-26 -126t-44 -135t-64 -123t-84 -90t-105 -35 q-112 0 -178 66t-100 164t-46 210t-18 206q0 6 -1 13t-1 13q-2 16 -2 33t-2 29q-2 28 -4 65t-3 77t-1 79z" />
<glyph unicode="D" horiz-adv-x="904" d="M42 56q0 22 1 33t1 33q4 16 14 19t22 0t22 -10t12 -13q4 -20 2 -29t-3 -12t-1 -5t6 -10q8 -4 14 -11t14 -7q2 0 11 2t13 4q4 0 10 -1t10 -1q0 56 1 95t1 76v76v95v42v77v76v43q0 2 1 15t2 28t1 27v16l-16 576q-6 50 -7 117q0 34 -0.5 68t0.5 69q1 70 3 136t4 116l-12 32 h-72q-8 0 -9 11t-1 13q0 8 3 25t15 17q124 -6 228 -56t189 -130t150 -185t108 -220t64 -234t21 -229q0 -74 -13 -142t-33 -133t-45 -131t-51 -134q-8 -16 -14 -26t-12 -17t-13 -15t-19 -20q-2 -2 -12 -11t-21 -20l-21 -21l-10 -10q-60 -40 -113 -74t-109 -56t-118 -30 q-25 -3 -52 -3q-41 0 -86 7q-8 -6 -25 4t-25 10q-18 2 -24 12t-6 26zM242 1724q-1 -87 -1 -177q0 -179 3 -366q4 -281 16 -541q5 -77 5 -150v-24q-1 -84 -2 -156t-1 -131t10 -101l4 -2q2 -2 4 -2h6q27 0 70 17q48 19 99 47t94 59t61 53q44 54 80 134t60 168t37 175t13 157 q0 74 -11 141t-31 133t-46 130t-56 132q-2 2 -5 4t-3 4q-2 2 -5 8t-3 8q-6 10 -18 28t-23 35t-19 30t-10 15q-26 32 -61 72t-75 76t-83 62t-83 28h-14t-10 -8q0 -6 -1 -29t-1 -29z" />
<glyph unicode="E" horiz-adv-x="734" d="M66 598v128v126v448v300q6 22 3 56t-3 56v108q0 46 42 46q18 0 34 1t32 -5h8q38 -2 64 -2h50t50 1t64 1q52 0 95 3t93 3q2 0 14 -3t25 -8t24 -9t11 -6q0 -30 1 -41t1 -17t1 -17t1 -43q0 -12 -2 -21t-18 -9q-10 0 -19 1t-15 7l-4 44v38q0 8 -8 8q-6 0 -21 -2t-19 -2 q-50 0 -91 1t-91 1h-57t-39 1t-38 1h-56q-8 0 -33 -8t-31 -8q-8 -16 -8 -28v-30v-36q0 -26 1 -81t2 -123t2 -143t2 -143t2 -123t1 -81q2 -8 27 -11t56 -4t61 -1h42q20 0 27 -2t7 -22q0 -16 -16 -31t-32 -17l-172 10q-2 0 -5 -12t-5 -26t-3 -26l-1 -12q-2 -22 -2 -37t1 -27 l2 -24t1 -30v-28q0 -24 3 -75t6 -113t6 -130t6 -127t5 -103t4 -58l74 -12q10 0 26 1t20 1l326 20q0 4 2 21t2 21l-2 52q8 30 33 25t47 -25v-6q0 -12 -5 -8t-5 -8v-16l6 -58l2 -9t3 -20t3 -20l2 -9q-4 -10 -13 -13t-19 -9q-8 0 -27 1t-40 2t-39 2t-26 1q-4 0 -16 -3t-16 -5 q-37 1 -67 1h-28q-39 -1 -74 -2t-74 -2h-16q-34 0 -79 3q-2 -9 -9 -9h-2q-9 1 -13 1q-12 0 -22 3t-18 13q-2 18 -4 64t-4 99t-3 99t-1 64v24q0 12 -2 45t-4 70t-4 70t-2 47z" />
<glyph unicode="F" horiz-adv-x="708" d="M38 1820v16q0 28 25 35t45 7q40 0 92 -5t92 -5h4q4 2 19 5t19 3q20 0 59 1t83 2t83 2t59 1h18q14 0 20 -12t7 -27t0 -30t1 -23q1 -5 1 -8q0 -6 -2 -9q-3 -5 -1 -15q-6 -16 -8 -26t-18 -10h-15t-13 10q-2 8 -3 28t-3 30t1 10t3 4q-2 4 -8 13t-8 9l-480 -12q-8 0 -8 -10 v-14q0 -58 2 -116t6 -116q0 -30 1 -107t3 -165t3 -165t3 -107q6 -10 24 -16h56q46 0 89 8t87 8q18 0 25 -2t7 -22q0 -10 -6 -28t-20 -20l-262 -24v-16q0 -58 -2 -114t-2 -116v-162q0 -10 -1 -49t-1 -84t-1 -84t-1 -47q0 -4 1 -15t3 -24t3 -25t1 -14v-168q4 -14 -6 -15 t-18 -1q-16 0 -28 10t-12 28q0 144 1 300t1 300v16v41t-1 72q0 20 -0.5 42t0.5 45t1 44.5t-1 42.5q-1 41 -1 72v41v24q-1 57 -1 97t1 63q0 26 2 42q0 14 -1 57t-1 89v82v40q-2 20 -3 39t-2 45t-2 64t-3 94q0 2 -4 11t-4 11q-1 3 -1 7z" />
<glyph unicode="G" horiz-adv-x="740" d="M52 701v49l4 282v136q0 96 10 195t32 187t60 160t96 114q32 28 73 39t83 11t84 -20t78 -51t63 -68t39 -69q6 -22 7 -49t1 -55v-40v-19t-2 -27q0 -6 -1 -15t-1 -13v-10q-10 -16 -19 -19t-23 -1h-10q-4 0 -5 1t-3 1h-64v9t-2 15q-2 10 -2 22t2 14q14 0 29 2t25 4q4 0 8 1 t4 3v120q0 2 -8 29t-16 39q-24 40 -59 76t-87 54h-26q-6 0 -11 1t-9 1h-8q-54 0 -84 -25t-64 -65q-8 -10 -15 -18t-17 -18q-28 -34 -45 -91t-28 -123t-15 -133t-4 -117v-34q0 -14 -1 -29t-1 -27v-42q0 -16 -1 -39t-1 -51v-174q0 -26 -1 -55t-1 -55v-47v-29q0 -68 4 -142 t19 -145t44 -135t83 -112q22 -22 50 -28t56 -6q26 0 59 16t51 38q42 48 69 103t42 115t20 122t5 122v84q2 8 -18 10t-32 2q-8 0 -14 -1t-14 -1h-82h-17t-22 3t-19 9t-8 18q0 16 5 33t27 13h122h52t47 -7t34 -23t13 -48q0 -84 -11 -176t-35 -178t-64 -160t-98 -122 q-22 -16 -57 -29t-61 -13h-12q-69 0 -127 41q-63 45 -95 127q-6 6 -15 25t-17 42t-14 46t-8 37q-4 20 -8 48t-7 58t-4 58t-1 48v20q-2 20 -3 50t-1 50q-2 22 -2 51z" />
<glyph unicode="H" horiz-adv-x="776" d="M56 1828v10q0 16 2 28t22 12q2 0 6 -1t12 -1q4 0 24 -4q6 -2 14 -2h14l4 -12q2 -4 2 -9t2 -9q0 -6 -8 -23t-16 -17h-14v-44v-60t1 -61t1 -47q0 -58 1 -114t3 -102v-314v-20t2 -32q2 -12 3 -26t1 -22q10 -2 22 -3t24 -3q32 -4 65 -7t53 -3h71t84 2t84 6t75 10q2 0 15 7 t13 9l4 514q-4 20 -6 45t-2 47q0 16 1 31t1 29v94q0 16 -1 30t-1 28q0 34 6 80q6 11 20 11q4 0 8 -1q4 0 5 -1t5 -1t9 -1t9 -11v-8q4 -134 6 -279t2 -281q0 -98 -1 -194t-1 -192q0 -74 -1 -147t-1 -145q0 -144 2 -281t6 -269q3 -10 3 -12q0 -4 -3 -8v-8q0 -18 -16 -24 t-32 -8q-20 -10 -24 -6q-2 2 -7 4t-25 -2q-6 0 -9 11t-3 25t2 27t8 15q8 0 12 -1t6 -1t8 2l12 4q0 10 1 26t3 32q2 20 3 38t1 26q0 76 -2 139t-4 127t-3 129t-1 141v154q-4 10 -25 5t-41 -11q-8 -2 -15 -4t-11 -2q-26 0 -47 -1t-41 -1h-102q-10 0 -33 1l-46 2t-42 1h-21 t-9 -1t-15 -1q-8 -2 -15 -2h-9l-34 2q-2 -10 -2 -29v-25q0 -70 -1 -141t-1 -145q0 -104 1 -207t3 -199q0 6 1 -1t2 -18t2 -25t1 -22q2 -16 3 -35t1 -27q2 -12 0 -14q-1 -1 -4 -1t-8 1q-4 0 -9 1t-13 1q-4 0 -7 -1t-5 -1q-2 -1 -4 -1l-16 11v398q-2 132 -4 265t-4 265 q2 10 1 18t-3 20v54v25t-2 25q0 46 1 91t3 91v106v50t-2 42q0 10 -1 19t-1 19v96q0 36 1 68t1 38q-4 28 -6 62t-4 62z" />
<glyph unicode="I" horiz-adv-x="626" d="M32 20l6 100q0 12 9 18t19 6q8 0 20 -3t12 -13v-46q0 -8 14 -12t34 -6t38 -3t28 -1q4 0 17 1t17 1q8 12 11 38t3 57t-1 61t3 50v518q-3 12 -3 39q0 14 1 31q2 52 5 110t6 110q2 31 2 50q0 13 -1 20l4 526q-2 14 -3 37t-1 45v54l-8 8q-2 2 -11 2h-13q-12 0 -31 1t-40 1 t-39 -2t-28 -10l-4 -34q-14 -14 -27 -19t-25 15q0 4 -1 21t-1 23q0 16 -1 32t15 30q4 4 16 6t26 3q7 0 13.5 0.5t11.5 -0.5q11 -1 13 -1l46 -4h158h48l150 -2q16 0 25 -12t13 -29t4 -34v-27q0 -8 -13 -9t-29 -1q-14 0 -16 5t0 13t2 16t-12 14q-22 14 -54 8t-58 -6 q-16 0 -39 1t-29 -17v-34v-36l-6 -568q8 -64 8 -131t-2 -135t-5 -136t-3 -132q0 -10 -1 -44t-2 -73t-3 -73t-2 -42v-144v-142q2 -40 21 -44t61 -4q6 0 24 2t37 5t34 9t17 16l-6 40q4 12 19 17t23 5h13t9 -8l6 -38q2 -2 2 -24v-24v-22t-8 -24q-2 -2 -2 -4t-2 -4l-4 -4l-64 2 h-58l-12 -2t-27 -4l-30 -4t-21 -2q-6 4 -23 5t-36 0t-35 -2t-18 -1h-28t-34 2q-6 2 -22 3t-20 1h-22t-34 1t-32 5t-14 12z" />
<glyph unicode="J" horiz-adv-x="756" d="M52 648q2 20 9 28t18 10t22 1t23 1h12h2h2h12q46 0 46 -44q-10 -16 -20 -19t-21 -3h-21t-18 -8v-58q4 -62 14 -126t30 -124t53 -113t85 -93q22 -18 68 -31t78 -13q44 0 76 27t53 65t30 81t9 77v51t2 88t3 87t1 50l-8 782v30v39v35v18l-10 234q-2 4 -2 20v36v50l-130 10 q-4 0 -6 20t0 28q6 2 47 3t89 1h91h53q22 0 33 2h2q9 0 11 -24l2 -25q0 -9 -8 -9l-124 -6q0 -4 -1 -16t-1 -26v-26v-16q0 -6 2 -23t3 -37t3 -36t2 -22v-48t-1 -73t-1 -73v-48l2 -446v-81v-68t1 -67t5 -80q0 -4 1 -24t1 -42t1 -42t1 -24q0 -2 -1 -15t-2 -31t-3 -36t-2 -28 q1 -20 1 -42q0 -32 -2 -68q-3 -60 -20 -117t-53 -103t-98 -68h-28q-34 0 -75 1t-75 17q-62 34 -101 72t-64 85t-41 103t-34 126v24q0 4 -2 15t-5 25t-5 25t-2 15q-4 28 -11 70q-4 27 -4 48q0 12 1 22z" />
<glyph unicode="K" horiz-adv-x="794" d="M50 1834v10q0 10 9 25t21 15h96q2 0 11 -12t13 -20v-8q0 -14 -20 -14h-64q2 -34 2 -66v-57t2 -45v-46v-81v-100v-99t1 -81t1 -45l-8 -90q14 12 24 22l17 17t9 7q30 22 48 44t36 46t41 52t61 64q34 36 67 77t63 81q2 2 6 12t6 12q0 2 5 4t7 4q32 28 58 67t50 82t47 85 t47 76q2 4 8 3t13 -3t12 -5t7 -3l12 -20l-102 -186l-8 -8q-4 -6 -19 -26t-32 -43t-33 -43t-20 -24q-14 -16 -42 -49t-64 -74t-76 -86t-76 -85t-65 -73t-43 -47v-4v-4q2 -6 7 -25t9 -23q8 -16 27 -53t40 -79l40 -80t27 -52q40 -74 83 -169t88 -192t91 -188t92 -159l62 -4 q4 -4 14 -16t10 -16q1 -3 1 -7q0 -9 -7 -18q-10 -13 -24 -13q-4 0 -14 1t-14 3h-8h-8q-4 -2 -9 -4t-7 -2h-4q-22 0 -26 15t-18 25q-4 8 -14 29t-22 43t-22 43t-14 29q-22 38 -39 83t-39 83q-2 4 -11 23t-20 41t-21 41t-12 23q-20 34 -47 78t-37 86l-90 182q-2 8 -15 39 t-31 66t-36 65t-30 38l-8 -8q0 -4 -1 -33t-1 -45q0 -204 6 -406q4 -121 4 -243q0 -81 -2 -163l8 -48q8 2 16 -1t16 -1h12q22 0 24 -6t2 -30v-23t-12 -13q-6 0 -30 -1t-28 -1t-19 -3t-19 -3q-10 0 -20 11t-12 21v196q0 72 -2 140t-2 140q0 96 3 203q1 25 1 49q0 81 -8 156 l6 810q-2 6 -4 21t-3 33t-3 33t-4 21z" />
<glyph unicode="L" horiz-adv-x="688" d="M46 32v96v96q0 6 1 30t2 53t2 53t1 30q4 78 5 147t1 136t-1 136t-1 147q0 178 3 348t3 348v174q2 24 6 36t26 20q22 0 27 1t8 1h9h28q10 0 10 -9v-21q0 -10 2 -20t-8 -12l-36 -12q-2 0 -4 -9t-4 -15q-2 -4 -5 -23t-3 -25v-61t-1 -87t-1 -87v-61q0 -170 1 -320t1 -320 q0 -144 -5 -306t-5 -306q0 -30 1 -50t9 -52q4 -10 20 -13t20 -3q30 -4 34 -6t3 -4t2 -2h33h23t30 1t26 1h13h21h35t35 1t21 1q6 0 30 2t51 5t48 9t21 16l4 76q0 4 10 2t20 0q10 0 16 -1t14 -7q0 -10 1 -20t3 -20v-12l1 -54q0 -23 -23 -40q-50 -6 -109 -10t-117 -7t-109 -4 h-32q-30 0 -53 1h-78q-26 2 -48 4t-38 28z" />
<glyph unicode="M" horiz-adv-x="1146" d="M60 1306v26v44t1 45t1 27l2 388q0 26 13 39t32 17q15 3 32 3h9q22 -1 40 -1q32 0 32 -40q0 -10 -14 -18t-2 -10q-10 0 -25 4t-43 -12l88 -116q16 -20 37 -47t41 -54t36 -47t20 -26q12 -12 34 -41t47 -62t48 -62t35 -41q4 -2 5 -11t5 -11h4h4l156 232q2 2 14 19t25 37 t25 36t14 20q16 16 44 56t59 81t58 72t43 31q22 0 28 -34v-72q0 -28 1 -101t1 -156v-156t2 -101l-2 -276q8 -100 9 -193q0 -46 0.5 -95.5t-0.5 -100.5q-1 -103 -3 -224q-1 -40 -1 -85q0 -88 3 -192q2 -10 -2 -18t6 -8h8q18 -2 27 -2t25 8q6 2 15 -1t9 -7v-64q0 -4 -10 -5 t-24 0t-29 3t-23 2q-6 0 -17 -2t-21 -3t-20 1t-12 10q1 22 1 44q0 33 -2 64q-3 52 -3 116v582q-1 9 -1 41v38q1 65 2 140t1 139v78q-2 14 -1 55t2 94t1 112v109t-2 83t-8 35q-60 -64 -97 -115t-70 -101t-68 -104t-89 -122q-8 -12 -24 -37t-52 -57h-4q-4 0 -10 3t-6 5 l-222 284q-6 10 -32 45t-56 72t-56 67t-32 30q0 -220 5 -431t5 -433q0 -126 -3 -261t-3 -261q0 -54 -2 -124q-1 -23 -1 -46q0 -45 3 -88l48 4q2 0 10 -2t12 0h4q24 -14 24 -29t-8 -26t-18 -17q-5 -3 -6.5 -3t0.5 3l-86 -2q-16 0 -29 5t-15 21v202q0 218 2 434t2 434 q0 14 -1 44t-2 63t-2 62t-1 45z" />
<glyph unicode="N" horiz-adv-x="1028" d="M68 1782q0 16 1 45t1 33l8 24h78q0 -10 4 -32t10 -45t12 -44t10 -29q2 -6 11 -27t19 -45t19 -45t11 -27q0 -2 3 -8t5 -8l290 -778q2 -2 5 -7t3 -9q30 -82 71 -176t65 -182l112 -222q4 -10 7 -9t11 1q0 8 -3 27t-6 40t-6 40t-3 25q0 4 4 20t4 20v42t1 58t1 58v42v-56 q0 90 4 188t4 188q0 66 -1 116t-1 116q0 90 1 159v11q0 65 -11 146q-4 30 -4 66v72v71t-4 65q0 4 -2 27t-4 50t-4 50t-2 27v4q0 16 12 24t26 8q22 0 34 1q6 0 12 0.5t11 -0.5q11 -1 22 -3t33 -8q-8 6 -7 6t6 -3t11 -7l6 -4v-50q-2 -2 -6 -4q-8 -4 -10 -4h-2q-6 0 -7 1t-5 1 t-16 -3t-40 -9l8 -140q2 -18 3 -55t1 -85t-1 -99t-2 -99t-2 -85t1 -55l4 -692q0 -4 3 -16t5 -16q0 -20 -1 -72t-2 -110t-3 -110t-2 -72v-40v-40q-8 -16 -28 -16q-32 0 -39 24t-19 48q-2 2 -7 10t-10 18t-10 18t-5 10q-68 132 -131 270t-109 280q-2 4 -6 19t-10 32t-10 32 t-6 19q-2 6 -7 18t-11 26t-13 27t-9 17q4 14 0 18t-8 14q-8 20 -26 66t-37 94t-34 89t-19 51q0 4 -3 16t-5 16l-124 316q-12 20 -16 36t-7 31t-10 29t-23 32q0 -6 -1 -18t-1 -18q0 -10 1 -32t1 -24v-43v-71v-72v-42q7 -69 7 -143v-18q-1 -83 -2 -167v-42q0 -63 2 -127 q3 -85 19 -165q0 -24 -1 -87t-1 -133t1 -132t1 -88q0 -58 5 -121t5 -121v-20q-3 -3 -13 -3h-5q-14 1 -30 4t-30 5t-18 2l16 60q0 6 -1 24t-2 39t-2 38t-1 23v126q0 92 -2 164q-1 24 -1 49q0 51 3 107l-12 638z" />
<glyph unicode="O" horiz-adv-x="808" d="M60 780v18t1 37t2 43t1 36q4 54 6 122t7 139t12 138t19 121q24 102 62 201t118 161l10 10t17 18t17 18t10 8l70 14h24q8 0 22 2q70 -2 120 -36t83 -86t51 -117t28 -130t13 -123t5 -98q0 -120 4 -259q2 -56 2 -111q0 -83 -4 -167q-6 -139 -26 -269t-68 -232 q-16 -42 -36 -82t-47 -72t-63 -55t-86 -31q-82 4 -141 41t-100 96t-66 136t-38 161t-17 169q-3 57 -3 109q0 26 1 52zM131 903v-59q0 -57 1 -108q2 -70 5 -152t18 -163t48 -156t93 -129q30 -28 58 -42t74 -16q36 0 61 18t45 42q44 54 72 125t45 149t27 157t20 151v506 q1 9 1 23v14q-1 23 -4 47t-6 46t-3 36q0 36 -11 104t-37 136t-69 120t-109 54h-6q-62 0 -109 -37q-49 -39 -84 -96t-57 -122t-32 -119q-14 -74 -23 -163t-13 -182t-5 -184z" />
<glyph unicode="P" horiz-adv-x="766" d="M57 1310q-1 52 -1 104q0 138 6 272q0 10 1 36t1 55t1 55t1 36q2 2 27 6t56 8t59 8t34 4q56 -2 107 -19t99 -45q140 -82 207 -214q61 -121 61 -268v-26q-2 -68 -19 -141t-39 -139q-54 -156 -162 -268t-276 -154q-4 -2 -13 -1t-11 1q-6 -2 -25 -5t-23 -5q0 -6 -2 -30 t-2 -30q0 -10 -1 -33t-1 -27q0 -14 1 -56t3 -90t3 -91t3 -55q0 -14 2 -34t4 -39t4 -33l2 -14h60q8 0 7 -14t-3 -16q0 -46 -41 -46h-7q-2 0 6 -1t18 -1h26q-8 0 -30 2t-46 4t-46 4t-28 2q-12 6 -15 12t-1 18q0 10 -2 27t6 23q0 8 1 35t1 37q4 123 4 249q0 63 -1 127 q-3 192 -8 385t-8 385zM125 1233q7 -265 17 -535h8q52 0 106 18t103 48t90 71t67 87q58 104 95 192t41 188v23q0 86 -26 168q-30 93 -89 164t-144 114t-189 43q-18 0 -47 -9t-29 -35q-6 -160 -6 -318q0 -110 3 -219z" />
<glyph unicode="Q" horiz-adv-x="806" d="M60 906q10 242 32 394t54 252q14 50 35 107t56 105t83 79t116 31q56 0 96 -22q46 -28 71 -61t40 -72t26 -82t27 -89q4 -26 10 -86t13 -127t12 -126t5 -83q0 -4 1 -23t1 -29v-52q0 -28 -1 -84t-2 -113t-2 -103t-1 -54q0 -10 -6 -43t-13 -72t-13 -75t-8 -52q-2 -6 -8 -28 t-13 -46t-13 -44t-8 -24q-8 -44 -19 -70t-23 -45t-26 -37t-28 -44v-4q0 -14 6 -32t16 -35t24 -28t30 -11q14 0 26 5t26 5q18 0 23 -11t5 -27q0 -20 -12 -29t-31 -12q-14 -2 -30 -2h-10q-21 1 -35 1q-20 8 -31 31t-20 46t-18 41t-23 18q-12 0 -28 -8t-36 -17t-42 -17t-44 -8 q-92 0 -145 48t-80 118t-37 151t-16 145q-4 44 -6 103t-3 121t-1 121t-2 105zM114 669q0 -49 4 -77q0 -10 3 -44t7 -73t7 -73t3 -42q2 -36 14 -87t34 -99t58 -82t88 -34q14 0 41 6t53 17t45 26t19 33q-2 0 -2 -2v-6q-2 -4 -2 -10q-4 16 -12 59t-17 93t-18 93t-11 59 q0 4 -4 31t-8 57t-8 57t-6 31q-6 40 -17 58t-25 24t-28 4t-26 -4t-20 2t-8 22q0 24 18 36q68 -2 98 -12t41 -32t12 -57t11 -89q4 -20 14 -74t22 -116t23 -116t15 -74h4q4 0 12 10t16 22t14 23l6 11q24 50 40 125t26 161t16 176t10 174l-2 24v61t-1 96t-2 95t-1 60 q0 10 -2 46t-4 78t-4 78t-2 46q-4 46 -20 105t-43 111t-64 89t-81 41h-23t-25 -2h-5q-44 0 -102 -72q-61 -76 -103 -226q-12 -52 -26 -125t-24 -150t-17 -151t-7 -130q0 -30 -1 -79t-2 -101t-1 -101z" />
<glyph unicode="R" horiz-adv-x="812" d="M64 44q0 20 7 25t18 4t23 -2t22 9l4 724l2 24v160l-4 184l-6 466q0 14 2 36t3 44t-1 44t-10 36q-10 18 -18 16t-16 -5t-12 0t-4 29v22t16 10q24 0 52 6q17 4 34 4l22 -2q0 -8 -2 -30t2 -32h2q20 0 34 7t30 16t38 18t60 13q27 5 53 4q64 0 117 -28q74 -40 120 -120 q28 -50 48 -103t24 -121v-130q0 -42 -8 -86t-25 -85t-43 -78t-60 -63q-12 -10 -27 -15t-30 -12t-27 -17t-16 -28q26 -126 56 -257t61 -251t64 -222t63 -168q8 -10 9 -14t11 -4q14 0 24 5t22 5q14 0 19 -13t5 -23q0 -8 -6 -26t-18 -18h-110q-4 0 -16 12t-16 20q-2 2 -11 23 t-9 25q-10 36 -10 65t-14 63q-10 28 -21 65t-25 88t-32 119t-40 156l-82 332q-12 -4 -46 -9t-70 -13t-63 -19t-27 -25q2 -178 4 -363t2 -363q0 -4 -1 -19t-2 -31t-2 -30t-1 -18l-16 -80h-94q-8 0 -20 17t-12 27zM206 1004q0 -8 7 -8h3q10 2 14 0l11 1t35 6t65 16t103 33 q44 24 83 51t69 62t47 78t17 99q1 25 1 49v24q-1 35 -5 69l-28 136q-38 108 -111 161q-50 36 -114 36q-29 0 -61 -7q-2 0 -23 -8t-46 -20t-46 -26t-21 -26v-726z" />
<glyph unicode="S" horiz-adv-x="650" d="M48 412v29v49t1 49t1 29v16v13t10 11q6 0 23 1t37 3t38 3t24 1q22 0 19 -15t-5 -39q-10 -4 -20 -5t-20 -1t-21 -4t-23 -14l-12 -98q4 -6 6 -18t2 -25v-24v-17q12 -74 26 -128t39 -92t67 -59t114 -29h22q30 0 59 11t52 31t38 47t17 59q3 25 3 50q0 50 -11 98 q-16 72 -44 142t-65 138t-73 134q0 2 -6 9t-8 7q-4 8 -15 23t-15 17q-52 88 -100 168t-82 163t-52 173q-14 68 -14 145q0 26 2 53q8 80 35 144t64 109t83 70t92 25q70 0 113 -35t70 -86t42 -112t27 -115q10 -48 15 -92q3 -24 3 -51q0 -22 -2 -45q0 -18 -21 -25t-45 -7 q-12 0 -27 -1t-27 0t-19 9t-7 26q2 8 4 18t14 10h68v15q0 47 -10 111q-12 74 -39 142t-69 117t-98 49q-50 0 -87 -30t-61 -75t-36 -96t-14 -89q-1 -23 -2 -45q0 -97 29 -185q35 -108 89 -209t117 -200t111 -201q2 -6 14 -35t27 -65t29 -71l22 -55q16 -46 28 -104 q9 -44 9 -79q0 -12 -1 -23q-6 -108 -58 -171q-50 -61 -161 -61h-7h-18q-98 2 -154 31t-87 81t-44 128t-25 174z" />
<glyph unicode="T" horiz-adv-x="684" d="M46 1854q0 14 5 24t23 10q20 0 37 2h9q13 0 28 -4h470q10 0 15 -7t9 -17t3 -28t3 -28q-2 -20 -13 -28t-15 -4q-6 4 -17 3t-11 1l-4 46q-20 0 -40 2q-16 2 -34 3t-30 1q-2 0 -22 1t-30 1q-6 0 -26 -1t-26 -1q-8 -22 -5 -58t3 -60v-49t8 -47q4 -74 7 -161t4 -177t1 -178 v-164q-1 -61 0 -123q0 -155 3.5 -318.5t3.5 -317.5q0 -62 -1 -123q22 -6 33 4t29 8q12 -14 13 -36t-17 -26l-16 -1q-16 -1 -37 -1t-41 -1t-28 -1q-10 0 -24 -1t-24 -1q-14 4 -24 12t-10 24q0 4 1 14t9 10l68 2l8 12v29t-1 76t-1 105t-1 117t-1 114t2 93q3 51 3 101 q0 25 -1 51q-2 76 -2 154q-6 188 -10 419t-24 499q-23 2 -48.5 2t-53.5 -2q-56 -4 -104 -8v-16t-2 -16q-2 -12 -12 -11t-22 1q-16 0 -18 24t-2 50z" />
<glyph unicode="U" horiz-adv-x="806" d="M65 1389v15q0 229 29 458q2 10 20 18t28 8h4l64 -4q12 0 9 -22t-3 -36v-4q-22 -6 -28 -6t-9 2t-6 1t-19 -11q-22 -212 -25 -429t-3 -431v-82t2 -99t5 -99t9 -82q2 -10 4 -36t5 -53t6 -51t5 -30q0 -4 5 -27t11 -51t12 -55t12 -41q28 -82 63 -122t105 -40q6 -1 12 -1 q32 0 65 26q39 31 72 79t57 103t30 95l20 242l1 16t2 34t2 34l1 16q2 54 4 118t3 120t2 93t1 39l2 32l-4 690q-4 22 6 48q9 24 36 24h4q38 0 34 -42q0 -8 -1 -25t-3 -35t-3 -35t-1 -25v-140q0 -8 -1 -37t-1 -62v-62v-37q0 -2 -1 -60t-2 -138t-3 -167t-2 -145v-16v-20v-29 t1 -28t1 -19v-128q0 -66 -3 -120t-5 -99t-2 -82t4 -71q1 -13 1 -28q0 -25 -4 -54q-3 -19 -3 -37q0 -26 6 -49v-6v-6h4q2 0 2 1t2 1h20t22 2q10 2 13 -15t3 -25q0 -26 -4 -34t-14 -10t-26 0t-38 -4q-2 0 -14 1t-14 1q-10 0 -15 -3t-6 -5q0 -1 -0.5 -1t0.5 2q1 3 1 15 q0 20 -1 32t-3 22t-2 21t4 31v32q-2 14 0 38l4 48t3 41l1 17h-8q-8 -46 -32 -95t-58 -91t-74 -69t-76 -29q-20 0 -38 -1t-40 5q-62 16 -105 74t-71 140t-43 180t-21 192t-7 178t-1 138q0 236 -1 473z" />
<glyph unicode="V" horiz-adv-x="878" d="M36 1830v32q0 4 1 13t1 11q16 2 45 2h45h14q12 0 25 -7t17 -19l284 -1670q0 -4 3 -13t5 -11l4 -2q10 0 18 27t13 61t8 64t3 36q0 10 3 37t5 35q2 16 7 51t10 75t9 75t8 51q6 28 11 75t11 96t12 94t14 69q0 66 9 150t21 183t25 210t19 231v68q0 34 44 34q14 0 48 1h9 q27 0 41 -5q16 -4 17 -15t1 -25q0 -18 -6 -29t-26 -11h-44h-10l-2 -52q-2 -18 -5 -56t-9 -87t-11 -104t-11 -104t-10 -88t-4 -55l-32 -198q-22 -174 -40 -334t-46 -330q-4 -18 -7 -54t-8 -80t-13 -91t-20 -85t-29 -62t-41 -24q-14 0 -23 4t-13 20l-184 1028q-28 66 -33 141 t-13 145q-4 28 -12 52t-4 52q-2 14 -9 57t-14 92t-14 92t-9 55q-4 18 -10 33t-16 33q-8 4 -11 6t-11 4h-4h-36q-20 0 -20 16z" />
<glyph unicode="W" horiz-adv-x="1496" d="M32 1836v16t3 24t15 18l40 -6q9 8 20 8q3 0 7 -1q15 -3 31 -3q18 0 32 -47t24 -118t19 -157t19 -164q8 -74 15 -132t15 -80l112 -890q4 -12 8 -28t8 -30q4 -16 11 -38t13 -36q6 6 10 27t8 37q0 4 1 10t1 10q4 16 5 31t3 31q8 54 17 108t23 108q14 114 28 231t28 231 q0 14 5 43t10 61t11 63t10 49q4 16 4 20q0 10 4 31t8 44t7 43t5 28q12 12 8 18v20l6 24l50 380q2 12 12 20t22 10t24 -3t16 -19q4 -22 12 -73t17 -108t16 -106t11 -69q0 -6 3 -37t5 -43q6 -24 18 -84t26 -127t27 -126t17 -83q-2 -2 1 -20t7 -36q4 -20 5 -37t3 -27v-24 q2 -8 2 -17t2 -17q10 -76 22 -162t27 -172t33 -169t40 -155q0 -8 4 -12q4 10 10 30t10 20q-4 -16 -6 -26t-4 -17t0 -7q16 30 22 75t12 91q4 34 8 64t12 52q8 74 18 157t19 167t19 167t18 157q14 60 19 122t11 122q4 34 7 72t7 72q10 76 20 157t20 157v66q0 14 6 37t24 23 l96 4q0 -2 7 -4t13 -4h6q2 0 6 -4t4 -6v-56q0 -10 -18 -14t-24 -4q-8 0 -3 -1t-1 1q-16 4 -30 4q-2 0 -4 -5t-2 -9l-106 -804q-10 -122 -21 -247t-21 -247q-12 -54 -21 -103t-17 -93q-14 -78 -28 -149t-40 -135q-8 -13 -22 -13q-4 0 -8 1q-4 0 -7 1t-7 1h-8q-4 0 -14 3 t-12 5t-5 8t-3 10q-6 26 -14 54t-16 58q-14 54 -27 108t-23 100q-18 96 -32 192t-26 192q-12 88 -25 178t-29 178q-2 12 -4 29t-6 37q-4 26 -7 55t-8 56t-11 49t-12 36l-40 234q6 6 -4 12q-2 -4 -4 -11t-4 -11q-4 -16 -10 -48t-16 -72q-14 -58 -27 -114t-17 -78 q-4 -72 -18 -154t-30 -154q-28 -206 -56 -414t-56 -412l-22 -110q-4 -10 -18 -14t-24 -4q-8 2 -14 6q-12 8 -12 12l-18 54l-48 222q4 20 1 32t-7 22q-4 8 -6 14t-4 16q0 10 -2 18q-4 20 -4 36q-4 24 -7 48t-3 28q-2 16 -4 30t-6 30q-6 34 -12 70q-4 22 -4 42q0 14 2 28 q-10 68 -20 135t-18 135q0 2 -1 12t-3 21t-4 20t-2 13q-10 118 -26 230t-38 230q-4 26 -10 51t-10 51q-2 4 -2 17t-2 29q-2 24 -4 54t-6 57t-9 45t-13 18l-66 6q-10 0 -10 10z" />
<glyph unicode="X" horiz-adv-x="1012" d="M48 44q0 4 1 10t1 10q2 2 8 4t8 4q8 2 35 12t37 12q10 0 34 59t53 149t62 197t61 204t48 172t24 99q0 76 -27 150t-47 148q-2 10 -11 23t-13 25q-16 60 -29 103t-26 83t-28 83t-33 101q-4 8 -9 29t-12 43t-14 39t-13 17q-30 0 -44 1t-36 -7q-16 6 -12 27t4 37l106 6 q12 6 21 3t14 -11t8 -17t7 -11q4 0 15 -25t24 -64t28 -85t27 -89t20 -76t10 -43l92 -310l16 -40q10 6 19 26t18 44t16 47t11 33q48 128 88 249t92 247l14 64q2 0 5 9t7 19q4 12 8 30q2 0 14 1t25 3t25 2h12q14 -2 31 -1t30 -2t22 -13t9 -34q0 -12 -3 -24t-23 -12l-92 6 l-136 -376q-2 -4 -4 -16t-4 -16q-4 -10 -19 -51t-33 -88t-33 -88t-19 -51q-4 -12 -11 -34t-13 -44t-11 -39t-5 -19v-16q0 -4 12 -46t28 -96t34 -110t30 -90q4 -10 24 -59t43 -104t43 -104t24 -59l122 -246q12 2 30 4t35 0t28 -11t11 -31q0 -10 -6 -19t-18 -9l-94 -2 q-24 14 -59 71t-72 136t-75 170t-69 172t-52 142t-27 83q-4 10 -9 40t-7 40l-4 2q-6 0 -13 -13t-11 -29t-8 -31t-4 -17q-2 -6 -5 -20t-7 -30t-7 -31t-5 -21l-178 -552l-22 -86q0 -4 -18 -6t-42 -3t-46 0t-30 1q-20 4 -23 13t-3 23z" />
<glyph unicode="Y" horiz-adv-x="960" d="M42 1840q0 24 1 33t4 10t13 -1t28 0q14 0 14 1t16 -1h4h40q22 -4 32 -2t32 6h2h4q16 -10 15 -23t-3 -27q2 -12 -3 -14t-16 -1t-23 3t-20 -2q6 -46 31 -115t52 -137t50 -126t27 -84q8 -20 32 -72t50 -111t49 -112t33 -75l20 -62l100 -226h8q30 232 49 478t53 480q2 4 4 19 t4 32t3 33t1 20q0 6 4 23t8 36t7 36t3 23q4 10 17 8t17 -2t17 1t28 2t27 2t16 1h6q18 0 26 -14t8 -30q0 -6 -3 -14t-17 -8l-64 2q-2 0 -8 -6t-8 -10q-4 -6 -11 -31t-9 -31l-54 -556v-16l-62 -548q-2 -6 -8 -47t-14 -91t-14 -92t-6 -48q-2 -14 -6 -50t-9 -76t-8 -76t-5 -50 q6 -8 5 -23t-6 -29t-9 -26t-2 -14l-34 -12h-82l-6 4q-6 8 -10 30t26 38q14 0 18 -1t5 -2t4 1t17 10q2 4 5 26t7 28l40 338q0 4 1 22t1 28v72q-2 2 -6 14t-9 26t-9 25t-6 13q-62 110 -106 219t-94 227q-12 30 -25 62t-33 60q-56 140 -104 290t-104 298h-58q-8 0 -9 5t-1 9z " />
<glyph unicode="Z" horiz-adv-x="770" d="M34 28v4q0 2 2 4q76 140 134 295t104 311q2 2 5 6t3 8q0 -2 2 4t4 10q4 12 13 32t17 38q8 22 18 46l196 548q0 4 3 10t5 8v-2l108 396v60l-12 8q-6 2 -10 6q-18 0 -56 -1t-62 -3q-20 -2 -40 -2h-28h-24q-22 0 -53 1t-49 1q-8 0 -26 -1t-38 -1h-62q-10 0 -31 -3t-31 -11 q0 -2 -1 -5t-1 -7v-30q-2 0 -2 -2v-12q0 -16 -9 -26t-21 -14t-24 1t-18 21v40q0 14 -4 22q-2 4 -2 24q0 24 8 37t22 19t32 6h38h36t34 4h494l16 -16v-24q0 -76 -21 -154t-47 -152l-12 -36q-52 -156 -107 -319t-107 -319l-110 -292q-20 -60 -44 -128t-44 -126q-2 -2 -5 -7 t-3 -7q-4 -12 -17 -45t-29 -69t-28 -68t-16 -44q0 -4 16 -6t37 -3t43 0t34 1h40h45t57 4h29h49t48 1t28 1q2 0 5 1t7 1q18 2 45 4t39 8v16t2 18q0 10 1 22t1 14q4 18 15 28t23 12t20 -4t6 -20v-52q4 -20 4 -38q2 -12 3 -28t1 -12v-6q0 -18 -12 -21t-28 -3q-4 0 -10 -1 t-12 -1q-32 -4 -60 6q-6 -6 -47 -8t-91 -2h-76t-58 -4q-28 -4 -57 -6t-59 -2q-22 0 -42 1t-40 1h-62q-14 0 -29 7t-15 27z" />
<glyph unicode="[" horiz-adv-x="426" d="M54 -146q8 12 11 37t3 54v58t4 49l-10 734q-4 18 -2 70t5 110t6 110t1 70l24 688q-2 14 -3 48t-3 68q-2 40 -4 88l76 4h48l150 -2q16 0 25 -12t13 -29t4 -34v-27q0 -8 -13 -9t-29 -1q-14 0 -16 5t0 13t2 16t-12 14q-22 14 -54 8t-58 -6q-16 0 -39 1t-29 -17v-34v-36 l-26 -730q8 -64 8 -131t-2 -135t-5 -136t-3 -132q0 -6 1 -40t1 -82v-102v-102v-82v-40v-144v-142q2 -40 21 -44t61 -4q6 0 24 2t37 5t34 9t17 16l-6 40q4 12 19 17t23 5h13t9 -8l6 -38q2 -2 2 -24v-24v-22t-8 -24q-2 -2 -2 -4t-2 -4l-4 -4l-64 2h-58l-12 -2t-27 -4l-30 -4 t-21 -2q-6 4 -21 6t-30 2t-29 -1t-16 -1z" />
<glyph unicode="\" horiz-adv-x="714" d="M64 1828v14q0 4 2 8l16 16l124 2q10 0 13 -17t3 -23q0 -10 -5 -23t-19 -13l-64 8q10 -40 27 -86t17 -86l136 -444q14 -22 19 -47t13 -49q2 -8 14 -45t27 -79t27 -79t14 -45q6 -20 18 -62t27 -95t31 -111t31 -111t26 -95t15 -62q4 -10 11 -36t14 -55t14 -56t11 -35 q10 -22 25 -48t15 -52q0 -20 -11 -28t-27 -8q-12 0 -32 -3t-39 -3t-33 6t-14 26q0 14 8 27t24 13h8l22 -4q-8 8 -18 37t-19 63t-17 65t-12 43q-16 62 -29 110t-25 95t-24 95t-26 110l-8 28q-4 12 -9 28t-9 32q-10 38 -24 86l-270 868q-8 24 -13 58t-5 62z" />
<glyph unicode="]" horiz-adv-x="472" d="M56 1938v27t4 34t13 29t25 12l150 2h48l76 -4q-2 -48 -4 -88q-2 -34 -3 -68t-3 -48l24 -688q-2 -18 1 -70t6 -110t4 -110t-1 -70l-10 -734q2 -20 3 -49t1 -58t3 -54t11 -37l-10 -70q-4 0 -17 1t-28 1t-30 -2t-21 -6q-6 0 -21 2l-30 4t-27 4l-12 2h-58l-64 -2l-4 4 q-4 4 -4 8q-8 12 -8 24v22v24t2 24l6 38q0 8 9 8h13q8 0 23 -5t19 -17l-6 -40q2 -10 17 -16t34 -9t37 -5t24 -2q42 0 61 4t21 44v142v144v40v82v102v102t1 82t1 40q0 64 -3 132t-5 136t-2 135t8 131l-26 730v36v34q-6 18 -29 17t-39 -1q-26 0 -58 6t-54 -8q-12 -6 -12 -14 t2 -16t0 -13t-16 -5q-16 0 -29 1t-13 9z" />
<glyph unicode="^" horiz-adv-x="518" d="M68 702q38 66 70 118q28 46 50 82t26 38q8 8 12 9t14 3q18 2 30 -8t20 -26t15 -33t13 -29q2 -4 8 -14t14 -22t15 -24t11 -18q2 -4 18 -25t16 -25t2 -6l4 -8q4 -14 -1 -17t-21 -5q-10 -2 -19 -2t-15 10q-4 6 -11 18t-16 25t-17 25t-10 18q-10 14 -21 39t-27 39h-4l-2 -2 q-4 -6 -13 -18t-19 -26t-18 -27t-10 -17q-16 -24 -31 -55t-47 -35q-12 -2 -22 3t-14 15z" />
<glyph unicode="_" d="M76 91q0 19 3 35t9 16q10 2 23 -4t33 -4v-40l104 10q26 0 49 -4t47 -4h4h52t52 2l11 1t25 3t25 3l11 1q2 -2 6 -4l8 -4q28 0 25 -19t-3 -51q0 -6 -6 -13t-13 -10t-15 -3t-10 8q-10 26 -11 27t-21 1l-394 4q-6 0 -10 15t-4 34z" />
<glyph unicode="`" horiz-adv-x="348" d="M72 1512q-2 8 3 20t12 22t16 14t15 -2l50 -56q36 -36 55 -59t30 -36t18 -21t19 -16q4 -2 2 -10t-7 -18t-12 -19t-13 -13q-18 -6 -30 4t-22 22q-2 4 -14 19t-25 32t-26 32t-15 19q-2 2 -10 9t-17 16t-16 17t-9 12q-2 2 -2 4q-2 2 -2 8z" />
<glyph unicode="a" horiz-adv-x="828" d="M42 630q-1 19 -1 36.5t1 33.5q0 16 3 48t6 67t7 68t10 51q16 58 34 123t49 119t81 91t130 41h10q36 0 65 -13q33 -15 59 -38t48 -48t42 -43q8 14 7 39t0 48t9 40t32 19h4l20 -15t6 -15v-116l-6 -136l8 -204l2 -288q0 -12 2 -42t4 -61t3 -55t1 -26l4 -194q2 -14 0 -29 t-1 -27t9 -21t32 -9q10 0 19 -1t19 3q14 -2 25 -14q13 -15 13 -29q0 -10 -6 -19q-8 -12 -16 -18q-4 0 -14 -1t-14 -1h-24t-34 1t-32 4t-18 7q-23 33 -23 70q0 6 1 11q1 14 1 29q0 28 -5 56q-4 12 -4 36t1 50t2 47t1 25q-2 4 -2 23t1 42t1 42v23q-8 0 -10 2t-6 -8 q-6 -52 -21 -131t-46 -152t-80 -127t-123 -58h-6q-42 0 -74 25q-34 27 -70 55q-24 18 -44 63t-35 98t-25 102t-12 77q-4 32 -8 70t-7 77t-5 77zM104 692q0 -66 3 -131t9 -125q4 -40 10 -72t16 -63t23 -62t29 -67q0 -2 5 -14t12 -24t15 -22t14 -10q26 -24 45 -38q12 -9 30 -9 q10 0 23 3q40 2 74 43t61 104t47 139t34 149t22 135t12 96q0 4 1 20t2 34t2 33t1 19t2 13t4 11l-18 192q-2 2 -4 6t-4 6t-2 4q-4 6 -15 21t-13 17q-22 26 -39 52t-37 45t-43 31q-20 10 -48 10h-9q-62 -4 -102 -35t-66 -74t-42 -90t-28 -79q-2 -2 -4 -8t-2 -8 q-12 -58 -16 -122t-4 -130z" />
<glyph unicode="b" horiz-adv-x="728" d="M54 12v30v62t1 67t5 45l-6 330q-1 1 -1 3q0 5 3 18q4 19 4 23v2q0 116 2 251t2 249q0 8 -1 40t-2 70t-2 70t-1 38v36v224v18v38v59t1 58t1 37l-6 62q0 2 2 16t4 18q0 2 9 2h21h32l26 -6q20 0 20 -24l-12 -22q0 -4 -10 -5t-24 -1h-6q-4 -43 -4 -88q0 -22 1 -45 q3 -69 3 -121v-44q0 -6 1 -26t3 -42t3 -42t1 -26v-44v-69t1 -69t1 -44q0 -10 2 -40t6 -40q20 18 33 39t29 41q16 18 43 42t57 45t61 35t59 14q26 0 69 -12t63 -20q48 -22 72 -62t35 -89t14 -100t7 -93v-16v-26v-26v-16q0 -66 2 -148q1 -33 1 -66q0 -50 -2 -102 q-3 -86 -15 -168t-38 -150q0 -2 -11 -13t-25 -27l-36 -40q-16 -24 -46 -47t-65 -42t-72 -30t-69 -11q-30 0 -57 17t-49 38t-40 39t-26 18h-4q-10 -22 -11 -37t0 -25t2 -18t-3 -18h-24q0 18 -5 14t-12 -13t-12 -12t-5 17zM130 506q0 -40 1 -79t1 -68v-33q0 -40 2 -82t30 -76 q8 -12 23 -30t31 -35t34 -29t36 -12q56 0 102 21t82 55t63 76t45 86q14 32 20 101t7 138t1 124t2 61q0 2 -1 11t-1 20v20v13q2 14 2 29t-2 30q-4 31 -4 59q0 50 -4 105t-22 101t-54 75t-102 29q-58 0 -102 -29t-77 -72t-56 -95t-37 -100q-2 -4 -8 -20t-8 -20q0 -14 -1 -59 t-1 -96t-1 -96t-1 -59v-64z" />
<glyph unicode="c" horiz-adv-x="762" d="M54 764q10 38 30 109t45 146t55 139t60 88q46 34 109 45t119 11q22 0 41 -8t37 -17t36 -16t40 -7v6q-2 0 -2 12v14v4q-2 12 8 23t22 11h14t12 -8q0 -70 4 -118t8 -112q2 -14 -9 -36t-27 -22q-4 0 -13 6t-13 10q-4 98 -57 146t-143 48q-82 0 -133 -40t-83 -101t-52 -133 t-38 -136q-6 -36 -9 -82t-3 -94t1 -94t5 -80q0 -8 5 -31t10 -50t10 -51t9 -36q8 -32 24 -73t41 -78t58 -62t77 -25q56 0 105 36t89 89t70 111t48 102q2 4 11 9t11 7h4q22 0 26 -20t6 -36v-7q0 -26 -14 -44q-16 -21 -28 -43q-26 -44 -58 -92t-73 -89t-90 -68t-107 -27 q-78 0 -131 55t-88 130t-52 155t-19 130q-4 78 -6 144t-2 150z" />
<glyph unicode="d" horiz-adv-x="754" d="M64 774q0 2 3 31t6 64t6 67t5 44q8 54 27 112t50 106t77 79t112 31q64 0 116 -32t88 -80q6 -10 16 -27t21 -35t22 -33t21 -21l4 720q0 10 -12 10h-14q-24 0 -31 -5t-31 -5q-6 0 -7 11t1 26t4 29t2 20l48 -6q4 0 24 4t24 4h12q32 0 44 -32q2 -16 2 -52v-81v-95v-96v-82 v-52v-138q0 -122 -3 -248t-3 -250q0 -48 4 -104q3 -37 3 -71q0 -17 -1 -33l6 -444v-42v-38t-3 -16t-8 -4h-17q-24 -2 -30 -4t-30 -2q-26 0 -26 28q0 40 9 44t39 4q0 24 -1 52t-1 53t-1 45t-1 28q-4 14 -4 40t-1 52t-2 46t-3 20q0 -48 -27 -119t-73 -137t-105 -113t-125 -47 q-58 0 -101 34t-72 85t-44 109t-15 106zM127 499q-1 -27 -1 -55q0 -45 3 -90q5 -72 21 -134t54 -100q16 -20 38 -38t50 -18h8q6 2 27 7t27 9q58 36 102 89t76 121t54 147t34 163q2 6 3 30t2 51t3 51t6 30q0 4 -2 23t-3 42t-3 42t-2 23q-14 50 -37 112t-56 116t-77 89 q-36 28 -80 28q-10 0 -20 -1q-68 0 -106 -30t-60 -90q-6 -18 -15 -46t-16 -58t-13 -58t-8 -46q-2 -10 -3 -34t-2 -52t-1 -53v-35v-102q0 -60 -3 -133z" />
<glyph unicode="e" horiz-adv-x="758" d="M40 660q-1 5 -1 8q0 8 3 12q4 6 20 16q16 188 69 335t171 249q24 12 50 15t54 3q54 0 95 -29t72 -78t51 -109t32 -121t18 -117t8 -94q0 -8 1 -26t1 -39t1 -39t1 -24q-4 -8 -22 -14t-40 -11t-41 -7t-27 -2q-16 0 -33 4t-33 4q-46 0 -88 -4t-86 -4q-32 -2 -62 2t-60 4h-56 q-8 -4 -8 -8v-8v-23q0 -75 11 -145q13 -80 37 -146t60 -116t78 -80q18 -12 48 -14t52 -2q56 0 94 25t62 64t33 87q7 39 7 79v17q0 6 -2 19t-2 15l-8 8q-10 -2 -30 1t-30 5q-2 0 -14 6t-18 10l-8 8v4q-4 30 22 44q8 0 18 -2t18 -2t27 1t39 -1t36 -10t18 -24q2 -6 2 -26v-26 v-15q0 -36 -8 -61q-10 -30 -18 -70q0 -4 -2 -14t-4 -22t-4 -23t-2 -13q-6 -16 -18 -26t-20 -22q-34 -46 -71 -67t-97 -21q-76 0 -124 14t-81 44t-56 74t-47 104q-14 12 -20 37t-16 65q-18 60 -21 133t-5 137q-10 12 -18 24t-8 28zM134 666q62 -10 123 -14q41 -3 83 -3 q21 0 42 1q58 0 103 1t105 11q4 0 20 7t18 17l2 174q-8 12 -9 18t0 11t2 12t-3 23q-10 36 -27 89t-43 102t-61 84t-79 35q-58 0 -97 -32t-67 -82q-30 -52 -51 -110t-35 -117t-20 -118t-6 -109z" />
<glyph unicode="f" horiz-adv-x="866" d="M42 912q0 12 4 23t20 13h52q30 0 60 -3t60 -3q24 0 28 24q-2 92 -5 186q-1 22 -1 43q0 72 8 143q0 2 1 14t2 27t2 27t1 14q4 54 10 101t20 92t40 90t70 93q6 8 20 20t29 24t31 20t28 8l84 -8q6 1 12 1q31 0 58 -17q32 -20 57 -56t42 -82t25 -94q2 -18 5 -65t5 -101 t2 -106t-4 -82v-12q2 -18 -11 -34t-35 -16q-2 0 -11 4t-11 4h-96q-22 -4 -22 11v25q0 12 3 17t23 5h96l8 8v24v113t-10 145t-35 139t-77 99q-12 10 -32 9t-32 -1q-60 0 -99 -31t-63 -77t-36 -99t-18 -99v-8v-25t-1 -40t-2 -40t-1 -25l-1 3t-2 3t-1 -6t4 -24q0 -2 -7 -8 t-9 -8v-4v-4q2 0 5 -7t3 -9q2 -4 -2 -12q-2 -4 -4 -6v-16t-2 -12q-4 -6 -5 -19t-1 -28t1 -28t1 -19q0 -12 1 -38t2 -56t2 -56t1 -38q8 0 15 -5t5 17q4 -16 14 -16h20q52 2 105 6t105 4h16t25 1t25 1h18q16 -10 16 -36q0 -14 -4 -20t-20 -16q-12 0 -44 -1t-68 -3t-68 -4 t-44 -2q-8 0 -21 -2t-26 -3t-23 -3l-10 -2l4 -26h-4q0 8 -4 17t-14 9t-10 -16v-10l2 -264l6 -470l8 -48l110 2q8 -2 12 -11t5 -21t-3 -23t-12 -15q-16 -1 -31 -1q-30 0 -55 3q-19 2 -41.5 2t-48.5 -2q-18 4 -23 16t-5 26q0 4 1 8t1 6l4 82q0 58 2 121q1 31 1 62t-1 61 q0 120 -3 240q-2 72 -2 143q0 47 1 93q-4 10 -21 13t-21 3h-13h-20t-20 -1t-11 -1q-6 0 -21 1t-31 3t-31 3t-21 1q-12 4 -14 11t-2 17z" />
<glyph unicode="g" horiz-adv-x="876" d="M59 601q1 85 11 179t31 186t60 166t98 119t145 45q76 0 154 -45t118 -147q10 -22 22 -53t16 -59q0 6 -2 30t-5 53t-5 53t-2 30q-2 16 -2 35t-8 29q-2 40 -7 54t21 18q4 0 21 -4t21 -6h2h6q10 2 17 5t17 3h14q30 0 30 -32v-24t-22 -16q-4 -2 -30 -2h-30l10 -34 q4 -120 9 -241t9 -243q0 -6 1 -21t1 -17q0 -26 -1 -79t-1 -121t-1 -142t-1 -141v-121v-78q-10 -70 -13 -134t-11 -124t-28 -117t-62 -117q-34 -50 -79 -74t-93 -54q-6 0 -27 -1h-13q-11 0 -16 1q-28 0 -68 10t-66 24q-10 6 -27 14t-34 17t-33 19t-24 20q-16 20 -29 42 t-21 50l-8 36t-4 38q-2 22 19 26t33 -10q6 -22 7 -37t13 -31v-4q0 -22 15 -45t21 -31q14 -18 39 -33t54 -24t59 -14t52 -5h8l60 14q34 16 58 40q68 64 100 138t46 155t15 166t5 171q0 4 -1 18t-1 30t-1 30t-1 18t-1 9t-1 7q-36 -50 -65 -88t-61 -66t-72 -47t-100 -27 q-2 0 -12 -1t-21 -2l-22 -2t-13 -1q-26 18 -59 19t-61 19q-40 28 -71 83t-53 119t-35 126t-13 106q-1 40 -1 91v54zM112 496q2 -56 17 -108t31 -104q28 -102 80 -167t164 -65q38 0 55 2t27 8t23 16t43 24q4 6 21 26t36 42t35 42t20 26q2 4 17 19t29 69q10 12 11 71v40 q0 41 -1 85l-10 302q-12 32 -25 79t-32 98t-47 100t-66 87q-28 18 -61 31t-67 13q-88 0 -142 -57t-84 -139t-43 -173t-19 -157q-4 -46 -9 -102q-4 -40 -4 -78q0 -15 1 -30z" />
<glyph unicode="h" horiz-adv-x="740" d="M50 12v4q0 4 3 16t5 16l8 924v64q0 136 -2 256t-6 258l8 8v310q0 2 12 5t18 7l4 2l4 -2q4 -2 21 3t21 1l38 2q6 0 7 -13t1 -17q0 -10 -5 -22t-19 -12h-8q-10 2 -7 4t-7 2q-6 -4 -15 -24t-11 -28q1 -29 1 -58q0 -73 -4 -145q-5 -101 -5 -205q0 -46 5 -74t5 -76 q0 -56 2 -102t2 -102q14 0 24 14t18 32t13 34t9 22q22 34 57 66t77 56t87 39t89 15q50 0 80 -30t46 -77t23 -106t10 -117t5 -110t12 -86q1 -12 1 -38t-1 -65q-2 -79 -4 -171t-4 -171q-1 -40 -1 -65.5t1 -37.5v-62q0 -12 3 -43t5 -37q0 -2 3 -8t5 -8q2 -4 4 -13t4 -11v-4 q0 -20 -17 -26t-35 -6q-16 0 -30 2t-30 2h-8q-2 -2 6 -5t6 -3q-10 0 -29 9t-19 23q0 16 7 23t17 9t22 3t22 5v84v228t-2 251t-7 250t-15 227q-4 20 -9 41t-16 39t-27 29t-40 11q-40 0 -82 -18t-79 -46t-67 -62t-46 -66q-4 -6 -14 -30t-22 -51t-23 -50t-13 -29q-2 -4 -11 -16 t-13 -16v-70q0 -62 1 -137t1 -151t1 -150t1 -136v-168q-2 -12 -9 -30t-23 -18q-10 0 -25 8t-15 20z" />
<glyph unicode="i" horiz-adv-x="304" d="M46 1244l4 40q16 -6 26 -1t26 5h44q10 0 17 -3t11 -13q6 -46 7 -76t1 -76q0 -70 -1 -148t-3 -152t-3 -136v-24q0 -46 3 -78l-2 -478q0 -24 5 -37t15 -3h22q40 0 40 -28q0 -8 -3 -18t-15 -10l-96 -8q-16 0 -23 15t-9 25v41t-1 62t-1 63v42q3 57 3 142q0 42 -1 91v49 q0 125 8 262l6 352q0 22 -1 41t-11 35q2 0 -4 6q-2 2 -4 6h-52zM72 1468q0 32 14 56t48 28q10 5 20 5q7 0 14 -2q18 -5 33 -17t25 -31t10 -39q0 -42 -24 -70t-60 -28q-34 0 -57 31t-23 67zM132 1468q0 -28 3 -28t25 -8q14 6 20 19q3 6 3 12.5t-3 12.5q-4 8 -3 11t0 3t-5 -1 t-16 3q-24 0 -24 -24z" />
<glyph unicode="j" horiz-adv-x="356" d="M-162 -388q6 22 23 34t39 17t44 5h38q12 -4 26 -14t14 -26q0 -14 -11 -22t-26 -12t-29 -4h-22l-8 -8v-88q0 -14 15 -29t35 -27t40 -19t32 -7q42 0 69 27t44 66t23 82t6 75q0 58 -5 117t-5 117v36v47v86t-1 106t-2 106t-1 86v47q2 36 4 74t2 74q0 4 -1 9t-1 7q0 4 -4 20 t-4 20q0 2 1 16t3 31t3 30t1 17q0 2 1 18t1 35t1 39t1 30v22t-1 34t-1 34v22q-10 16 -8 26t0 30q0 10 1 32t1 48v49v33q4 16 -6 23t-26 7q-10 2 -34 5t-34 1q-10 4 -9 17t1 17q0 20 8 26t20 6t25 -4t23 -4q4 0 28 4t28 4h10q6 0 13 -2t9 -14l8 -72q0 -6 1 -40t1 -77v-87v-70 v-204t1 -219t1 -219v-206q0 -96 5 -190t5 -190q0 -42 -11 -98t-35 -105t-61 -84t-89 -35q-24 0 -55 10t-59 26t-51 38t-31 46q-12 34 -13 71t-11 71zM104 1476q0 48 25 81t73 33q20 0 32 -2t21 -7t18 -14t23 -25v-36q0 -54 -23 -89t-83 -35q-46 0 -66 23t-20 71zM160 1478 q0 -16 10 -28t30 -12q16 0 29 17t13 31q0 12 -5 22t-21 10h-8q-4 -4 -23 -12t-25 -12v-16z" />
<glyph unicode="k" horiz-adv-x="782" d="M64 734l6 666v33v74v75v38q-7 29 -7 61q0 24 4 51q9 62 9 114v19t16 13q6 0 27 1t29 1h35t17 -32q0 -10 -4 -23t-20 -13l-34 -6q0 -120 -5 -245t-5 -247q0 -102 3 -209t3 -209q0 -16 -10 -31t6 -15q26 0 48 14t42 28q50 38 104 79t94 89l198 246q16 0 24 -16t8 -26v-12 q-62 -68 -127 -152t-127 -152q-18 -20 -18 -33v-33l150 -354q16 -30 26 -65t26 -65l154 -376q0 -4 -11 -15l-15 -15q-2 0 -5 -1t-7 -1q-22 0 -36 26q-34 116 -81 230t-97 224q-4 8 -12 29t-18 46t-19 47t-13 30q0 2 -4 9t-9 15t-9 15t-4 9q-2 4 -9 20t-14 35t-14 35t-9 20 q-2 6 -6 20t-10 27t-13 24t-13 11q-2 0 -32 -16t-64 -37t-63 -41t-29 -30q0 -98 6 -197t10 -199q0 -24 -2 -62t-2 -78t3 -79t15 -65q4 -10 10 -10h12q12 0 12 1t-3 1t-4 1t11 1q4 0 10 -5t8 -16t-3 -26t-23 -33l-1 -1l2 4q3 5 -15 3h-40h-40q-16 4 -16 25v33v14q0 6 1 26 t3 42t3 42t1 26q0 2 -1 16t-2 30t-2 30t-1 16v56v56q0 4 1 21t3 35t3 35t1 21q0 2 -1 14t-3 26t-3 25t-1 15v14q0 10 4 15t4 15v4q0 2 -3 4t-5 4z" />
<glyph unicode="l" horiz-adv-x="276" d="M30 1856q0 10 6 20t16 14q4 0 10 1t10 1h24h16h17h27q12 -6 14 -22t2 -28q0 -60 -2 -132t-3 -146t-3 -146t-2 -132v-508q0 -12 -1 -50t-2 -82t-2 -82t-1 -50q-8 -31 -8 -71q0 -12 1 -25q3 -56 3 -96v-27t1 -34t1 -29v-14q-2 -6 -2 -31t2 -51t6 -45t8 -13l14 -4q20 0 20 1 t18 1q20 0 22 -10t2 -30q0 -12 -1 -21t-13 -13h-34q-18 0 -32 -3t-26 -4h-5l-19 3q-12 4 -24 20q-2 84 -8 166q-4 49 -4 96q0 31 2 62q0 114 5 207t5 205q0 32 1 73l2 82t2 81t1 72v142q0 10 -1 42t-1 48v95t1 109t1 110v96q0 6 1 23t1 36t1 36t1 23l-48 6q-10 2 -16 10 t-6 18z" />
<glyph unicode="m" horiz-adv-x="1360" d="M46 1272q0 8 1 15t5 7l48 2q8 8 13 9t15 1q12 0 18 -7t10 -19q4 -70 4 -155t2 -157q14 62 42 124t67 111t91 79q49 28 110 28h8q62 0 97 -32t54 -80t26 -102t11 -100q0 -8 1 -46t3 -82t4 -82t2 -46q0 -4 3 6t6 24t7 26l4 12l46 180q38 68 53 102t27 58t32 48t70 74 q16 10 26 15t19 8t21 3h32q8 2 17 2q22 0 51 -11q40 -15 76 -59l58 -74l28 -110l4 -112v-63t-2 -81l-2 -226v-18v-34v-33v-17q1 -32 1 -70v-40q-1 -62 -3 -118t-3 -94t-1 -40l8 -24q2 0 12 -1t14 -1h12l-3 -1t-3 -2t12 -1q14 0 16 -13t2 -33q0 -4 -3 -9t-5 -7q-26 -2 -33 -3 t-11 -1t-11 1t-31 1h-28q-4 0 -5 31q0 16 -0.5 35.5t0.5 42.5q1 47 2 103t2 108t2 93t-1 59l10 340q0 44 -2 93t-6 94t-11 80t-19 53l-74 86l-74 14q-60 0 -101 -47t-69 -101q-10 -18 -22 -46t-22 -55t-19 -52t-11 -37q-4 -2 -23 -78t-61 -202q-2 -6 -3 -33t-3 -65t-4 -81 t-3 -80t-2 -62t-1 -27l-12 -250v-22t-2 -6t-8 2t-20 2h-10q-4 0 -8 2l-8 14q0 2 -1 28t-1 62t1 73t3 61q0 10 1 40t2 70t3 85t4 85t4 70t2 40q0 18 -2 69t-5 108t-6 108t-3 69q-6 36 -10 82t-16 86t-38 69t-78 29q-30 0 -60 -8t-60 -31t-60 -66t-62 -111l-62 -206l-10 -16 q-2 -12 -2 -22q-2 -10 -2 -19v-15q-6 -124 -6 -246q0 -46 1 -92t1 -92q0 -123 -6 -246q0 -8 -1 -32t-1 -32q-4 -10 -14 -9t-14 1t-15 -1t-13 9q-10 58 -10 124t4 118q4 80 9 164t9 162q1 24 1 48q0 36 -2 70.5t-2 69.5q0 23 1 46v30t-2 51t-2 51v30q10 10 9 24t1 24 q2 56 7 106q2 19 2 39q0 32 -5 67q-12 6 -21 3t-17 -6t-12 -2t-4 17q0 2 -1 9t-1 15z" />
<glyph unicode="n" horiz-adv-x="890" d="M52 1267q2 19 0 29l88 4q2 0 16 1h2q12 0 14 -9q2 -12 1 -49t-2 -80t-2 -80t1 -47q-6 -12 -8 -22t-1 -17t7 -9q28 28 56 71t52 75q20 24 54 52t73 51t79 39t74 16q10 0 28 -1t37 -4t36 -10t25 -17q30 -36 48 -84t28 -100t15 -103t5 -93q1 -24 1 -48q0 -48 -3 -94.5 t-3 -93.5q0 -24 1 -48q2 -116 3 -242q0 -25 1 -50q0 -99 -4 -192q2 -4 5 -16t3 -16l8 -8l36 -8q12 0 18 -15t6 -23q1 -5 1 -8q0 -9 -4 -11q-5 -3 -23 -3h-10q-4 0 -19 -2t-19 -2q-16 6 -26 5t-17 2t-10 15t-3 42q-1 22 -1 44t1 43t1 43t-1 44q-1 52 -1 95v40v40q0 43 -1 95 q0 8 -1 27t-1 41v41v27q2 6 2 25v41t-1 41t-1 25v29t-1 50t-2 50t-1 29q-2 20 -7 67t-17 96t-31 87t-47 38h-120q-2 0 -14 -6t-18 -10q-46 -30 -82 -56t-66 -72q-12 -18 -33 -48t-42 -58t-36 -50l-15 -22l-14 -8l-1 -56t-1 -135t1 -163t3 -140v-34t1 -61t2 -61t1 -34 q0 -12 -1 -43t-2 -66t-1 -65v-42h-20h-19t-17 8q0 4 -1 18t-1 18q-2 78 -2 150t4 142q-6 20 -4 43t0 39q0 46 -1 82t-1 84v18v34t-1 36t-1 24q-2 2 -6 15t-4 17v2v6q0 4 2 23t5 42t6 42t3 25v8v8q0 6 -1 29t-1 48v48v29l-2 212q-4 0 -8 2l-8 4h-34q-8 0 -8 13v6z" />
<glyph unicode="o" horiz-adv-x="760" d="M53 578v25q0 49 3 83v35q0 112 11 206q13 109 73 213q2 2 16 19t30 37t31 37t17 21q30 16 53 27t46 16t52 6q10 0 21 1q22 0 50 -2q42 -10 74 -36t57 -62t44 -78t37 -82q0 -10 4 -28t9 -38t9 -39t6 -27q2 -16 4 -42t3 -54t1 -54v-42q1 -47 1 -96.5t-1 -101.5 q-2 -104 -24 -190q-12 -46 -24 -90t-46 -108q-22 -36 -45 -63t-54 -43t-75 -21q-20 -2 -44 -2q-29 0 -64 3q-62 4 -108 43t-78 101t-51 137t-28 149t-10 140zM116 732q2 -22 3 -73t1 -108t1 -109t3 -74q6 -36 20 -86t37 -96t57 -80t82 -36q10 -2 28 -2t38 1t38 4t28 7 q58 36 90 76t49 84t26 94t23 104q6 22 8 55t2 69t-1 69t-1 55q0 6 -2 24t-3 37t-3 37t-2 24q-10 24 -10 40v36q-2 4 -2 8v14q-2 8 -2 20q0 2 -1 12t-3 23t-3 23t-1 12q-12 36 -23 75t-30 74t-48 61t-75 36q-16 2 -32 2q-73 0 -124 -39q-62 -47 -100 -123t-54 -165 q-14 -79 -14 -145v-16v-24z" />
<glyph unicode="p" horiz-adv-x="754" d="M-18 -616q0 14 3 23t19 11q20 0 26 7t34 7v140q-3 63 -3 126q0 32 1 64q2 96 5 191t4 190v27q0 81 -5 160q10 20 7 41t-3 39l2 390l-2 20q-2 24 2 52t2 52q-2 34 -4 57t-2 57q-2 8 -2 23v17t-2 12t-3 20t-3 20t-2 12q0 4 2 20t4 20v14q0 4 -1 10t-1 8t-2 11t-3 20t-1 20 v13l4 4q6 6 8 10q0 2 8 5t10 3q4 -4 18 -2t14 -6l6 -284q0 -2 2 -4q4 -4 6 -4h4q8 14 32 61t63 98t94 92t125 45q22 0 56 -3t68 -19q44 -34 70 -89t40 -117t18 -125t6 -113q2 -12 2 -36v-26v-56t-1 -100t-1 -100v-54q-2 -72 -10 -139t-34 -122t-72 -99t-122 -70h-21t-35 -4 h-22h-8q-27 0 -57 11q-35 13 -68 32t-62 42t-47 41l-4 12q-2 6 -2 12h-4l-8 -8q0 -6 1 -20t1 -29t1 -28t1 -19q0 -70 -2 -161t-5 -187t-6 -187t-5 -163l-8 -8q-4 0 -19 -1t-21 -3h-4l-72 4q-8 2 -9 9t-1 11zM128 414q2 -34 5 -77t7 -77q2 -26 33 -58t73 -60t85 -46t71 -18 q90 4 139 47t73 107t30 139t10 141q0 30 1 75t1 92v92t-2 77q-2 40 -6 98t-17 115t-36 104t-63 67q-8 -2 -33 3q-18 4 -26 4q-3 0 -5 -1q-64 -2 -116 -42t-93 -93t-70 -109t-47 -90q-2 -2 -5 -7t-1 -9q-6 -18 -7 -27t-1 -17t1 -19t1 -31q0 -10 -1 -62t-1 -113v-113v-62v-30z " />
<glyph unicode="q" horiz-adv-x="836" d="M58 556v124q2 80 9 158t27 150t58 136t104 118q26 22 49 36t47 22t51 10t63 2q50 0 99 -17t89 -49q10 -10 22 -23t28 -17v4v4q2 32 2 40t-2 22q-2 20 10 27t30 7q4 0 12 -2t12 -4q8 -18 6 -39t2 -41v-24t1 -34t1 -34v-24q1 -69 1 -138.5t-1 -139.5q-2 -140 -4 -278 q0 -78 -1 -183t-1 -216t1 -216t3 -183v-36t1 -43t1 -37v-18q0 -12 1 -41t2 -61t2 -61t3 -41q2 0 14 -2t16 -2q12 0 13 1t-1 1t-1 1t13 1q12 -2 12 -17q0 -3 -1 -7q-3 -22 -3 -36q-14 -2 -20 -2t-9 -1t-7 -1t-14 -2q-8 -1 -12 -1h-2q-2 1 -3 2t-5 1h-18h-6h-2q-4 0 -8 4 q-4 2 -6 4l-10 96l-6 768q-22 -32 -38 -52t-35 -38t-45 -39t-68 -53q-6 2 -15 -1t-20 -9l-22 -12t-17 -8q-10 -4 -27 -8t-21 -4h-60h-58q-26 14 -54 20t-50 28q-46 38 -72 103t-39 137t-16 143t-5 125zM121 705q1 -73 1 -127q2 -60 6 -148t26 -170t68 -141t130 -59 q52 0 103 19t94 52t77 76t52 89q4 -4 8 14t7 42l6 48t7 32v21v47v46v20q0 64 2 111t3 90t2 90v33q0 35 -1 78q0 10 -1 40t-1 40q-10 28 -18 50t-36 52q-10 12 -27 29t-38 32t-42 26t-39 11l-120 2q-24 0 -50 -15t-51 -37t-45 -45t-32 -39q-40 -46 -59 -115t-26 -145 q-6 -66 -6 -131v-18z" />
<glyph unicode="r" horiz-adv-x="774" d="M46 16q0 6 2 14t5 17t3 17q0 2 -1 9t-1 16v17v10v30q0 28 2 39t0 39q-2 42 -2 103t1 127t2 128t1 104v14v40v64v64v105v92t-1 93t-3 106q4 16 18 24t26 8q6 0 17 -3t11 -13l6 -156q2 0 14 10t14 12q16 10 31 25l29 29q40 30 86 52t78 32l106 12q72 0 122 -38l62 -68 q30 -50 43 -112t13 -120q0 -30 -18 -35t-50 -9l-54 2q-6 -2 -11 5t-6 16t3 18t14 13h62q2 30 -1 51t-13 49l-24 56q-10 18 -31 47t-37 41l-106 16q-38 0 -87 -22t-83 -36l-88 -80q-2 -2 -10 -13t-18 -23t-18 -23t-10 -13l-16 -16q-8 -43 -8 -90v-19q2 -57 2 -105t-2 -111 t-3 -129t-2 -128v-40q0 -38 1 -70q2 -62 3 -121t1 -121q0 -8 -1 -29t-1 -27q0 -4 -10 -5q-5 0 -10.5 -0.5t-10.5 0.5q-11 1 -21 2t-12 1q-8 0 -8 6z" />
<glyph unicode="s" horiz-adv-x="698" d="M52 346q0 24 1 53t4 61t7 60l16 16h120q10 0 13 -19t3 -25q0 -8 -2 -16q-4 -16 -8 -16l-76 6q-2 0 -5 -4t-3 -8q-8 -22 -8 -55q0 -10 1 -21q3 -48 3 -78q0 -6 1 -29t1 -29q38 -90 92 -135t150 -45q32 0 68 15t64 39t47 55t19 63q10 18 13 45t0 55t-11 56t-18 48 q-24 44 -53 74t-63 51t-72 36t-82 31q-54 20 -94 56t-67 82t-41 100t-14 108q0 68 30 127t79 103t112 69t127 25q50 0 90 -22t69 -58t44 -81t15 -91q0 -10 2 -23t2 -27t-4 -23t-16 -9l-82 -6q-16 6 -27 3t-19 -3t-12 5t-4 27q0 24 15 32t33 10t33 5t15 21q0 34 -14 64 t-38 53t-55 37t-65 14q-54 0 -104 -23t-88 -61t-60 -88t-22 -104q0 -26 9 -57t24 -60t36 -54t43 -39q40 -28 82 -42t84 -30q56 -22 103 -60t80 -88t51 -107t18 -115q0 -60 -19 -114t-55 -96t-88 -67t-116 -25t-120 24t-98 65t-67 98t-25 123q-4 14 -4 38z" />
<glyph unicode="t" horiz-adv-x="692" d="M-32 1356q0 18 8 26q4 0 12 1t12 1l90 -4q6 0 21 2t31 6q-2 49 -2 96q0 70 4 136q6 110 6 232q-4 18 7 27t24 10h4q11 0 21 -5q12 -6 12 -20q0 -120 -4 -226t-4 -226v-22l8 -8l178 2q16 0 24 -18t4 -30q-4 -14 -29 -18t-43 -4h-104l-30 -2q0 -4 -2 -42t-5 -85t-5 -89 t-2 -52v-164q0 -16 -1 -76t-2 -130t-2 -131t-1 -77q3 -33 3 -76q0 -21 -1 -45v-28q0 -54 6 -99l22 -86l64 -60q41 -8 74 -9q30 0 53 8q47 15 73 45t39 69t25 71q10 26 16 67t9 84t4 84v26q0 24 -1 43q0 16 -3 20t-11 3t-23 -4t-41 -1l-18 18q0 24 7 36t19 15t26 2t28 -1 l62 -2l16 -24q0 -2 1 -14t1 -18q0 -156 -20 -288t-104 -242q-28 -36 -62 -42t-66 -14q-25 -7 -50 -7q-21 0 -41 5q-45 10 -81 35t-59 62t-23 81l-10 140l-2 358l6 338l6 280q0 10 -15 15t-25 7l-126 10q-6 0 -7 11t-1 17z" />
<glyph unicode="u" horiz-adv-x="776" d="M44 584v176v470q0 10 2 28t2 28q0 14 15 15t31 1q4 0 10 -4t6 -14v-704q0 -2 -1 -24t-1 -49t1 -54t3 -39q2 -68 12 -131t31 -111t58 -77q35 -27 88 -27h7q62 0 106 28t74 75t48 108t28 127q12 58 19 127t7 131q0 78 5 160q3 46 3 90q0 36 -2 72q-2 28 -3 68t-1 83v83v68 q0 16 23 19h7q19 0 38 -13q-6 -144 -6 -229t2 -134t4 -75t2 -52q0 -42 -4 -84t-4 -86v-74q0 -24 -2 -91t-5 -144t-5 -144t-2 -91q6 -12 24 -16l-24 -4l10 2t25 4t21 2q26 0 36 -16q0 -6 -2 -25t-6 -23q0 -8 -8 -8h-126v258q-16 -42 -31 -78t-34 -68t-45 -57t-66 -43 q-28 -10 -49 -13t-67 -3q-56 0 -89 13t-61 33q-34 28 -55 96t-31 148t-14 160t-4 132z" />
<glyph unicode="v" horiz-adv-x="752" d="M36 1258v10q0 26 36 40q2 0 6 -2q8 -4 10 -6q6 0 6 -8l242 -1032l28 -136l84 502l8 16l72 434q4 8 8 38t8 38q8 54 17 85t24 46t37 17t58 -2q6 -2 14 -2q6 -2 11 -2h7q6 -15 6 -26q0 -8 -3 -13q-7 -13 -9 -13l-74 -2l-7 -34t-17 -86t-22 -115t-23 -119t-19 -99t-12 -57 q0 -4 -5 -22t-9 -38t-9 -38t-5 -22q0 -2 -1 -8t-1 -8l-68 -446q0 -4 -8 -31t-12 -41q-2 -8 -9 -30t-9 -28q-2 -2 -6 -10q-2 -4 -4 -6h-48q-2 16 -8 30t-12 26q-4 12 -11 44t-16 67t-17 66t-10 43q-4 18 -4 26t-1 14t-4 14t-11 26l-74 364q-12 32 -24 76t-24 94t-25 103 t-29 101q0 2 -5 22t-9 43t-9 42t-5 23q-2 10 -2 18q-2 8 -2 14z" />
<glyph unicode="w" horiz-adv-x="1244" d="M52 1276q0 16 7 20t29 4q8 0 17 -2t15 -26l112 -580q2 -10 5 -27t6 -35t6 -32t5 -18l14 -112l42 -304q28 122 61 243t49 237q10 10 11 30t5 34q22 78 37 157t27 161l36 256q2 0 18 6t20 6q10 0 20 -10t10 -12l176 -688l80 -274q2 -4 8 -19t8 -21t7 -23t9 -37 q6 -22 12 -50l12 64l56 380l36 220q2 54 12 111t22 115t23 115t15 111q18 22 38 22h10h72q11 -4 11 -36q0 -24 -11 -28l-54 -6l-8 -43t-20 -107t-25 -140t-25 -142t-20 -113t-8 -53l-8 -40l-64 -414l-24 -152q0 -10 -8 -16t-19 -7t-22 2t-17 13l-162 540q-4 14 -8 43t-16 43 q-2 8 -6 31t-10 48t-10 47t-6 32q0 4 -4 17t-8 28t-8 27t-4 16q-4 16 -12 53t-17 75t-17 67t-14 29h-4q-2 -2 -5 -8t-3 -8q-2 -18 -7 -61t-11 -90t-13 -90t-9 -61q0 -2 -4 -23t-8 -49t-10 -56t-10 -42q0 -4 -3 -13t-5 -11l-114 -480q-6 -16 -8 -37t-6 -39t-14 -31t-32 -13 q-26 0 -37 16t-17 43t-9 59t-13 66l-106 648z" />
<glyph unicode="x" horiz-adv-x="764" d="M43 1280q0 12 9 12q16 0 19 1l3 1l3 1t19 1q12 0 36 -2t36 -2q10 0 9 -9t-1 -19q0 -22 -3 -21t-17 -1q-10 -2 -18 -6t-18 -4q0 -2 5 -13t11 -24t11 -23t5 -12q36 -70 61 -119t42 -86t29 -64t24 -51q6 -12 17 -33t21 -44t21 -44t17 -33l34 62q26 58 52 112t52 112l148 324 q2 0 12 -2t20 -6q12 -4 26 -8l-14 -46l-18 -22l-252 -568q-10 -16 -13 -18t-3 -18q2 -20 19 -59t42 -88t56 -103t60 -104t53 -92t38 -66q16 -4 18 -27t2 -33t-9 -21t-27 -7q-4 0 -16 6t-12 10l-218 398q0 2 -4 11t-8 19t-7 20t-5 14l-28 48h-4q-48 -74 -77 -149t-73 -161 l-116 -236q-6 0 -17 -1q-6 -1 -11 -1l-11 1q-11 1 -19 4t-8 11q6 18 22 53t34 73t35 72t27 50q2 2 4 6l4 8q14 34 27 61t26 51t26 49t25 59l56 124l-2 4v4q-14 26 -25 55t-24 61t-29 70t-40 86q-4 4 -15 31t-25 57t-26 57t-14 31l-21 35t-30 55t-26 57t-11 41z" />
<glyph unicode="y" horiz-adv-x="722" d="M24 -166q0 20 10 26t25 6t30 -2t27 2q4 2 17 -1t21 1q6 -8 10 -14q8 -14 10 -12l-4 -24q0 -10 -5 -11t-12 -1t-12 1t-5 -3h-54q-5 -27 -5 -52q0 -16 2 -31q5 -39 13 -79q26 -98 88 -165t174 -67q36 0 72 14t67 37t53 54t30 65q0 12 2 44t5 69t5 70t2 45v56q0 74 -3 155 t-7 205q-2 0 -7 -11t-5 -13q-16 -34 -30 -62t-32 -52t-45 -41t-69 -27q-4 -2 -10 -2h-14h-17q-80 0 -134 35q-59 39 -93 96t-48 123t-16 118q0 4 -1 24t-3 44t-3 45t-1 25q-10 76 -11 163t-1 145q-2 58 -2 119q0 45 1 92q3 109 13 229q8 26 32 26l4 -2h4q2 -2 14 0t16 0 q0 -2 2 -2h8h22q6 0 8 -1t8 -11q-2 -4 -2 -8v-10q0 -6 -2 -15t-8 -9l-28 -2q-2 2 -7 -1t-7 -3h-4q-2 0 -4 -2q-6 -37 -6 -83v-24q2 -61 2 -107v-25t1 -30t1 -26v-13q0 -18 1 -64t1 -98v-98t2 -62q2 -10 4 -37t3 -57t3 -56t4 -36q-1 -7 -1 -16q0 -23 4 -55q5 -45 29 -99 q10 -30 26 -61t42 -55t63 -38q29 -11 68 -11q11 0 23 1h8q31 0 59 28q31 32 55 77t40 95t22 86q4 34 7 67t7 67q10 138 14 275t10 275v22v37v37v22v22v34v34v20q2 12 13 19t23 8h6l18 -2q12 -3 16 -11l-6 -158l-8 -254l-10 -420q-8 -145 -8 -297v-61q2 -184 2 -354 q0 -56 -4 -104t-18 -91t-41 -81t-73 -74q-14 -12 -36 -20t-46 -14t-48 -9t-42 -5q-56 4 -96 16t-71 34t-54 54t-47 76q-8 14 -16 41t-15 58t-11 59t-4 46q0 14 4 26t4 28q0 14 -4 23t-4 21zM147 1295q-2 0 -2 -1h9q0 1 -3 1h-4z" />
<glyph unicode="z" horiz-adv-x="708" d="M62 48v8q62 102 118 218t124 260q2 6 16 34t29 60t29 60t16 36q4 8 17 40t29 69t29 69t17 40q8 20 26 53t37 70t33 73t14 60q0 6 -1 17t-17 7q-28 -2 -55 -2q-40 0 -76 4q-61 6 -125 6q-48 0 -91 -2t-91 -2l-68 -4q2 12 -1 22t-4 19t0 14t11 5t23 8t21 -2h128 q10 10 24 10l4 -2h4l14 -8l8 4l8 4q2 0 5 1t7 1q36 0 84 -1t82 -1q30 0 55 1t55 1q34 0 48 -9t16 -45v-5q0 -30 -20 -83q-22 -58 -51 -122t-56 -122t-37 -86q-50 -136 -110 -260t-124 -256q-4 -6 -17 -32t-28 -55t-28 -55t-15 -32q-10 -20 -19 -32t-7 -32q50 0 110 1t110 1 q46 0 85 2t85 2q18 0 41 2t21 26v18q-4 4 -5 13t-1 13q-4 20 0 31t26 11q20 0 29 -5t11 -13t1 -19t-1 -25q2 -10 0 -23t0 -21q0 -2 1 -15t3 -15v-4q0 -10 -10 -23t-20 -13h-262l-192 -8l-13 -2t-27 -3t-27 -2l-13 -1h-4q-18 0 -27 16t-11 32z" />
<glyph unicode="{" horiz-adv-x="660" d="M40 908q0 12 16 24t34 26t34 27t16 27l6 126l34 296q12 50 30 111t42 119t56 108t72 80l10 10l17 17l17 17t10 8l84 56q2 0 8 1t16 1h22q16 0 29 -2t27 -6q8 -16 9 -29t-23 -29q-12 4 -19 6t-21 0q-70 -8 -126 -64t-97 -130t-66 -151t-33 -125q-10 -70 -19 -153t-13 -173 l-2 -130l-98 -76l94 -74l-2 -90q2 -70 10 -160t27 -181t54 -175t91 -144q28 -30 53 -40t71 -12q12 0 25 -10t18 -24t-2 -27t-35 -19q-108 4 -178 71t-112 169t-61 223t-23 233v122l4 22q0 2 -17 16t-37 34t-36 40t-16 34z" />
<glyph unicode="|" horiz-adv-x="276" d="M30 1856q0 10 6 20t16 14q4 0 10 1t10 1h24h16h17h27q12 -6 14 -22t2 -28q0 -60 -2 -132t-3 -146t-3 -146t-2 -132v-508q0 -12 -1 -50t-2 -82t-2 -82t-1 -50q-10 -40 -7 -96t3 -96v-27t1 -34t1 -29v-14q-2 -6 -2 -31t2 -51t6 -45t8 -13l14 -4q20 0 20 1t18 1q20 0 22 -10 t2 -30q0 -12 -1 -21t-13 -13h-34q-18 0 -32 -3t-26 -4t-24 3t-24 20q-2 84 -8 166t-2 158q0 114 5 207t5 205q0 32 1 73l2 82t2 81t1 72v142q0 10 -1 42t-1 48v95t1 109t1 110v96q0 6 1 23t1 36t1 36t1 23l-48 6q-10 2 -16 10t-6 18z" />
<glyph unicode="}" horiz-adv-x="602" d="M-35 1925q1 13 9 29q14 4 27 6t29 2h22q8 0 15 -1t9 -1l84 -56q2 0 10 -8l17 -17l17 -17l10 -10q40 -30 72 -80t56 -108t42 -119t30 -111l34 -296l6 -126q0 -14 16 -27t34 -27t34 -26t16 -24q0 -14 -16 -34t-36 -40t-37 -34t-17 -16l4 -22v-122q-4 -112 -23 -233 t-61 -223t-112 -169t-178 -71q-28 6 -35 19t-2 27t18 24t25 10q46 2 71 12t53 40q56 60 91 144t54 175t27 181t10 160l-2 90l94 74l-98 76l-2 130q-4 90 -13 173t-19 153q-8 48 -33 125t-66 151t-98 130t-125 64q-14 2 -21 0t-19 -6q-24 16 -23 29z" />
<glyph unicode="~" horiz-adv-x="930" d="M62 684q0 22 25 27t39 5q8 36 22 80t37 83t54 66t77 27q32 0 69 -18t51 -48l72 -150q10 -20 31 -31t41 -11q30 0 56 21t45 52t31 65t12 60v18q-2 4 6 22t8 20q-4 22 14 27t28 3q6 0 25 -2t38 -7t34 -15t15 -28q0 -14 -11 -21t-26 -10t-30 -4t-21 -1q-26 -40 -42 -87 t-38 -88t-57 -69t-95 -28q-36 0 -67 13t-53 45q-4 6 -11 24t-16 39t-17 39t-12 26q-12 28 -30 46t-52 18q-24 0 -44 -17t-35 -41t-23 -51t-8 -47q0 -12 -1 -15l-2 -6t-2 -8t-1 -17q0 -30 -14 -34t-30 -4q-8 0 -23 -1t-30 2t-27 9t-12 22z" />
<glyph unicode="&#xa0;" />
<glyph unicode="&#xa1;" horiz-adv-x="328" d="M4 1768q0 16 8 36t20 38t29 30t35 12q22 0 46 -6t44 -20t33 -38t13 -62q0 -44 -29 -67t-75 -23q-28 -6 -51 4t-39 27t-25 37t-9 32zM12 1482q0 22 18 29t36 7q12 0 29 1t33 -2t27 -11t11 -26q0 -16 -3 -29t-7 -29q0 -12 -1 -45t-3 -70t-3 -70t-1 -47v-38q0 -126 4 -249 t4 -249q0 -118 -7 -245t-7 -243q0 -14 -1 -22l-2 -16t1 -18t8 -26q4 -2 12 -5t12 -3q12 -4 35 -1t35 3q2 -4 4 -22t2 -22v-4q0 -16 -16 -28q-4 0 -16 -1t-16 -1h-16t-7 1t-6 1h-15q-2 0 -15 5t-17 5h-6q-4 0 -6 -1t-6 -1q-26 0 -31 27t-7 47v94q0 128 8 261t8 263 q0 120 -4 240t-4 240q0 58 -1 127t9 129l-8 12l-46 -8q-8 0 -13 18t-5 22zM68 1780q2 -4 5 -13t3 -11l8 -8q44 -2 53 -4t11 -4h4h4q2 2 5 4t3 4v4q0 28 -15 49t-45 21q-12 0 -24 -12t-12 -26v-4z" />
<glyph unicode="&#xa2;" horiz-adv-x="806" d="M84 928q10 38 30 109t45 146t55 139t60 88q38 30 96 42v6v106q0 6 -1 4t-2 -5t-2 -4t-1 5l-48 6q-10 2 -16 10t-6 18t6 20t16 14q4 0 10 1t10 1h24h16h17h27q12 -6 14 -22t2 -28v-65t1 -1t1 2v-56q16 2 32 2h32q22 0 41 -8t37 -17t36 -16t40 -7v6q-2 0 -5 7t-3 9v4 q-2 12 11 28t25 16q14 0 18 -10q0 -34 3 -62t6 -55t6 -53t5 -58q2 -14 -9 -36t-27 -22q-4 0 -13 6t-13 10q-4 98 -57 146t-143 48q-16 0 -22 -2v-458q0 -12 -1 -50t-2 -82t-2 -82t-1 -50q-10 -40 -7 -96t3 -96v-27t1 -34t1 -29v-14q-2 -4 -3 -27t-1 -57q46 12 88 43t77 70 t61 82t42 81q2 4 11 9t11 7h4q22 0 26 -20t6 -36q2 -30 -14 -51t-28 -43q-46 -76 -116 -138t-166 -78q2 -64 8 -86t10 -14l14 -4q20 0 20 1t18 1q20 0 22 -10t2 -30q0 -12 -1 -21t-13 -13h-34q-52 2 -74 17t-28 36t-5 43t-1 38q0 10 -1 19t-1 19q-74 2 -125 49t-82 111 t-47 134t-18 120q-4 78 -6 144t-2 150zM142 816q0 -48 1 -94t5 -80q0 -8 5 -31t10 -50t10 -51t9 -36q8 -30 22 -62t35 -58t52 -43t71 -19q-4 54 -7 108t1 106q0 114 5 207t5 205q0 32 1 73l2 82t2 81t1 72v142v18q-54 -22 -89 -65t-58 -99t-39 -116t-32 -114q-6 -36 -9 -82 t-3 -94z" />
<glyph unicode="&#xa3;" horiz-adv-x="714" d="M38 986v4q0 22 26 29t38 9q6 2 33 6t37 4l8 16v176q0 48 1 116t7 141t21 144t45 129t78 95t122 39q56 2 94 -23t60 -66t32 -90t10 -95q0 -38 -1 -55t-7 -26t-16 -18t-28 -31l-88 -4q-4 0 -10 9t-8 15q-4 20 7 27t26 10t31 4t24 9q16 18 15 50t-1 50q0 26 -12 58t-31 58 t-47 43t-60 15q-68 -2 -105 -49t-55 -111t-22 -134t-6 -116q-2 -24 -4 -61t-5 -77t-4 -78t-1 -68v-4q0 -6 1 -21t3 -32t4 -31t4 -20l158 6q20 0 39 -9t19 -31q0 -10 -12 -21t-22 -11l-174 -6l-14 -16q10 -218 9 -434t-21 -434q2 -2 11 -5t13 -3t27 5t27 5h13t26 1t29 1h24 q46 2 93 -2t93 -2h14t12 10l8 68q0 2 6 5l10 5q24 0 34 -11t11 -27t-1 -33t-2 -29v-48l-8 -8q-2 0 -17 -1t-21 -1q-64 -4 -124 4t-124 6h-21t-32 -1t-32 -2t-21 -1q-16 -14 -41 -15t-47 -1q-18 0 -30 12t-12 28q0 28 10 64t14 62q0 6 2 48t5 97t5 110t4 87v46q0 2 4 21t2 21 q0 8 -1 27t-2 40t-1 41v28q-2 24 -6 61t-7 73t-6 62l-3 26l-8 8q-12 0 -30 -1t-37 1t-36 8t-25 20z" />
<glyph unicode="&#xa8;" horiz-adv-x="518" d="M80 1394q0 24 11 52t49 28q26 0 46 -12t20 -42t-17 -58t-57 -28q-4 0 -13 1t-13 1q-20 14 -23 24t-3 34zM300 1394q0 24 11 52t49 28q26 0 46 -12t20 -42t-17 -58t-57 -28q-4 0 -13 1t-13 1q-20 14 -23 24t-3 34z" />
<glyph unicode="&#xad;" d="M70 743q0 19 3 35t9 16q10 2 23 -4t33 -4v-40l104 10q26 0 49 -4t47 -4h4h52t52 2l11 1t25 3t25 3l11 1q2 -2 6 -4l8 -4q28 0 25 -19t-3 -51q0 -6 -6 -13t-13 -10t-15 -3t-10 8q-10 26 -11 27t-21 1l-394 4q-6 0 -10 15t-4 34z" />
<glyph unicode="&#xaf;" d="M56 1417q0 19 3 35t9 16q10 2 23 -4t33 -4v-40l104 10q26 0 49 -4t47 -4h4h52t52 2l11 1t25 3t25 3l11 1q2 -2 6 -4l8 -4q28 0 25 -19t-3 -51q0 -6 -6 -13t-13 -10t-15 -3t-10 8q-10 26 -11 27t-21 1l-394 4q-6 0 -10 15t-4 34z" />
<glyph unicode="&#xb4;" horiz-adv-x="358" d="M53 1410q-1 8 5 10q10 6 17 13l19 19t32 31t58 49l54 50q6 6 14 0t14 -16t9 -22t1 -18q-2 -4 -12 -13t-10 -11q-6 -4 -19 -17l-17 -17l-17 -17t-27 -28t-27 -28t-15 -17q-12 -10 -23 -18t-27 -2q-6 6 -12 15t-11 19t-6 18z" />
<glyph unicode="&#xb7;" horiz-adv-x="272" d="M82 730q0 24 11 52t49 28q26 0 46 -12t20 -42t-17 -58t-57 -28q-4 0 -13 1t-13 1q-20 14 -23 24t-3 34z" />
<glyph unicode="&#xb8;" horiz-adv-x="436" d="M68 -238q0 8 13 19t29 11l6 -18q2 -4 2 -6t2 -6q4 -16 10 -34t20 -33t36 -25t60 -10q22 -4 39 15t26 48t9 64t-8 64t-26 46t-46 11q-6 -2 -13 -2t-11 -2q-22 -4 -48 -6t-54 -2q-4 0 -12 4l-12 6t-6 27t-2 55t1 57t-1 33l52 -6q0 -28 2 -52t6 -42q2 -10 4 -11t6 -1 q18 0 32 2t36 4q6 0 13 1t15 1q38 4 67 -20t47 -63t23 -86t-8 -91t-45 -78t-86 -44q-36 -2 -68 13t-56 39t-39 56t-15 62z" />
<glyph unicode="&#xbf;" horiz-adv-x="616" d="M14 288q0 88 22 203t66 217q40 90 95 155t139 123q4 4 15 10t24 12t24 11t17 7q0 6 1 29t1 31q0 24 -1 59t-2 71t-2 71t-1 61q0 14 19 20t29 6q8 0 12 -1t12 -7q4 -30 5 -72t1 -86t-1 -86t-1 -72q8 -14 9 -26t1 -26q0 -20 -17 -33t-39 -21t-46 -14t-36 -16 q-58 -38 -106 -104t-80 -132q-46 -96 -61 -189t-15 -169q0 -26 4 -62t12 -68q12 -52 40 -88t86 -36q46 0 81 36t59 78q42 74 57 161t15 145q0 4 -1 21t-1 23q-2 8 -13 6t-15 -2q-18 0 -26 -2t-26 -2q-10 0 -6 24t0 36q34 0 53 6t33 6q4 0 20 -1t20 -1q18 -22 21 -42t3 -48 v-44q-12 -12 -9 -33t1 -31q-4 -34 -12 -76t-20 -84t-28 -82t-40 -74q-28 -40 -68 -65t-94 -25q-78 0 -125 33t-73 105q-10 30 -20 74t-12 80zM310 1762q0 20 8 41t21 38t32 28t41 11q52 0 83 -34t31 -86q0 -120 -120 -120q-22 0 -40 12t-30 30t-19 39t-7 41zM366 1770 q0 -28 9 -47t39 -19q28 0 38 14t10 42q0 24 -6 45t-34 21q-22 0 -39 -18t-17 -38z" />
<glyph unicode="&#xc0;" horiz-adv-x="1046" d="M39 53q1 5 15 9q10 0 40 4t40 6q-2 4 1 17t5 17q8 48 12 91t7 85t6 86t11 92q4 24 9 71t11 95t13 89t17 53q6 72 13 145t13 145q2 4 5 17t3 21q4 32 5 66t13 64l30 136q-4 10 -1 20t7 26l10 40t10 60q4 28 10 64t14 74l16 76t16 70q8 22 19 37t35 17q18 0 32 -15t18 -33 l266 -1034l28 -120v-16q2 -4 5 -14t6 -22t6 -23t3 -13q2 -8 9 -45t17 -88t22 -108t22 -108t17 -87t9 -44l42 -12q16 0 18 -1t14 3q22 -10 16 -35t-28 -31h-24q-10 -2 -24 -4t-36 -4l-48 2l-22 102q0 8 -4 28t-8 42t-8 43t-4 31l-22 162l-62 266q-4 0 -19 -1t-34 -3t-35 -3 t-18 -1t-8 -1t-10 -1q-70 -4 -143 1t-143 1h-18q0 -2 -2 -17t-4 -23q-10 -108 -22 -211t-24 -207q-2 -18 -3 -46t0 -56t2 -55t3 -45h-46q-6 0 -24 1t-37 2t-37 2t-24 3q-18 6 -18 30q-2 10 -1 15zM286 810l2 -56q2 -12 24 -15t26 -5q8 0 22 -2l28 -4t25 -3t13 -1 q52 -2 110 2t114 8q8 0 24 -7t16 9q-4 54 -12 98q-14 90 -41 182t-53 182q-28 90 -45 184t-43 186q-4 8 -9 28t-11 43t-11 43l-7 28l-8 8l-4 -2h-4l-8 -8q-4 -20 -11 -59t-16 -88t-19 -104t-19 -104t-16 -88t-11 -57q0 -4 -2 -26t-4 -24q0 -4 -2 -13t-5 -20t-5 -20t-2 -11 q-4 -30 -10 -77t-12 -92t-10 -79t-4 -36zM332 2106q-2 8 3 20t12 22t16 14t15 -2l50 -56q36 -36 55 -59t30 -36t18 -21t19 -16q4 -2 2 -10t-7 -18t-12 -19t-13 -13q-18 -6 -30 4t-22 22q-2 4 -14 19t-25 32t-26 32t-15 19q-2 2 -10 9t-17 16t-16 17t-9 12q-2 2 -2 4 q-2 2 -2 8z" />
<glyph unicode="&#xc1;" horiz-adv-x="1046" d="M39 53q1 5 15 9q10 0 40 4t40 6q-2 4 1 17t5 17q8 48 12 91t7 85t6 86t11 92q4 24 9 71t11 95t13 89t17 53q6 72 13 145t13 145q2 4 5 17t3 21q4 32 5 66t13 64l30 136q-4 10 -1 20t7 26l10 40t10 60q4 28 10 64t14 74l16 76t16 70q8 22 19 37t35 17q18 0 32 -15t18 -33 l266 -1034l28 -120v-16q2 -4 5 -14t6 -22t6 -23t3 -13q2 -8 9 -45t17 -88t22 -108t22 -108t17 -87t9 -44l42 -12q16 0 18 -1t14 3q22 -10 16 -35t-28 -31h-24q-10 -2 -24 -4t-36 -4l-48 2l-22 102q0 8 -4 28t-8 42t-8 43t-4 31l-22 162l-62 266q-4 0 -19 -1t-34 -3t-35 -3 t-18 -1t-8 -1t-10 -1q-70 -4 -143 1t-143 1h-18q0 -2 -2 -17t-4 -23q-10 -108 -22 -211t-24 -207q-2 -18 -3 -46t0 -56t2 -55t3 -45h-46q-6 0 -24 1t-37 2t-37 2t-24 3q-18 6 -18 30q-2 10 -1 15zM286 810l2 -56q2 -12 24 -15t26 -5q8 0 22 -2l28 -4t25 -3t13 -1 q52 -2 110 2t114 8q8 0 24 -7t16 9q-4 54 -12 98q-14 90 -41 182t-53 182q-28 90 -45 184t-43 186q-4 8 -9 28t-11 43t-11 43l-7 28l-8 8l-4 -2h-4l-8 -8q-4 -20 -11 -59t-16 -88t-19 -104t-19 -104t-16 -88t-11 -57q0 -4 -2 -26t-4 -24q0 -4 -2 -13t-5 -20t-5 -20t-2 -11 q-4 -30 -10 -77t-12 -92t-10 -79t-4 -36zM309 1974q-1 8 5 10q10 6 17 13l19 19t32 31t58 49l54 50q6 6 14 0t14 -16t9 -22t1 -18q-2 -4 -12 -13t-10 -11q-6 -4 -19 -17l-17 -17l-17 -17t-27 -28t-27 -28t-15 -17q-12 -10 -23 -18t-27 -2q-6 6 -12 15t-11 19t-6 18z" />
<glyph unicode="&#xc2;" horiz-adv-x="1046" d="M39 53q1 5 15 9q10 0 40 4t40 6q-2 4 1 17t5 17q8 48 12 91t7 85t6 86t11 92q4 24 9 71t11 95t13 89t17 53q6 72 13 145t13 145q2 4 5 17t3 21q4 32 5 66t13 64l30 136q-4 10 -1 20t7 26l10 40t10 60q4 28 10 64t14 74l16 76t16 70q8 22 19 37t35 17q18 0 32 -15t18 -33 l266 -1034l28 -120v-16q2 -4 5 -14t6 -22t6 -23t3 -13q2 -8 9 -45t17 -88t22 -108t22 -108t17 -87t9 -44l42 -12q16 0 18 -1t14 3q22 -10 16 -35t-28 -31h-24q-10 -2 -24 -4t-36 -4l-48 2l-22 102q0 8 -4 28t-8 42t-8 43t-4 31l-22 162l-62 266q-4 0 -19 -1t-34 -3t-35 -3 t-18 -1t-8 -1t-10 -1q-70 -4 -143 1t-143 1h-18q0 -2 -2 -17t-4 -23q-10 -108 -22 -211t-24 -207q-2 -18 -3 -46t0 -56t2 -55t3 -45h-46q-6 0 -24 1t-37 2t-37 2t-24 3q-18 6 -18 30q-2 10 -1 15zM286 810l2 -56q2 -12 24 -15t26 -5q8 0 22 -2l28 -4t25 -3t13 -1 q52 -2 110 2t114 8q8 0 24 -7t16 9q-4 54 -12 98q-14 90 -41 182t-53 182q-28 90 -45 184t-43 186q-4 8 -9 28t-11 43t-11 43l-7 28l-8 8l-4 -2h-4l-8 -8q-4 -20 -11 -59t-16 -88t-19 -104t-19 -104t-16 -88t-11 -57q0 -4 -2 -26t-4 -24q0 -4 -2 -13t-5 -20t-5 -20t-2 -11 q-4 -30 -10 -77t-12 -92t-10 -79t-4 -36zM290 1916q36 78 66 140q24 52 45 95t23 45q8 10 11 11t13 3q16 2 27 -10t19 -31t13 -39t11 -32l8 -16t13 -27t13 -29t10 -20q2 -2 7 -11t11 -19t11 -19t5 -11q2 -2 2 -6q0 -8 2 -10q4 -16 -1 -20t-19 -6q-10 -2 -18 -2t-14 12 l-50 100q-10 16 -18 46t-24 46h-4q-2 -2 -4 -2q-2 -6 -10 -21t-17 -32t-17 -31t-10 -20q-8 -14 -14 -32t-14 -33t-19 -27t-25 -14q-26 -4 -32 22z" />
<glyph unicode="&#xc3;" horiz-adv-x="1046" d="M39 53q1 5 15 9q10 0 40 4t40 6q-2 4 1 17t5 17q8 48 12 91t7 85t6 86t11 92q4 24 9 71t11 95t13 89t17 53q6 72 13 145t13 145q2 4 5 17t3 21q4 32 5 66t13 64l30 136q-4 10 -1 20t7 26l10 40t10 60q4 28 10 64t14 74l16 76t16 70q8 22 19 37t35 17q18 0 32 -15t18 -33 l266 -1034l28 -120v-16q2 -4 5 -14t6 -22t6 -23t3 -13q2 -8 9 -45t17 -88t22 -108t22 -108t17 -87t9 -44l42 -12q16 0 18 -1t14 3q22 -10 16 -35t-28 -31h-24q-10 -2 -24 -4t-36 -4l-48 2l-22 102q0 8 -4 28t-8 42t-8 43t-4 31l-22 162l-62 266q-4 0 -19 -1t-34 -3t-35 -3 t-18 -1t-8 -1t-10 -1q-70 -4 -143 1t-143 1h-18q0 -2 -2 -17t-4 -23q-10 -108 -22 -211t-24 -207q-2 -18 -3 -46t0 -56t2 -55t3 -45h-46q-6 0 -24 1t-37 2t-37 2t-24 3q-18 6 -18 30q-2 10 -1 15zM120 1972q0 20 22 23t32 3q8 30 20 68t31 71t46 56t65 23q28 0 60 -15 t42 -41l62 -128q8 -16 26 -25t34 -9q26 0 48 18t39 44t27 55t10 51v14q-2 4 5 19t7 17q-4 18 10 23t24 3q6 0 22 -2t32 -7t29 -13t13 -22q0 -12 -10 -18t-22 -9t-24 -3h-18q-22 -34 -36 -74t-33 -75t-48 -59t-81 -24q-30 0 -56 11t-46 39q-2 6 -9 21t-14 32t-15 33t-10 22 q-10 22 -26 38t-44 16q-20 0 -37 -14t-29 -35t-19 -43t-7 -40q0 -10 -1 -13t-2 -5t-2 -6t-1 -16q0 -26 -11 -29t-27 -3h-19t-26 2t-23 8t-10 18zM286 810l2 -56q2 -12 24 -15t26 -5q8 0 22 -2l28 -4t25 -3t13 -1q52 -2 110 2t114 8q8 0 24 -7t16 9q-4 54 -12 98 q-14 90 -41 182t-53 182q-28 90 -45 184t-43 186q-4 8 -9 28t-11 43t-11 43l-7 28l-8 8l-4 -2h-4l-8 -8q-4 -20 -11 -59t-16 -88t-19 -104t-19 -104t-16 -88t-11 -57q0 -4 -2 -26t-4 -24q0 -4 -2 -13t-5 -20t-5 -20t-2 -11q-4 -30 -10 -77t-12 -92t-10 -79t-4 -36z" />
<glyph unicode="&#xc4;" horiz-adv-x="1046" d="M39 53q1 5 15 9q10 0 40 4t40 6q-2 4 1 17t5 17q8 48 12 91t7 85t6 86t11 92q4 24 9 71t11 95t13 89t17 53q6 72 13 145t13 145q2 4 5 17t3 21q4 32 5 66t13 64l30 136q-4 10 -1 20t7 26l10 40t10 60q4 28 10 64t14 74l16 76t16 70q8 22 19 37t35 17q18 0 32 -15t18 -33 l266 -1034l28 -120v-16q2 -4 5 -14t6 -22t6 -23t3 -13q2 -8 9 -45t17 -88t22 -108t22 -108t17 -87t9 -44l42 -12q16 0 18 -1t14 3q22 -10 16 -35t-28 -31h-24q-10 -2 -24 -4t-36 -4l-48 2l-22 102q0 8 -4 28t-8 42t-8 43t-4 31l-22 162l-62 266q-4 0 -19 -1t-34 -3t-35 -3 t-18 -1t-8 -1t-10 -1q-70 -4 -143 1t-143 1h-18q0 -2 -2 -17t-4 -23q-10 -108 -22 -211t-24 -207q-2 -18 -3 -46t0 -56t2 -55t3 -45h-46q-6 0 -24 1t-37 2t-37 2t-24 3q-18 6 -18 30q-2 10 -1 15zM274 1982q0 24 11 52t49 28q26 0 46 -12t20 -42t-17 -58t-57 -28q-4 0 -13 1 t-13 1q-20 14 -23 24t-3 34zM286 810l2 -56q2 -12 24 -15t26 -5q8 0 22 -2l28 -4t25 -3t13 -1q52 -2 110 2t114 8q8 0 24 -7t16 9q-4 54 -12 98q-14 90 -41 182t-53 182q-28 90 -45 184t-43 186q-4 8 -9 28t-11 43t-11 43l-7 28l-8 8l-4 -2h-4l-8 -8q-4 -20 -11 -59t-16 -88 t-19 -104t-19 -104t-16 -88t-11 -57q0 -4 -2 -26t-4 -24q0 -4 -2 -13t-5 -20t-5 -20t-2 -11q-4 -30 -10 -77t-12 -92t-10 -79t-4 -36zM494 1982q0 24 11 52t49 28q26 0 46 -12t20 -42t-17 -58t-57 -28q-4 0 -13 1t-13 1q-20 14 -23 24t-3 34z" />
<glyph unicode="&#xc5;" horiz-adv-x="1046" d="M39 53q1 5 15 9q10 0 40 4t40 6q-2 4 1 17t5 17q8 48 12 91t7 85t6 86t11 92q4 24 9 71t11 95t13 89t17 53q6 72 13 145t13 145q2 4 5 17t3 21q4 32 5 66t13 64l30 136q-4 10 -1 20t7 26l10 40t10 60q4 28 10 64t14 74l16 76t16 70q8 22 19 37t35 17q18 0 32 -15t18 -33 l266 -1034l28 -120v-16q2 -4 5 -14t6 -22t6 -23t3 -13q2 -8 9 -45t17 -88t22 -108t22 -108t17 -87t9 -44l42 -12q16 0 18 -1t14 3q22 -10 16 -35t-28 -31h-24q-10 -2 -24 -4t-36 -4l-48 2l-22 102q0 8 -4 28t-8 42t-8 43t-4 31l-22 162l-62 266q-4 0 -19 -1t-34 -3t-35 -3 t-18 -1t-8 -1t-10 -1q-70 -4 -143 1t-143 1h-18q0 -2 -2 -17t-4 -23q-10 -108 -22 -211t-24 -207q-2 -18 -3 -46t0 -56t2 -55t3 -45h-46q-6 0 -24 1t-37 2t-37 2t-24 3q-18 6 -18 30q-2 10 -1 15zM286 810l2 -56q2 -12 24 -15t26 -5q8 0 22 -2l28 -4t25 -3t13 -1 q52 -2 110 2t114 8q8 0 24 -7t16 9q-4 54 -12 98q-14 90 -41 182t-53 182q-28 90 -45 184t-43 186q-4 8 -9 28t-11 43t-11 43l-7 28l-8 8l-4 -2h-4l-8 -8q-4 -20 -11 -59t-16 -88t-19 -104t-19 -104t-16 -88t-11 -57q0 -4 -2 -26t-4 -24q0 -4 -2 -13t-5 -20t-5 -20t-2 -11 q-4 -30 -10 -77t-12 -92t-10 -79t-4 -36zM320 2028q0 20 6 49t18 55t32 44t48 18h102q4 0 21 -11t27 -17q2 -2 13 -10t19 -23t9 -38t-15 -59q0 -24 -16 -42t-39 -30t-47 -18t-40 -6q-20 0 -44 4t-45 14t-35 27t-14 43zM382 2060q0 -28 19 -44t47 -16q34 0 66 23t32 61 q0 4 -4 14t-8 14q-8 4 -35 11t-35 11h-12q-22 0 -46 -25t-24 -49z" />
<glyph unicode="&#xc6;" horiz-adv-x="1392" d="M46 46q0 10 1 15t15 9q10 0 41 3t41 5q0 4 4 17t8 17q16 48 27 93t20 89t19 89t26 93q8 24 17 73t20 101t22 95t21 55q16 72 34 145t34 145q2 4 7 16t7 20q10 32 16 66t22 64l50 136q-2 10 2 20t11 26t16 40t19 60q16 56 47 133t57 141q10 20 24 35t38 17q14 0 21 1t12 1 t13 1t24 1q18 0 34 1t32 -5h8q38 -2 64 -2h50t50 1t64 1q52 0 95 3t93 3q2 0 14 -3t25 -8t24 -9t11 -6q0 -30 1 -41t1 -17t1 -17t1 -43q0 -12 -2 -21t-18 -9q-10 0 -19 1t-15 7l-4 44v38q0 8 -8 8q-6 0 -21 -2t-19 -2q-50 0 -91 1t-91 1h-57t-39 1t-38 1h-56q-8 0 -33 -8 t-31 -8q-8 -16 -8 -28v-30v-36q0 -26 1 -81t2 -123t2 -143t2 -143t2 -123t1 -81q2 -8 27 -11t56 -4t61 -1h42q20 0 27 -2t7 -22q0 -16 -16 -31t-32 -17l-172 10q-2 0 -2 -12v-26t1 -26l1 -12l-12 -118v-28q2 -24 4 -75t5 -113t6 -130t6 -127t5 -103t4 -58l74 -12q10 0 26 1 t20 1l326 20q0 4 2 21t2 21l-2 52q8 30 33 25t47 -25v-6q0 -12 -5 -8t-5 -8v-16l6 -58l2 -9t3 -20t3 -20l2 -9q-4 -10 -13 -13t-19 -9q-8 0 -27 1t-40 2t-39 2t-26 1q-4 0 -16 -3t-16 -5q-56 2 -95 1t-74 -2t-74 -2t-95 3q-2 -10 -11 -9t-13 1q-12 0 -22 3t-18 13 q-2 18 -4 64t-4 99t-3 99t-1 64v24q0 12 -2 45t-4 70t-4 70t-2 47v74l-30 5t-35 6t-30 5t-15 2t-8 -1t-10 1q-36 -2 -64 -2t-53 1t-53 1t-64 -2h-18q0 -2 -4 -17t-8 -23q-24 -108 -42 -207t-46 -203q-6 -18 -11 -51t-10 -67t-9 -65t-4 -49h-46q-6 0 -24 1t-37 3t-37 3t-24 3 q-16 6 -12 28zM376 756q0 -6 9 -8t20 -2h20h11h21t27 2t24 3t12 1q6 0 41 -4t74 -9t71 -6t34 5v4v30v830q6 22 4 56t-4 56l-4 42l-8 24l-20 12l-24 -48l-8 -8q-10 -28 -34 -99t-50 -151t-50 -150t-34 -98q0 -2 -2 -10l-4 -16t-4 -15t-4 -9q0 -4 -4 -13t-7 -20t-7 -20t-4 -11 q-8 -30 -21 -77t-26 -92t-23 -79t-10 -36z" />
<glyph unicode="&#xc7;" horiz-adv-x="740" d="M60 955v73v83t2 77q2 54 6 127t17 149t36 150t61 132t94 94t134 36q74 0 133 -28t100 -76t63 -111t22 -131v-33t-4 -33l-122 -4q-30 10 -27 26t19 34l68 4q-2 50 -20 101t-51 93t-79 67t-104 23q-84 0 -137 -55t-83 -132t-43 -161t-15 -144q0 -4 -1 -25t-2 -48t-2 -55 t-1 -44t-1 -40l-2 -48t-1 -42v-20q0 -8 2 -42t5 -83t7 -107t7 -113t7 -103t6 -76q4 -54 19 -123t43 -130t74 -104t114 -43q48 0 87 34t70 89t54 123t38 135t22 126t7 95q16 20 40 13t34 -31l-6 -50q-2 -36 -11 -95t-26 -126t-44 -135t-64 -123t-84 -90t-105 -35 q-112 0 -178 66t-100 164t-46 210t-18 206q0 6 -1 13t-1 13q-2 16 -2 33t-2 29q-2 28 -4 65t-3 77t-1 79zM322 -256q0 8 13 19t29 11l6 -18q2 -4 2 -6t2 -6q4 -16 10 -34t20 -33t36 -25t60 -10q22 -4 39 15t26 48t9 64t-8 64t-26 46t-46 11q-6 -2 -13 -2t-11 -2 q-22 -4 -48 -6t-54 -2q-4 0 -12 4l-12 6t-6 27t-2 55t1 57t-1 33l52 -6q0 -28 2 -52t6 -42q2 -10 4 -11t6 -1q18 0 32 2t36 4q6 0 13 1t15 1q38 4 67 -20t47 -63t23 -86t-8 -91t-45 -78t-86 -44q-36 -2 -68 13t-56 39t-39 56t-15 62z" />
<glyph unicode="&#xc8;" horiz-adv-x="734" d="M66 598v128v126v448v300q6 22 3 56t-3 56v108q0 46 42 46q18 0 34 1t32 -5h8q38 -2 64 -2h50t50 1t64 1q52 0 95 3t93 3q2 0 14 -3t25 -8t24 -9t11 -6q0 -30 1 -41t1 -17t1 -17t1 -43q0 -12 -2 -21t-18 -9q-10 0 -19 1t-15 7l-4 44v38q0 8 -8 8q-6 0 -21 -2t-19 -2 q-50 0 -91 1t-91 1h-57t-39 1t-38 1h-56q-8 0 -33 -8t-31 -8q-8 -16 -8 -28v-30v-36q0 -26 1 -81t2 -123t2 -143t2 -143t2 -123t1 -81q2 -8 27 -11t56 -4t61 -1h42q20 0 27 -2t7 -22q0 -16 -16 -31t-32 -17l-172 10q-2 0 -5 -12t-5 -26t-3 -26l-1 -12q-2 -22 -2 -37t1 -27 l2 -24t1 -30v-28q0 -24 3 -75t6 -113t6 -130t6 -127t5 -103t4 -58l74 -12q10 0 26 1t20 1l326 20q0 4 2 21t2 21l-2 52q8 30 33 25t47 -25v-6q0 -12 -5 -8t-5 -8v-16l6 -58l2 -9t3 -20t3 -20l2 -9q-4 -10 -13 -13t-19 -9q-8 0 -27 1t-40 2t-39 2t-26 1q-4 0 -16 -3t-16 -5 q-56 2 -95 1t-74 -2t-74 -2t-95 3q-2 -10 -11 -9t-13 1q-12 0 -22 3t-18 13q-2 18 -4 64t-4 99t-3 99t-1 64v24q0 12 -2 45t-4 70t-4 70t-2 47zM232 2126q-2 8 3 20t12 22t16 14t15 -2l50 -56q36 -36 55 -59t30 -36t18 -21t19 -16q4 -2 2 -10t-7 -18t-12 -19t-13 -13 q-18 -6 -30 4t-22 22q-2 4 -14 19t-25 32t-26 32t-15 19q-2 2 -10 9t-17 16t-16 17t-9 12q-2 2 -2 4q-2 2 -2 8z" />
<glyph unicode="&#xc9;" horiz-adv-x="734" d="M66 598v128v126v448v300q6 22 3 56t-3 56v108q0 46 42 46q18 0 34 1t32 -5h8q38 -2 64 -2h50t50 1t64 1q52 0 95 3t93 3q2 0 14 -3t25 -8t24 -9t11 -6q0 -30 1 -41t1 -17t1 -17t1 -43q0 -12 -2 -21t-18 -9q-10 0 -19 1t-15 7l-4 44v38q0 8 -8 8q-6 0 -21 -2t-19 -2 q-50 0 -91 1t-91 1h-57t-39 1t-38 1h-56q-8 0 -33 -8t-31 -8q-8 -16 -8 -28v-30v-36q0 -26 1 -81t2 -123t2 -143t2 -143t2 -123t1 -81q2 -8 27 -11t56 -4t61 -1h42q20 0 27 -2t7 -22q0 -16 -16 -31t-32 -17l-172 10q-2 0 -5 -12t-5 -26t-3 -26l-1 -12q-2 -22 -2 -37t1 -27 l2 -24t1 -30v-28q0 -24 3 -75t6 -113t6 -130t6 -127t5 -103t4 -58l74 -12q10 0 26 1t20 1l326 20q0 4 2 21t2 21l-2 52q8 30 33 25t47 -25v-6q0 -12 -5 -8t-5 -8v-16l6 -58l2 -9t3 -20t3 -20l2 -9q-4 -10 -13 -13t-19 -9q-8 0 -27 1t-40 2t-39 2t-26 1q-4 0 -16 -3t-16 -5 q-56 2 -95 1t-74 -2t-74 -2t-95 3q-2 -10 -11 -9t-13 1q-12 0 -22 3t-18 13q-2 18 -4 64t-4 99t-3 99t-1 64v24q0 12 -2 45t-4 70t-4 70t-2 47zM255 1984q-1 8 5 10q10 6 17 13l19 19t32 31t58 49l54 50q6 6 14 0t14 -16t9 -22t1 -18q-2 -4 -12 -13t-10 -11q-6 -4 -19 -17 l-17 -17l-17 -17t-27 -28t-27 -28t-15 -17q-12 -10 -23 -18t-27 -2q-6 6 -12 15t-11 19t-6 18z" />
<glyph unicode="&#xca;" horiz-adv-x="734" d="M66 598v128v126v448v300q6 22 3 56t-3 56v108q0 46 42 46q18 0 34 1t32 -5h8q38 -2 64 -2h50t50 1t64 1q52 0 95 3t93 3q2 0 14 -3t25 -8t24 -9t11 -6q0 -30 1 -41t1 -17t1 -17t1 -43q0 -12 -2 -21t-18 -9q-10 0 -19 1t-15 7l-4 44v38q0 8 -8 8q-6 0 -21 -2t-19 -2 q-50 0 -91 1t-91 1h-57t-39 1t-38 1h-56q-8 0 -33 -8t-31 -8q-8 -16 -8 -28v-30v-36q0 -26 1 -81t2 -123t2 -143t2 -143t2 -123t1 -81q2 -8 27 -11t56 -4t61 -1h42q20 0 27 -2t7 -22q0 -16 -16 -31t-32 -17l-172 10q-2 0 -5 -12t-5 -26t-3 -26l-1 -12q-2 -22 -2 -37t1 -27 l2 -24t1 -30v-28q0 -24 3 -75t6 -113t6 -130t6 -127t5 -103t4 -58l74 -12q10 0 26 1t20 1l326 20q0 4 2 21t2 21l-2 52q8 30 33 25t47 -25v-6q0 -12 -5 -8t-5 -8v-16l6 -58l2 -9t3 -20t3 -20l2 -9q-4 -10 -13 -13t-19 -9q-8 0 -27 1t-40 2t-39 2t-26 1q-4 0 -16 -3t-16 -5 q-56 2 -95 1t-74 -2t-74 -2t-95 3q-2 -10 -11 -9t-13 1q-12 0 -22 3t-18 13q-2 18 -4 64t-4 99t-3 99t-1 64v24q0 12 -2 45t-4 70t-4 70t-2 47zM210 1926q36 78 66 140q24 52 45 95t23 45q8 10 11 11t13 3q16 2 27 -10t19 -31t13 -39t11 -32l8 -16t13 -27t13 -29t10 -20 q2 -2 7 -11t11 -19t11 -19t5 -11q2 -2 2 -6q0 -8 2 -10q4 -16 -1 -20t-19 -6q-10 -2 -18 -2t-14 12l-50 100q-10 16 -18 46t-24 46h-4q-2 -2 -4 -2q-2 -6 -10 -21t-17 -32t-17 -31t-10 -20q-8 -14 -14 -32t-14 -33t-19 -27t-25 -14q-26 -4 -32 22z" />
<glyph unicode="&#xcb;" horiz-adv-x="734" d="M66 598v128v126v448v300q6 22 3 56t-3 56v108q0 46 42 46q18 0 34 1t32 -5h8q38 -2 64 -2h50t50 1t64 1q52 0 95 3t93 3q2 0 14 -3t25 -8t24 -9t11 -6q0 -30 1 -41t1 -17t1 -17t1 -43q0 -12 -2 -21t-18 -9q-10 0 -19 1t-15 7l-4 44v38q0 8 -8 8q-6 0 -21 -2t-19 -2 q-50 0 -91 1t-91 1h-57t-39 1t-38 1h-56q-8 0 -33 -8t-31 -8q-8 -16 -8 -28v-30v-36q0 -26 1 -81t2 -123t2 -143t2 -143t2 -123t1 -81q2 -8 27 -11t56 -4t61 -1h42q20 0 27 -2t7 -22q0 -16 -16 -31t-32 -17l-172 10q-2 0 -5 -12t-5 -26t-3 -26l-1 -12q-2 -22 -2 -37t1 -27 l2 -24t1 -30v-28q0 -24 3 -75t6 -113t6 -130t6 -127t5 -103t4 -58l74 -12q10 0 26 1t20 1l326 20q0 4 2 21t2 21l-2 52q8 30 33 25t47 -25v-6q0 -12 -5 -8t-5 -8v-16l6 -58l2 -9t3 -20t3 -20l2 -9q-4 -10 -13 -13t-19 -9q-8 0 -27 1t-40 2t-39 2t-26 1q-4 0 -16 -3t-16 -5 q-56 2 -95 1t-74 -2t-74 -2t-95 3q-2 -10 -11 -9t-13 1q-12 0 -22 3t-18 13q-2 18 -4 64t-4 99t-3 99t-1 64v24q0 12 -2 45t-4 70t-4 70t-2 47zM194 1968q0 24 11 52t49 28q26 0 46 -12t20 -42t-17 -58t-57 -28q-4 0 -13 1t-13 1q-20 14 -23 24t-3 34zM414 1968q0 24 11 52 t49 28q26 0 46 -12t20 -42t-17 -58t-57 -28q-4 0 -13 1t-13 1q-20 14 -23 24t-3 34z" />
<glyph unicode="&#xcc;" horiz-adv-x="626" d="M32 20l6 100q0 12 9 18t19 6q8 0 20 -3t12 -13v-46q0 -8 14 -12t34 -6t38 -3t28 -1q4 0 17 1t17 1q8 12 11 38t3 57t-1 61t3 50v518q-4 18 -2 70t5 110t6 110t1 70l4 526q-2 14 -3 37t-1 45v54l-8 8q-2 2 -11 2h-13q-12 0 -31 1t-40 1t-39 -2t-28 -10l-4 -34 q-14 -14 -27 -19t-25 15q0 4 -1 21t-1 23q0 16 -1 32t15 30q4 4 16 6t26 3t25 0t13 -1l46 -4h158h48l150 -2q16 0 25 -12t13 -29t4 -34v-27q0 -8 -13 -9t-29 -1q-14 0 -16 5t0 13t2 16t-12 14q-22 14 -54 8t-58 -6q-16 0 -39 1t-29 -17v-34v-36l-6 -568q8 -64 8 -131 t-2 -135t-5 -136t-3 -132q0 -10 -1 -44t-2 -73t-3 -73t-2 -42v-144v-142q2 -40 21 -44t61 -4q6 0 24 2t37 5t34 9t17 16l-6 40q4 12 19 17t23 5h13t9 -8l6 -38q2 -2 2 -24v-24v-22t-8 -24q-2 -2 -2 -4t-2 -4l-4 -4l-64 2h-58l-12 -2t-27 -4l-30 -4t-21 -2q-6 4 -23 5t-36 0 t-35 -2t-18 -1h-28t-34 2q-6 2 -22 3t-20 1h-22t-34 1t-32 5t-14 12zM200 2138q-2 8 3 20t12 22t16 14t15 -2l50 -56q36 -36 55 -59t30 -36t18 -21t19 -16q4 -2 2 -10t-7 -18t-12 -19t-13 -13q-18 -6 -30 4t-22 22q-2 4 -14 19t-25 32t-26 32t-15 19q-2 2 -10 9t-17 16 t-16 17t-9 12q-2 2 -2 4q-2 2 -2 8z" />
<glyph unicode="&#xcd;" horiz-adv-x="626" d="M32 20l6 100q0 12 9 18t19 6q8 0 20 -3t12 -13v-46q0 -8 14 -12t34 -6t38 -3t28 -1q4 0 17 1t17 1q8 12 11 38t3 57t-1 61t3 50v518q-4 18 -2 70t5 110t6 110t1 70l4 526q-2 14 -3 37t-1 45v54l-8 8q-2 2 -11 2h-13q-12 0 -31 1t-40 1t-39 -2t-28 -10l-4 -34 q-14 -14 -27 -19t-25 15q0 4 -1 21t-1 23q0 16 -1 32t15 30q4 4 16 6t26 3t25 0t13 -1l46 -4h158h48l150 -2q16 0 25 -12t13 -29t4 -34v-27q0 -8 -13 -9t-29 -1q-14 0 -16 5t0 13t2 16t-12 14q-22 14 -54 8t-58 -6q-16 0 -39 1t-29 -17v-34v-36l-6 -568q8 -64 8 -131 t-2 -135t-5 -136t-3 -132q0 -10 -1 -44t-2 -73t-3 -73t-2 -42v-144v-142q2 -40 21 -44t61 -4q6 0 24 2t37 5t34 9t17 16l-6 40q4 12 19 17t23 5h13t9 -8l6 -38q2 -2 2 -24v-24v-22t-8 -24q-2 -2 -2 -4t-2 -4l-4 -4l-64 2h-58l-12 -2t-27 -4l-30 -4t-21 -2q-6 4 -23 5t-36 0 t-35 -2t-18 -1h-28t-34 2q-6 2 -22 3t-20 1h-22t-34 1t-32 5t-14 12zM201 1984q-1 8 5 10q10 6 17 13l19 19t32 31t58 49l54 50q6 6 14 0t14 -16t9 -22t1 -18q-2 -4 -12 -13t-10 -11q-6 -4 -19 -17l-17 -17l-17 -17t-27 -28t-27 -28t-15 -17q-12 -10 -23 -18t-27 -2 q-6 6 -12 15t-11 19t-6 18z" />
<glyph unicode="&#xce;" horiz-adv-x="626" d="M32 20l6 100q0 12 9 18t19 6q8 0 20 -3t12 -13v-46q0 -8 14 -12t34 -6t38 -3t28 -1q4 0 17 1t17 1q8 12 11 38t3 57t-1 61t3 50v518q-4 18 -2 70t5 110t6 110t1 70l4 526q-2 14 -3 37t-1 45v54l-8 8q-2 2 -11 2h-13q-12 0 -31 1t-40 1t-39 -2t-28 -10l-4 -34 q-14 -14 -27 -19t-25 15q0 4 -1 21t-1 23q0 16 -1 32t15 30q4 4 16 6t26 3t25 0t13 -1l46 -4h158h48l150 -2q16 0 25 -12t13 -29t4 -34v-27q0 -8 -13 -9t-29 -1q-14 0 -16 5t0 13t2 16t-12 14q-22 14 -54 8t-58 -6q-16 0 -39 1t-29 -17v-34v-36l-6 -568q8 -64 8 -131 t-2 -135t-5 -136t-3 -132q0 -10 -1 -44t-2 -73t-3 -73t-2 -42v-144v-142q2 -40 21 -44t61 -4q6 0 24 2t37 5t34 9t17 16l-6 40q4 12 19 17t23 5h13t9 -8l6 -38q2 -2 2 -24v-24v-22t-8 -24q-2 -2 -2 -4t-2 -4l-4 -4l-64 2h-58l-12 -2t-27 -4l-30 -4t-21 -2q-6 4 -23 5t-36 0 t-35 -2t-18 -1h-28t-34 2q-6 2 -22 3t-20 1h-22t-34 1t-32 5t-14 12zM156 1970q36 78 66 140q24 52 45 95t23 45q8 10 11 11t13 3q16 2 27 -10t19 -31t13 -39t11 -32l8 -16t13 -27t13 -29t10 -20q2 -2 7 -11t11 -19t11 -19t5 -11q2 -2 2 -6q0 -8 2 -10q4 -16 -1 -20t-19 -6 q-10 -2 -18 -2t-14 12l-50 100q-10 16 -18 46t-24 46h-4q-2 -2 -4 -2q-2 -6 -10 -21t-17 -32t-17 -31t-10 -20q-8 -14 -14 -32t-14 -33t-19 -27t-25 -14q-26 -4 -32 22z" />
<glyph unicode="&#xcf;" horiz-adv-x="626" d="M32 20l6 100q0 12 9 18t19 6q8 0 20 -3t12 -13v-46q0 -8 14 -12t34 -6t38 -3t28 -1q4 0 17 1t17 1q8 12 11 38t3 57t-1 61t3 50v518q-4 18 -2 70t5 110t6 110t1 70l4 526q-2 14 -3 37t-1 45v54l-8 8q-2 2 -11 2h-13q-12 0 -31 1t-40 1t-39 -2t-28 -10l-4 -34 q-14 -14 -27 -19t-25 15q0 4 -1 21t-1 23q0 16 -1 32t15 30q4 4 16 6t26 3t25 0t13 -1l46 -4h158h48l150 -2q16 0 25 -12t13 -29t4 -34v-27q0 -8 -13 -9t-29 -1q-14 0 -16 5t0 13t2 16t-12 14q-22 14 -54 8t-58 -6q-16 0 -39 1t-29 -17v-34v-36l-6 -568q8 -64 8 -131 t-2 -135t-5 -136t-3 -132q0 -10 -1 -44t-2 -73t-3 -73t-2 -42v-144v-142q2 -40 21 -44t61 -4q6 0 24 2t37 5t34 9t17 16l-6 40q4 12 19 17t23 5h13t9 -8l6 -38q2 -2 2 -24v-24v-22t-8 -24q-2 -2 -2 -4t-2 -4l-4 -4l-64 2h-58l-12 -2t-27 -4l-30 -4t-21 -2q-6 4 -23 5t-36 0 t-35 -2t-18 -1h-28t-34 2q-6 2 -22 3t-20 1h-22t-34 1t-32 5t-14 12zM148 2016q0 24 11 52t49 28q26 0 46 -12t20 -42t-17 -58t-57 -28q-4 0 -13 1t-13 1q-20 14 -23 24t-3 34zM368 2016q0 24 11 52t49 28q26 0 46 -12t20 -42t-17 -58t-57 -28q-4 0 -13 1t-13 1 q-20 14 -23 24t-3 34z" />
<glyph unicode="&#xd0;" horiz-adv-x="904" d="M42 56q0 22 1 33t1 33q4 16 14 19t22 0t22 -10t12 -13q4 -20 2 -29t-3 -12t-1 -5t6 -10q8 -4 14 -11t14 -7q2 0 11 2t13 4q4 0 10 -1t10 -1q0 56 1 95t1 76v76v95v42v77v76v43q0 2 1 15t2 28t1 27v16l-16 576q-6 50 -7 117t0 137t3 136t4 116l-12 32h-72q-8 0 -9 11 t-1 13q0 8 3 25t15 17q124 -6 228 -56t189 -130t150 -185t108 -220t64 -234t21 -229q0 -74 -13 -142t-33 -133t-45 -131t-51 -134q-8 -16 -14 -26t-12 -17t-13 -15t-19 -20q-2 -2 -12 -11t-21 -20l-21 -21l-10 -10q-60 -40 -113 -74t-109 -56t-118 -30t-138 4q-8 -6 -25 4 t-25 10q-18 2 -24 12t-6 26zM60 1057q0 19 3 35t9 16q10 2 23 -4t33 -4v-40l104 10q26 0 49 -4t47 -4h4h52t52 2l11 1t25 3t25 3l11 1q2 -2 6 -4l8 -4q28 0 25 -19t-3 -51q0 -6 -6 -13t-13 -10t-15 -3t-10 8q-10 26 -11 27t-21 1l-394 4q-6 0 -10 15t-4 34zM242 1724 q-2 -262 2 -543t16 -541q6 -90 5 -174t-2 -156t-1 -131t10 -101l4 -2q2 -2 4 -2q28 -2 76 17t99 47t94 59t61 53q44 54 80 134t60 168t37 175t13 157q0 74 -11 141t-31 133t-46 130t-56 132q-2 2 -5 4t-3 4q-2 2 -5 8t-3 8q-6 10 -18 28t-23 35t-19 30t-10 15q-26 32 -61 72 t-75 76t-83 62t-83 28h-14t-10 -8q0 -6 -1 -29t-1 -29z" />
<glyph unicode="&#xd1;" horiz-adv-x="1028" d="M68 1782q0 16 1 45t1 33l8 24h78q0 -10 4 -32t10 -45t12 -44t10 -29q2 -6 11 -27t19 -45t19 -45t11 -27q0 -2 3 -8t5 -8l290 -778q2 -2 5 -7t3 -9q30 -82 71 -176t65 -182l112 -222q4 -10 7 -9t11 1q0 8 -3 27t-6 40t-6 40t-3 25q0 4 4 20t4 20v42t1 58t1 58v42v-56 q0 90 4 188t4 188q0 66 -1 116t-1 116q0 90 1 159t-11 157q-4 30 -4 66v72v71t-4 65q0 4 -2 27t-4 50t-4 50t-2 27v4q0 16 12 24t26 8q22 0 34 1t23 0t22 -3t33 -8q-8 6 -7 6t6 -3t11 -7l6 -4v-50q-2 -2 -6 -4q-8 -4 -10 -4h-2q-6 0 -7 1t-5 1t-16 -3t-40 -9l8 -140 q2 -18 3 -55t1 -85t-1 -99t-2 -99t-2 -85t1 -55l4 -692q0 -4 3 -16t5 -16q0 -20 -1 -72t-2 -110t-3 -110t-2 -72v-40v-40q-8 -16 -28 -16q-32 0 -39 24t-19 48q-2 2 -7 10t-10 18t-10 18t-5 10q-68 132 -131 270t-109 280q-2 4 -6 19t-10 32t-10 32t-6 19q-2 6 -7 18t-11 26 t-13 27t-9 17q4 14 0 18t-8 14q-8 20 -26 66t-37 94t-34 89t-19 51q0 4 -3 16t-5 16l-124 316q-12 20 -16 36t-7 31t-10 29t-23 32q0 -6 -1 -18t-1 -18q0 -10 1 -32t1 -24v-43v-71v-72v-42q8 -78 7 -161t-2 -167t2 -169t19 -165q0 -24 -1 -87t-1 -133t1 -132t1 -88 q0 -58 5 -121t5 -121v-20q-4 -4 -18 -3t-30 4t-30 5t-18 2l16 60q0 6 -1 24t-2 39t-2 38t-1 23v126q0 92 -2 164t2 156l-12 638zM160 1972q0 20 22 23t32 3q8 30 20 68t31 71t46 56t65 23q28 0 60 -15t42 -41l62 -128q8 -16 26 -25t34 -9q26 0 48 18t39 44t27 55t10 51v14 q-2 4 5 19t7 17q-4 18 10 23t24 3q6 0 22 -2t32 -7t29 -13t13 -22q0 -12 -10 -18t-22 -9t-24 -3h-18q-22 -34 -36 -74t-33 -75t-48 -59t-81 -24q-30 0 -56 11t-46 39q-2 6 -9 21t-14 32t-15 33t-10 22q-10 22 -26 38t-44 16q-20 0 -37 -14t-29 -35t-19 -43t-7 -40 q0 -10 -1 -13t-2 -5t-2 -6t-1 -16q0 -26 -11 -29t-27 -3h-19t-26 2t-23 8t-10 18z" />
<glyph unicode="&#xd2;" horiz-adv-x="808" d="M60 780v18t1 37t2 43t1 36q4 54 6 122t7 139t12 138t19 121q24 102 62 201t118 161l10 10t17 18t17 18t10 8l70 14h24q8 0 22 2q70 -2 120 -36t83 -86t51 -117t28 -130t13 -123t5 -98q0 -120 4 -259t-2 -278t-26 -269t-68 -232q-16 -42 -36 -82t-47 -72t-63 -55t-86 -31 q-82 4 -141 41t-100 96t-66 136t-38 161t-17 169t-2 161zM131 903q-1 -91 1 -167q2 -70 5 -152t18 -163t48 -156t93 -129q30 -28 58 -42t74 -16q36 0 61 18t45 42q44 54 72 125t45 149t27 157t20 151v506q2 14 1 37t-4 47t-6 46t-3 36q0 36 -11 104t-37 136t-69 120t-109 54 t-115 -37t-84 -96t-57 -122t-32 -119q-14 -74 -23 -163t-13 -182t-5 -184zM354 2096q-2 8 3 20t12 22t16 14t15 -2l50 -56q36 -36 55 -59t30 -36t18 -21t19 -16q4 -2 2 -10t-7 -18t-12 -19t-13 -13q-18 -6 -30 4t-22 22q-2 4 -14 19t-25 32t-26 32t-15 19q-2 2 -10 9t-17 16 t-16 17t-9 12q-2 2 -2 4q-2 2 -2 8z" />
<glyph unicode="&#xd3;" horiz-adv-x="808" d="M60 780v18t1 37t2 43t1 36q4 54 6 122t7 139t12 138t19 121q24 102 62 201t118 161l10 10t17 18t17 18t10 8l70 14h24q8 0 22 2q70 -2 120 -36t83 -86t51 -117t28 -130t13 -123t5 -98q0 -120 4 -259t-2 -278t-26 -269t-68 -232q-16 -42 -36 -82t-47 -72t-63 -55t-86 -31 q-82 4 -141 41t-100 96t-66 136t-38 161t-17 169t-2 161zM131 903q-1 -91 1 -167q2 -70 5 -152t18 -163t48 -156t93 -129q30 -28 58 -42t74 -16q36 0 61 18t45 42q44 54 72 125t45 149t27 157t20 151v506q2 14 1 37t-4 47t-6 46t-3 36q0 36 -11 104t-37 136t-69 120t-109 54 t-115 -37t-84 -96t-57 -122t-32 -119q-14 -74 -23 -163t-13 -182t-5 -184zM293 1984q-1 8 5 10q10 6 17 13l19 19t32 31t58 49l54 50q6 6 14 0t14 -16t9 -22t1 -18q-2 -4 -12 -13t-10 -11q-6 -4 -19 -17l-17 -17l-17 -17t-27 -28t-27 -28t-15 -17q-12 -10 -23 -18t-27 -2 q-6 6 -12 15t-11 19t-6 18z" />
<glyph unicode="&#xd4;" horiz-adv-x="808" d="M60 780v18t1 37t2 43t1 36q4 54 6 122t7 139t12 138t19 121q24 102 62 201t118 161l10 10t17 18t17 18t10 8l70 14h24q8 0 22 2q70 -2 120 -36t83 -86t51 -117t28 -130t13 -123t5 -98q0 -120 4 -259t-2 -278t-26 -269t-68 -232q-16 -42 -36 -82t-47 -72t-63 -55t-86 -31 q-82 4 -141 41t-100 96t-66 136t-38 161t-17 169t-2 161zM131 903q-1 -91 1 -167q2 -70 5 -152t18 -163t48 -156t93 -129q30 -28 58 -42t74 -16q36 0 61 18t45 42q44 54 72 125t45 149t27 157t20 151v506q2 14 1 37t-4 47t-6 46t-3 36q0 36 -11 104t-37 136t-69 120t-109 54 t-115 -37t-84 -96t-57 -122t-32 -119q-14 -74 -23 -163t-13 -182t-5 -184zM298 1926q36 78 66 140q24 52 45 95t23 45q8 10 11 11t13 3q16 2 27 -10t19 -31t13 -39t11 -32l8 -16t13 -27t13 -29t10 -20q2 -2 7 -11t11 -19t11 -19t5 -11q2 -2 2 -6q0 -8 2 -10q4 -16 -1 -20 t-19 -6q-10 -2 -18 -2t-14 12l-50 100q-10 16 -18 46t-24 46h-4q-2 -2 -4 -2q-2 -6 -10 -21t-17 -32t-17 -31t-10 -20q-8 -14 -14 -32t-14 -33t-19 -27t-25 -14q-26 -4 -32 22z" />
<glyph unicode="&#xd5;" horiz-adv-x="808" d="M50 1972q0 20 22 23t32 3q8 30 20 68t31 71t46 56t65 23q28 0 60 -15t42 -41l62 -128q8 -16 26 -25t34 -9q26 0 48 18t39 44t27 55t10 51v14q-2 4 5 19t7 17q-4 18 10 23t24 3q6 0 22 -2t32 -7t29 -13t13 -22q0 -12 -10 -18t-22 -9t-24 -3h-18q-22 -34 -36 -74t-33 -75 t-48 -59t-81 -24q-30 0 -56 11t-46 39q-2 6 -9 21t-14 32t-15 33t-10 22q-10 22 -26 38t-44 16q-20 0 -37 -14t-29 -35t-19 -43t-7 -40q0 -10 -1 -13t-2 -5t-2 -6t-1 -16q0 -26 -11 -29t-27 -3h-19t-26 2t-23 8t-10 18zM60 780v18t1 37t2 43t1 36q4 54 6 122t7 139t12 138 t19 121q24 102 62 201t118 161l10 10t17 18t17 18t10 8l70 14h24q8 0 22 2q70 -2 120 -36t83 -86t51 -117t28 -130t13 -123t5 -98q0 -120 4 -259t-2 -278t-26 -269t-68 -232q-16 -42 -36 -82t-47 -72t-63 -55t-86 -31q-82 4 -141 41t-100 96t-66 136t-38 161t-17 169t-2 161 zM131 903q-1 -91 1 -167q2 -70 5 -152t18 -163t48 -156t93 -129q30 -28 58 -42t74 -16q36 0 61 18t45 42q44 54 72 125t45 149t27 157t20 151v506q2 14 1 37t-4 47t-6 46t-3 36q0 36 -11 104t-37 136t-69 120t-109 54t-115 -37t-84 -96t-57 -122t-32 -119q-14 -74 -23 -163 t-13 -182t-5 -184z" />
<glyph unicode="&#xd6;" horiz-adv-x="808" d="M60 780v18t1 37t2 43t1 36q4 54 6 122t7 139t12 138t19 121q24 102 62 201t118 161l10 10t17 18t17 18t10 8l70 14h24q8 0 22 2q70 -2 120 -36t83 -86t51 -117t28 -130t13 -123t5 -98q0 -120 4 -259t-2 -278t-26 -269t-68 -232q-16 -42 -36 -82t-47 -72t-63 -55t-86 -31 q-82 4 -141 41t-100 96t-66 136t-38 161t-17 169t-2 161zM131 903q-1 -91 1 -167q2 -70 5 -152t18 -163t48 -156t93 -129q30 -28 58 -42t74 -16q36 0 61 18t45 42q44 54 72 125t45 149t27 157t20 151v506q2 14 1 37t-4 47t-6 46t-3 36q0 36 -11 104t-37 136t-69 120t-109 54 t-115 -37t-84 -96t-57 -122t-32 -119q-14 -74 -23 -163t-13 -182t-5 -184zM290 1990q0 24 11 52t49 28q26 0 46 -12t20 -42t-17 -58t-57 -28q-4 0 -13 1t-13 1q-20 14 -23 24t-3 34zM510 1990q0 24 11 52t49 28q26 0 46 -12t20 -42t-17 -58t-57 -28q-4 0 -13 1t-13 1 q-20 14 -23 24t-3 34z" />
<glyph unicode="&#xd8;" horiz-adv-x="808" d="M60 780v18t1 37t2 43t1 36q4 54 6 122t7 139t12 138t19 121q24 102 62 201t118 161l10 10t17 18t17 18t10 8l70 14h24q8 0 22 2q70 -2 120 -36t83 -86t51 -117t28 -130t13 -123t5 -98q0 -120 4 -259t-2 -278t-26 -269t-68 -232q-16 -42 -36 -82t-47 -72t-63 -55t-86 -31 q-82 4 -141 41t-100 96t-66 136t-38 161t-17 169t-2 161zM87 -13q0 27 16.5 54.5t27.5 50.5q5 9 12.5 37.5t15.5 59t15.5 57.5t12.5 38q4 21 16.5 65.5t29 100t34 116.5t34.5 117t30 100.5t20 65.5q2 8 15.5 47t30 83.5t30 83t15.5 47.5q9 25 14.5 51.5t20.5 49.5l151 468 q0 42 19 90.5t30 90.5l-71 -8q-15 0 -21 13.5t-6 23.5q0 7 3.5 25t14.5 18l138 -2l18 -17v-9q0 -4 1 -8t1 -7q0 -29 -5.5 -65t-14.5 -61l-300 -914q-18 -51 -29 -91l-26 -93q-18 -65 -30 -115.5t-25.5 -100t-28 -100t-32.5 -116.5q-4 -12 -13 -45t-19 -68.5t-21 -66 t-20 -39.5l25 5h8q18 0 27 -14t9 -29q0 -21 -15.5 -27t-36.5 -6t-43.5 3t-35.5 3q-18 0 -30 8.5t-12 29.5zM131 903q-1 -91 1 -167q2 -70 5 -152t18 -163t48 -156t93 -129q30 -28 58 -42t74 -16q36 0 61 18t45 42q44 54 72 125t45 149t27 157t20 151v506q2 14 1 37t-4 47 t-6 46t-3 36q0 36 -11 104t-37 136t-69 120t-109 54t-115 -37t-84 -96t-57 -122t-32 -119q-14 -74 -23 -163t-13 -182t-5 -184z" />
<glyph unicode="&#xd9;" horiz-adv-x="806" d="M65 1389q-1 237 29 473q2 10 20 18t28 8h4l64 -4q12 0 9 -22t-3 -36v-4q-22 -6 -28 -6t-9 2t-6 1t-19 -11q-22 -212 -25 -429t-3 -431v-82t2 -99t5 -99t9 -82q2 -10 4 -36t5 -53t6 -51t5 -30q0 -4 5 -27t11 -51t12 -55t12 -41q28 -82 63 -122t105 -40q38 -6 77 25t72 79 t57 103t30 95l20 242l1 16t2 34t2 34l1 16q2 54 4 118t3 120t2 93t1 39l2 32l-4 690q-4 22 6 48t40 24q38 0 34 -42q0 -8 -1 -25t-3 -35t-3 -35t-1 -25v-140q0 -8 -1 -37t-1 -62v-62v-37q0 -2 -1 -60t-2 -138t-3 -167t-2 -145v-16v-20v-29t1 -28t1 -19v-128q0 -66 -3 -120 t-5 -99t-2 -82t4 -71q4 -36 -3 -82t3 -86v-6v-6h4q2 0 2 1t2 1h20t22 2q10 2 13 -15t3 -25q0 -26 -4 -34t-14 -10t-26 0t-38 -4q-2 0 -14 1t-14 1q-10 0 -15 -3t-6 -5t0 1t1 15q0 20 -1 32t-3 22t-2 21t4 31v32q-2 14 0 38l4 48t3 41l1 17h-8q-8 -46 -32 -95t-58 -91 t-74 -69t-76 -29q-20 0 -38 -1t-40 5q-62 16 -105 74t-71 140t-43 180t-21 192t-7 178t-1 138q0 236 -1 473zM290 2086q-2 8 3 20t12 22t16 14t15 -2l50 -56q36 -36 55 -59t30 -36t18 -21t19 -16q4 -2 2 -10t-7 -18t-12 -19t-13 -13q-18 -6 -30 4t-22 22q-2 4 -14 19t-25 32 t-26 32t-15 19q-2 2 -10 9t-17 16t-16 17t-9 12q-2 2 -2 4q-2 2 -2 8z" />
<glyph unicode="&#xda;" horiz-adv-x="806" d="M65 1389q-1 237 29 473q2 10 20 18t28 8h4l64 -4q12 0 9 -22t-3 -36v-4q-22 -6 -28 -6t-9 2t-6 1t-19 -11q-22 -212 -25 -429t-3 -431v-82t2 -99t5 -99t9 -82q2 -10 4 -36t5 -53t6 -51t5 -30q0 -4 5 -27t11 -51t12 -55t12 -41q28 -82 63 -122t105 -40q38 -6 77 25t72 79 t57 103t30 95l20 242l1 16t2 34t2 34l1 16q2 54 4 118t3 120t2 93t1 39l2 32l-4 690q-4 22 6 48t40 24q38 0 34 -42q0 -8 -1 -25t-3 -35t-3 -35t-1 -25v-140q0 -8 -1 -37t-1 -62v-62v-37q0 -2 -1 -60t-2 -138t-3 -167t-2 -145v-16v-20v-29t1 -28t1 -19v-128q0 -66 -3 -120 t-5 -99t-2 -82t4 -71q4 -36 -3 -82t3 -86v-6v-6h4q2 0 2 1t2 1h20t22 2q10 2 13 -15t3 -25q0 -26 -4 -34t-14 -10t-26 0t-38 -4q-2 0 -14 1t-14 1q-10 0 -15 -3t-6 -5t0 1t1 15q0 20 -1 32t-3 22t-2 21t4 31v32q-2 14 0 38l4 48t3 41l1 17h-8q-8 -46 -32 -95t-58 -91 t-74 -69t-76 -29q-20 0 -38 -1t-40 5q-62 16 -105 74t-71 140t-43 180t-21 192t-7 178t-1 138q0 236 -1 473zM291 1984q-1 8 5 10q10 6 17 13l19 19t32 31t58 49l54 50q6 6 14 0t14 -16t9 -22t1 -18q-2 -4 -12 -13t-10 -11q-6 -4 -19 -17l-17 -17l-17 -17t-27 -28t-27 -28 t-15 -17q-12 -10 -23 -18t-27 -2q-6 6 -12 15t-11 19t-6 18z" />
<glyph unicode="&#xdb;" horiz-adv-x="806" d="M65 1389q-1 237 29 473q2 10 20 18t28 8h4l64 -4q12 0 9 -22t-3 -36v-4q-22 -6 -28 -6t-9 2t-6 1t-19 -11q-22 -212 -25 -429t-3 -431v-82t2 -99t5 -99t9 -82q2 -10 4 -36t5 -53t6 -51t5 -30q0 -4 5 -27t11 -51t12 -55t12 -41q28 -82 63 -122t105 -40q38 -6 77 25t72 79 t57 103t30 95l20 242l1 16t2 34t2 34l1 16q2 54 4 118t3 120t2 93t1 39l2 32l-4 690q-4 22 6 48t40 24q38 0 34 -42q0 -8 -1 -25t-3 -35t-3 -35t-1 -25v-140q0 -8 -1 -37t-1 -62v-62v-37q0 -2 -1 -60t-2 -138t-3 -167t-2 -145v-16v-20v-29t1 -28t1 -19v-128q0 -66 -3 -120 t-5 -99t-2 -82t4 -71q4 -36 -3 -82t3 -86v-6v-6h4q2 0 2 1t2 1h20t22 2q10 2 13 -15t3 -25q0 -26 -4 -34t-14 -10t-26 0t-38 -4q-2 0 -14 1t-14 1q-10 0 -15 -3t-6 -5t0 1t1 15q0 20 -1 32t-3 22t-2 21t4 31v32q-2 14 0 38l4 48t3 41l1 17h-8q-8 -46 -32 -95t-58 -91 t-74 -69t-76 -29q-20 0 -38 -1t-40 5q-62 16 -105 74t-71 140t-43 180t-21 192t-7 178t-1 138q0 236 -1 473zM246 1916q36 78 66 140q24 52 45 95t23 45q8 10 11 11t13 3q16 2 27 -10t19 -31t13 -39t11 -32l8 -16t13 -27t13 -29t10 -20q2 -2 7 -11t11 -19t11 -19t5 -11 q2 -2 2 -6q0 -8 2 -10q4 -16 -1 -20t-19 -6q-10 -2 -18 -2t-14 12l-50 100q-10 16 -18 46t-24 46h-4q-2 -2 -4 -2q-2 -6 -10 -21t-17 -32t-17 -31t-10 -20q-8 -14 -14 -32t-14 -33t-19 -27t-25 -14q-26 -4 -32 22z" />
<glyph unicode="&#xdc;" horiz-adv-x="806" d="M65 1389q-1 237 29 473q2 10 20 18t28 8h4l64 -4q12 0 9 -22t-3 -36v-4q-22 -6 -28 -6t-9 2t-6 1t-19 -11q-22 -212 -25 -429t-3 -431v-82t2 -99t5 -99t9 -82q2 -10 4 -36t5 -53t6 -51t5 -30q0 -4 5 -27t11 -51t12 -55t12 -41q28 -82 63 -122t105 -40q38 -6 77 25t72 79 t57 103t30 95l20 242l1 16t2 34t2 34l1 16q2 54 4 118t3 120t2 93t1 39l2 32l-4 690q-4 22 6 48t40 24q38 0 34 -42q0 -8 -1 -25t-3 -35t-3 -35t-1 -25v-140q0 -8 -1 -37t-1 -62v-62v-37q0 -2 -1 -60t-2 -138t-3 -167t-2 -145v-16v-20v-29t1 -28t1 -19v-128q0 -66 -3 -120 t-5 -99t-2 -82t4 -71q4 -36 -3 -82t3 -86v-6v-6h4q2 0 2 1t2 1h20t22 2q10 2 13 -15t3 -25q0 -26 -4 -34t-14 -10t-26 0t-38 -4q-2 0 -14 1t-14 1q-10 0 -15 -3t-6 -5t0 1t1 15q0 20 -1 32t-3 22t-2 21t4 31v32q-2 14 0 38l4 48t3 41l1 17h-8q-8 -46 -32 -95t-58 -91 t-74 -69t-76 -29q-20 0 -38 -1t-40 5q-62 16 -105 74t-71 140t-43 180t-21 192t-7 178t-1 138q0 236 -1 473zM280 1988q0 24 11 52t49 28q26 0 46 -12t20 -42t-17 -58t-57 -28q-4 0 -13 1t-13 1q-20 14 -23 24t-3 34zM500 1988q0 24 11 52t49 28q26 0 46 -12t20 -42t-17 -58 t-57 -28q-4 0 -13 1t-13 1q-20 14 -23 24t-3 34z" />
<glyph unicode="&#xdd;" horiz-adv-x="960" d="M42 1840q0 24 1 33t4 10t13 -1t28 0q14 0 14 1t16 -1h4h40q22 -4 32 -2t32 6h2h4q16 -10 15 -23t-3 -27q2 -12 -3 -14t-16 -1t-23 3t-20 -2q6 -46 31 -115t52 -137t50 -126t27 -84q8 -20 32 -72t50 -111t49 -112t33 -75l20 -62l100 -226h8q30 232 49 478t53 480q2 4 4 19 t4 32t3 33t1 20q0 6 4 23t8 36t7 36t3 23q4 10 17 8t17 -2t17 1t28 2t27 2t16 1h6q18 0 26 -14t8 -30q0 -6 -3 -14t-17 -8l-64 2q-2 0 -8 -6t-8 -10q-4 -6 -11 -31t-9 -31l-54 -556v-16l-62 -548q-2 -6 -8 -47t-14 -91t-14 -92t-6 -48q-2 -14 -6 -50t-9 -76t-8 -76t-5 -50 q6 -8 5 -23t-6 -29t-9 -26t-2 -14l-34 -12h-82l-6 4q-6 8 -10 30t26 38q14 0 18 -1t5 -2t4 1t17 10q2 4 5 26t7 28l40 338q0 4 1 22t1 28v72q-2 2 -6 14t-9 26t-9 25t-6 13q-62 110 -106 219t-94 227q-12 30 -25 62t-33 60q-56 140 -104 290t-104 298h-58q-8 0 -9 5t-1 9z M369 1984q-1 8 5 10q10 6 17 13l19 19t32 31t58 49l54 50q6 6 14 0t14 -16t9 -22t1 -18q-2 -4 -12 -13t-10 -11q-6 -4 -19 -17l-17 -17l-17 -17t-27 -28t-27 -28t-15 -17q-12 -10 -23 -18t-27 -2q-6 6 -12 15t-11 19t-6 18z" />
<glyph unicode="&#xde;" horiz-adv-x="776" d="M-2 -282q0 14 3 23t19 11q20 0 26 7t34 7v140q-4 94 -4 136t2 72t2 71t-6 133q10 20 7 41t-3 39l2 390l-2 20q-2 24 2 52t2 52q-2 34 -4 57t-2 57v53t1 106t2 105l1 48q0 2 -2 12t-3 20t-3 20t-2 12v15v30t1 30t1 15v14q0 4 -1 10t-1 8t-2 11t-3 20t-1 20v13l4 4 q6 6 8 10q0 2 8 5t10 3q4 -4 18 -2t14 -6l4 -606q0 -2 2 -4q4 -4 6 -4h4q8 14 32 61t63 98t94 92t125 45q22 0 56 -3t68 -19q44 -34 70 -89t40 -117t18 -125t6 -113q2 -12 2 -36v-26v-56t-1 -100t-1 -100v-54q-2 -72 -10 -139t-34 -122t-72 -99t-122 -70h-21t-35 -4h-22 q-30 -2 -65 11t-68 32t-62 42t-47 41l-4 12q-2 6 -2 12h-4l-8 -8q0 -6 1 -20t1 -29t1 -28t1 -19q0 -70 -1 -107t-2 -68t-3 -68t-4 -109l-8 -8q-4 0 -19 -1t-21 -3h-4l-72 4q-8 2 -9 9t-1 11zM136 402q2 -34 5 -77t7 -77q2 -26 33 -58t73 -60t85 -46t71 -18q90 4 139 47 t73 107t30 139t10 141q0 30 1 75t1 92v92t-2 77q-2 40 -6 98t-17 115t-36 104t-63 67q-8 -2 -33 3t-31 3q-64 -2 -116 -42t-93 -93t-70 -109t-47 -90q-2 -2 -5 -7t-1 -9q-6 -18 -7 -27t-1 -17t1 -19t1 -31q0 -10 -1 -62t-1 -113v-113v-62v-30z" />
<glyph unicode="&#xdf;" horiz-adv-x="838" d="M76 136q0 22 1 44t2 43t1 31q-4 72 -2 157t6 172t8 172t4 157v64t1 89t2 89t1 66v98q-2 4 -3 10t-1 10t1 15t1 13t1 8t1 10v98q0 48 4 115t26 127t68 101t130 37q30 -2 52 -5t42 -10t40 -18t44 -29q36 -24 73 -60t66 -79t47 -91t18 -96q0 -72 -26 -141t-70 -127 t-103 -103t-125 -71q8 -12 22 -19t30 -12t32 -9t28 -12q96 -56 176 -145t108 -209v-19t1 -29t1 -29v-19q-2 -130 -31 -229t-85 -161t-141 -80t-199 18q-22 22 -9 43t37 29q2 -6 28 -17t65 -13t83 12t84 58t69 125t35 213q0 92 -36 168t-98 134t-141 96t-163 50l-12 4t-9 10 t0 24t15 46q44 8 90 32t87 57t76 70t59 71q14 18 24 44t16 55t8 56t2 49q0 36 -23 81t-57 87t-72 73t-70 39q-16 4 -45 15t-47 11q-60 6 -93 -37t-48 -102t-17 -116t-2 -79q0 -4 -1 -20t-2 -37t-1 -42v-33v-129t6 -129q2 -40 4 -65t2 -39t-2 -20l-4 -12v-27t1 -49t1 -49v-27 q0 -68 -4 -153t-7 -172t-3 -172t6 -153v-32t1 -47t2 -47t1 -30l-6 -84q-8 -22 -8 -33t-1 -16t-8 -6t-29 -3q-16 -2 -24 -2t-6 14l4 180l-6 70q-4 12 -4 34z" />
<glyph unicode="&#xe0;" horiz-adv-x="828" d="M42 630q-2 38 0 70q0 16 3 48t6 67t7 68t10 51q16 58 34 123t49 119t81 91t130 41q42 2 75 -13t59 -38t48 -48t42 -43q8 14 7 39t0 48t9 40t32 19h4l20 -15t6 -15v-116l-6 -136l8 -204l2 -288q0 -12 2 -42t4 -61t3 -55t1 -26l4 -194q2 -14 0 -29t-1 -27t9 -21t32 -9 q10 0 19 -1t19 3q14 -2 25 -14t13 -24t-6 -24t-16 -18q-4 0 -14 -1t-14 -1h-24t-34 1t-32 4t-18 7q-26 38 -22 81t-4 85q-4 12 -4 36t1 50t2 47t1 25q-2 4 -2 23t1 42t1 42v23q-8 0 -10 2t-6 -8q-6 -52 -21 -131t-46 -152t-80 -127t-123 -58q-46 -2 -80 25t-70 55 q-24 18 -44 63t-35 98t-25 102t-12 77q-4 32 -8 70t-7 77t-5 77zM104 692q0 -66 3 -131t9 -125q4 -40 10 -72t16 -63t23 -62t29 -67q0 -2 5 -14t12 -24t15 -22t14 -10q26 -24 45 -38t53 -6q40 2 74 43t61 104t47 139t34 149t22 135t12 96q0 4 1 20t2 34t2 33t1 19t2 13t4 11 l-18 192q-2 2 -4 6t-4 6t-2 4q-4 6 -15 21t-13 17q-22 26 -39 52t-37 45t-43 31t-57 10q-62 -4 -102 -35t-66 -74t-42 -90t-28 -79q-2 -2 -4 -8t-2 -8q-12 -58 -16 -122t-4 -130zM260 1574q-2 8 3 20t12 22t16 14t15 -2l50 -56q36 -36 55 -59t30 -36t18 -21t19 -16 q4 -2 2 -10t-7 -18t-12 -19t-13 -13q-18 -6 -30 4t-22 22q-2 4 -14 19t-25 32t-26 32t-15 19q-2 2 -10 9t-17 16t-16 17t-9 12q-2 2 -2 4q-2 2 -2 8z" />
<glyph unicode="&#xe1;" horiz-adv-x="828" d="M42 630q-2 38 0 70q0 16 3 48t6 67t7 68t10 51q16 58 34 123t49 119t81 91t130 41q42 2 75 -13t59 -38t48 -48t42 -43q8 14 7 39t0 48t9 40t32 19h4l20 -15t6 -15v-116l-6 -136l8 -204l2 -288q0 -12 2 -42t4 -61t3 -55t1 -26l4 -194q2 -14 0 -29t-1 -27t9 -21t32 -9 q10 0 19 -1t19 3q14 -2 25 -14t13 -24t-6 -24t-16 -18q-4 0 -14 -1t-14 -1h-24t-34 1t-32 4t-18 7q-26 38 -22 81t-4 85q-4 12 -4 36t1 50t2 47t1 25q-2 4 -2 23t1 42t1 42v23q-8 0 -10 2t-6 -8q-6 -52 -21 -131t-46 -152t-80 -127t-123 -58q-46 -2 -80 25t-70 55 q-24 18 -44 63t-35 98t-25 102t-12 77q-4 32 -8 70t-7 77t-5 77zM104 692q0 -66 3 -131t9 -125q4 -40 10 -72t16 -63t23 -62t29 -67q0 -2 5 -14t12 -24t15 -22t14 -10q26 -24 45 -38t53 -6q40 2 74 43t61 104t47 139t34 149t22 135t12 96q0 4 1 20t2 34t2 33t1 19t2 13t4 11 l-18 192q-2 2 -4 6t-4 6t-2 4q-4 6 -15 21t-13 17q-22 26 -39 52t-37 45t-43 31t-57 10q-62 -4 -102 -35t-66 -74t-42 -90t-28 -79q-2 -2 -4 -8t-2 -8q-12 -58 -16 -122t-4 -130zM303 1410q-1 8 5 10q10 6 17 13l19 19t32 31t58 49l54 50q6 6 14 0t14 -16t9 -22t1 -18 q-2 -4 -12 -13t-10 -11q-6 -4 -19 -17l-17 -17l-17 -17t-27 -28t-27 -28t-15 -17q-12 -10 -23 -18t-27 -2q-6 6 -12 15t-11 19t-6 18z" />
<glyph unicode="&#xe2;" horiz-adv-x="828" d="M42 630q-2 38 0 70q0 16 3 48t6 67t7 68t10 51q16 58 34 123t49 119t81 91t130 41q42 2 75 -13t59 -38t48 -48t42 -43q8 14 7 39t0 48t9 40t32 19h4l20 -15t6 -15v-116l-6 -136l8 -204l2 -288q0 -12 2 -42t4 -61t3 -55t1 -26l4 -194q2 -14 0 -29t-1 -27t9 -21t32 -9 q10 0 19 -1t19 3q14 -2 25 -14t13 -24t-6 -24t-16 -18q-4 0 -14 -1t-14 -1h-24t-34 1t-32 4t-18 7q-26 38 -22 81t-4 85q-4 12 -4 36t1 50t2 47t1 25q-2 4 -2 23t1 42t1 42v23q-8 0 -10 2t-6 -8q-6 -52 -21 -131t-46 -152t-80 -127t-123 -58q-46 -2 -80 25t-70 55 q-24 18 -44 63t-35 98t-25 102t-12 77q-4 32 -8 70t-7 77t-5 77zM104 692q0 -66 3 -131t9 -125q4 -40 10 -72t16 -63t23 -62t29 -67q0 -2 5 -14t12 -24t15 -22t14 -10q26 -24 45 -38t53 -6q40 2 74 43t61 104t47 139t34 149t22 135t12 96q0 4 1 20t2 34t2 33t1 19t2 13t4 11 l-18 192q-2 2 -4 6t-4 6t-2 4q-4 6 -15 21t-13 17q-22 26 -39 52t-37 45t-43 31t-57 10q-62 -4 -102 -35t-66 -74t-42 -90t-28 -79q-2 -2 -4 -8t-2 -8q-12 -58 -16 -122t-4 -130zM204 1374q36 78 66 140q24 52 45 95t23 45q8 10 11 11t13 3q16 2 27 -10t19 -31t13 -39 t11 -32l8 -16t13 -27t13 -29t10 -20q2 -2 7 -11t11 -19t11 -19t5 -11q2 -2 2 -6q0 -8 2 -10q4 -16 -1 -20t-19 -6q-10 -2 -18 -2t-14 12l-50 100q-10 16 -18 46t-24 46h-4q-2 -2 -4 -2q-2 -6 -10 -21t-17 -32t-17 -31t-10 -20q-8 -14 -14 -32t-14 -33t-19 -27t-25 -14 q-26 -4 -32 22z" />
<glyph unicode="&#xe3;" horiz-adv-x="828" d="M42 630q-2 38 0 70q0 16 3 48t6 67t7 68t10 51q16 58 34 123t49 119t81 91t130 41q42 2 75 -13t59 -38t48 -48t42 -43q8 14 7 39t0 48t9 40t32 19h4l20 -15t6 -15v-116l-6 -136l8 -204l2 -288q0 -12 2 -42t4 -61t3 -55t1 -26l4 -194q2 -14 0 -29t-1 -27t9 -21t32 -9 q10 0 19 -1t19 3q14 -2 25 -14t13 -24t-6 -24t-16 -18q-4 0 -14 -1t-14 -1h-24t-34 1t-32 4t-18 7q-26 38 -22 81t-4 85q-4 12 -4 36t1 50t2 47t1 25q-2 4 -2 23t1 42t1 42v23q-8 0 -10 2t-6 -8q-6 -52 -21 -131t-46 -152t-80 -127t-123 -58q-46 -2 -80 25t-70 55 q-24 18 -44 63t-35 98t-25 102t-12 77q-4 32 -8 70t-7 77t-5 77zM60 1398q0 20 22 23t32 3q8 30 20 68t31 71t46 56t65 23q28 0 60 -15t42 -41l62 -128q8 -16 26 -25t34 -9q26 0 48 18t39 44t27 55t10 51v14q-2 4 5 19t7 17q-4 18 10 23t24 3q6 0 22 -2t32 -7t29 -13t13 -22 q0 -12 -10 -18t-22 -9t-24 -3h-18q-22 -34 -36 -74t-33 -75t-48 -59t-81 -24q-30 0 -56 11t-46 39q-2 6 -9 21t-14 32t-15 33t-10 22q-10 22 -26 38t-44 16q-20 0 -37 -14t-29 -35t-19 -43t-7 -40q0 -10 -1 -13t-2 -5t-2 -6t-1 -16q0 -26 -11 -29t-27 -3h-19t-26 2t-23 8 t-10 18zM104 692q0 -66 3 -131t9 -125q4 -40 10 -72t16 -63t23 -62t29 -67q0 -2 5 -14t12 -24t15 -22t14 -10q26 -24 45 -38t53 -6q40 2 74 43t61 104t47 139t34 149t22 135t12 96q0 4 1 20t2 34t2 33t1 19t2 13t4 11l-18 192q-2 2 -4 6t-4 6t-2 4q-4 6 -15 21t-13 17 q-22 26 -39 52t-37 45t-43 31t-57 10q-62 -4 -102 -35t-66 -74t-42 -90t-28 -79q-2 -2 -4 -8t-2 -8q-12 -58 -16 -122t-4 -130z" />
<glyph unicode="&#xe4;" horiz-adv-x="828" d="M42 630q-2 38 0 70q0 16 3 48t6 67t7 68t10 51q16 58 34 123t49 119t81 91t130 41q42 2 75 -13t59 -38t48 -48t42 -43q8 14 7 39t0 48t9 40t32 19h4l20 -15t6 -15v-116l-6 -136l8 -204l2 -288q0 -12 2 -42t4 -61t3 -55t1 -26l4 -194q2 -14 0 -29t-1 -27t9 -21t32 -9 q10 0 19 -1t19 3q14 -2 25 -14t13 -24t-6 -24t-16 -18q-4 0 -14 -1t-14 -1h-24t-34 1t-32 4t-18 7q-26 38 -22 81t-4 85q-4 12 -4 36t1 50t2 47t1 25q-2 4 -2 23t1 42t1 42v23q-8 0 -10 2t-6 -8q-6 -52 -21 -131t-46 -152t-80 -127t-123 -58q-46 -2 -80 25t-70 55 q-24 18 -44 63t-35 98t-25 102t-12 77q-4 32 -8 70t-7 77t-5 77zM104 692q0 -66 3 -131t9 -125q4 -40 10 -72t16 -63t23 -62t29 -67q0 -2 5 -14t12 -24t15 -22t14 -10q26 -24 45 -38t53 -6q40 2 74 43t61 104t47 139t34 149t22 135t12 96q0 4 1 20t2 34t2 33t1 19t2 13t4 11 l-18 192q-2 2 -4 6t-4 6t-2 4q-4 6 -15 21t-13 17q-22 26 -39 52t-37 45t-43 31t-57 10q-62 -4 -102 -35t-66 -74t-42 -90t-28 -79q-2 -2 -4 -8t-2 -8q-12 -58 -16 -122t-4 -130zM208 1434q0 24 11 52t49 28q26 0 46 -12t20 -42t-17 -58t-57 -28q-4 0 -13 1t-13 1 q-20 14 -23 24t-3 34zM428 1434q0 24 11 52t49 28q26 0 46 -12t20 -42t-17 -58t-57 -28q-4 0 -13 1t-13 1q-20 14 -23 24t-3 34z" />
<glyph unicode="&#xe5;" horiz-adv-x="828" d="M42 630q-2 38 0 70q0 16 3 48t6 67t7 68t10 51q16 58 34 123t49 119t81 91t130 41q42 2 75 -13t59 -38t48 -48t42 -43q8 14 7 39t0 48t9 40t32 19h4l20 -15t6 -15v-116l-6 -136l8 -204l2 -288q0 -12 2 -42t4 -61t3 -55t1 -26l4 -194q2 -14 0 -29t-1 -27t9 -21t32 -9 q10 0 19 -1t19 3q14 -2 25 -14t13 -24t-6 -24t-16 -18q-4 0 -14 -1t-14 -1h-24t-34 1t-32 4t-18 7q-26 38 -22 81t-4 85q-4 12 -4 36t1 50t2 47t1 25q-2 4 -2 23t1 42t1 42v23q-8 0 -10 2t-6 -8q-6 -52 -21 -131t-46 -152t-80 -127t-123 -58q-46 -2 -80 25t-70 55 q-24 18 -44 63t-35 98t-25 102t-12 77q-4 32 -8 70t-7 77t-5 77zM104 692q0 -66 3 -131t9 -125q4 -40 10 -72t16 -63t23 -62t29 -67q0 -2 5 -14t12 -24t15 -22t14 -10q26 -24 45 -38t53 -6q40 2 74 43t61 104t47 139t34 149t22 135t12 96q0 4 1 20t2 34t2 33t1 19t2 13t4 11 l-18 192q-2 2 -4 6t-4 6t-2 4q-4 6 -15 21t-13 17q-22 26 -39 52t-37 45t-43 31t-57 10q-62 -4 -102 -35t-66 -74t-42 -90t-28 -79q-2 -2 -4 -8t-2 -8q-12 -58 -16 -122t-4 -130zM252 1444q0 20 6 49t18 55t32 44t48 18h102q4 0 21 -11t27 -17q2 -2 13 -10t19 -23t9 -38 t-15 -59q0 -24 -16 -42t-39 -30t-47 -18t-40 -6q-20 0 -44 4t-45 14t-35 27t-14 43zM314 1476q0 -28 19 -44t47 -16q34 0 66 23t32 61q0 4 -4 14t-8 14q-8 4 -35 11t-35 11h-12q-22 0 -46 -25t-24 -49z" />
<glyph unicode="&#xe6;" horiz-adv-x="1104" d="M42 630q-2 38 0 70q0 16 3 48t6 67t7 68t10 51q16 58 36 114t51 106t81 89t126 65q34 12 72 2t73 -31t61 -49t38 -54q26 32 62 62q24 12 50 15t54 3q54 0 95 -29t72 -78t51 -109t32 -121t18 -117t8 -94q0 -8 1 -26t1 -39t1 -39t1 -24q-4 -8 -22 -14t-40 -11t-41 -7 t-27 -2q-16 0 -33 4t-33 4q-46 0 -88 -4t-86 -4q-32 -2 -62 2t-60 4h-56q-8 -4 -8 -8v-8q-2 -88 11 -168t37 -146t60 -116t78 -80q18 -12 48 -14t52 -2q56 0 94 25t62 64t33 87t7 96q0 6 -2 19t-2 15l-8 8q-10 -2 -30 1t-30 5q-2 0 -14 6t-18 10l-8 8v4q-4 30 22 44 q8 0 18 -2t18 -2t27 1t39 -1t36 -10t18 -24q2 -6 2 -26v-26q2 -46 -8 -76t-18 -70q0 -4 -2 -14t-4 -22t-4 -23t-2 -13q-6 -16 -18 -26t-20 -22q-34 -46 -71 -67t-97 -21q-66 0 -111 10t-77 33t-55 57t-43 80q-32 -64 -78 -106t-110 -46q-46 -2 -80 25t-70 55q-24 18 -44 63 t-35 98t-25 102t-12 77q-4 32 -8 70t-7 77t-5 77zM104 692q0 -66 3 -131t9 -125q4 -40 10 -72t16 -63t23 -62t29 -67q0 -2 5 -14t12 -24t15 -22t14 -10q26 -24 45 -38t53 -6q44 2 78 46t62 114q-6 14 -10 33t-10 45q-18 60 -21 133t-5 137q-10 12 -18 24t-8 28q-2 14 2 20 t20 16q10 134 40 247t88 205q-20 54 -44 82t-48 40t-49 12t-47 -2q-62 -4 -102 -35t-66 -74t-42 -90t-28 -79q-2 -2 -4 -8t-2 -8q-12 -58 -16 -122t-4 -130zM500 624q62 -10 123 -14t125 -2q58 0 103 1t105 11q4 0 20 7t18 17l2 174q-8 12 -9 18t0 11t2 12t-3 23 q-10 36 -27 89t-43 102t-61 84t-79 35q-58 0 -97 -32t-67 -82q-30 -52 -51 -110t-35 -117t-20 -118t-6 -109z" />
<glyph unicode="&#xe7;" horiz-adv-x="762" d="M54 764q10 38 30 109t45 146t55 139t60 88q46 34 109 45t119 11q22 0 41 -8t37 -17t36 -16t40 -7v6q-2 0 -2 12v14v4q-2 12 8 23t22 11h14t12 -8q0 -70 4 -118t8 -112q2 -14 -9 -36t-27 -22q-4 0 -13 6t-13 10q-4 98 -57 146t-143 48q-82 0 -133 -40t-83 -101t-52 -133 t-38 -136q-6 -36 -9 -82t-3 -94t1 -94t5 -80q0 -8 5 -31t10 -50t10 -51t9 -36q8 -32 24 -73t41 -78t58 -62t77 -25q56 0 105 36t89 89t70 111t48 102q2 4 11 9t11 7h4q22 0 26 -20t6 -36q2 -30 -14 -51t-28 -43q-26 -44 -58 -92t-73 -89t-90 -68t-107 -27q-78 0 -131 55 t-88 130t-52 155t-19 130q-4 78 -6 144t-2 150zM274 -238q0 8 13 19t29 11l6 -18q2 -4 2 -6t2 -6q4 -16 10 -34t20 -33t36 -25t60 -10q22 -4 39 15t26 48t9 64t-8 64t-26 46t-46 11q-6 -2 -13 -2t-11 -2q-22 -4 -48 -6t-54 -2q-4 0 -12 4l-12 6t-6 27t-2 55t1 57t-1 33 l52 -6q0 -28 2 -52t6 -42q2 -10 4 -11t6 -1q18 0 32 2t36 4q6 0 13 1t15 1q38 4 67 -20t47 -63t23 -86t-8 -91t-45 -78t-86 -44q-36 -2 -68 13t-56 39t-39 56t-15 62z" />
<glyph unicode="&#xe8;" horiz-adv-x="758" d="M40 660q-2 14 2 20t20 16q16 188 69 335t171 249q24 12 50 15t54 3q54 0 95 -29t72 -78t51 -109t32 -121t18 -117t8 -94q0 -8 1 -26t1 -39t1 -39t1 -24q-4 -8 -22 -14t-40 -11t-41 -7t-27 -2q-16 0 -33 4t-33 4q-46 0 -88 -4t-86 -4q-32 -2 -62 2t-60 4h-56q-8 -4 -8 -8 v-8q-2 -88 11 -168t37 -146t60 -116t78 -80q18 -12 48 -14t52 -2q56 0 94 25t62 64t33 87t7 96q0 6 -2 19t-2 15l-8 8q-10 -2 -30 1t-30 5q-2 0 -14 6t-18 10l-8 8v4q-4 30 22 44q8 0 18 -2t18 -2t27 1t39 -1t36 -10t18 -24q2 -6 2 -26v-26q2 -46 -8 -76t-18 -70 q0 -4 -2 -14t-4 -22t-4 -23t-2 -13q-6 -16 -18 -26t-20 -22q-34 -46 -71 -67t-97 -21q-76 0 -124 14t-81 44t-56 74t-47 104q-14 12 -20 37t-16 65q-18 60 -21 133t-5 137q-10 12 -18 24t-8 28zM134 666q62 -10 123 -14t125 -2q58 0 103 1t105 11q4 0 20 7t18 17l2 174 q-8 12 -9 18t0 11t2 12t-3 23q-10 36 -27 89t-43 102t-61 84t-79 35q-58 0 -97 -32t-67 -82q-30 -52 -51 -110t-35 -117t-20 -118t-6 -109zM286 1572q-2 8 3 20t12 22t16 14t15 -2l50 -56q36 -36 55 -59t30 -36t18 -21t19 -16q4 -2 2 -10t-7 -18t-12 -19t-13 -13 q-18 -6 -30 4t-22 22q-2 4 -14 19t-25 32t-26 32t-15 19q-2 2 -10 9t-17 16t-16 17t-9 12q-2 2 -2 4q-2 2 -2 8z" />
<glyph unicode="&#xe9;" horiz-adv-x="758" d="M40 660q-2 14 2 20t20 16q16 188 69 335t171 249q24 12 50 15t54 3q54 0 95 -29t72 -78t51 -109t32 -121t18 -117t8 -94q0 -8 1 -26t1 -39t1 -39t1 -24q-4 -8 -22 -14t-40 -11t-41 -7t-27 -2q-16 0 -33 4t-33 4q-46 0 -88 -4t-86 -4q-32 -2 -62 2t-60 4h-56q-8 -4 -8 -8 v-8q-2 -88 11 -168t37 -146t60 -116t78 -80q18 -12 48 -14t52 -2q56 0 94 25t62 64t33 87t7 96q0 6 -2 19t-2 15l-8 8q-10 -2 -30 1t-30 5q-2 0 -14 6t-18 10l-8 8v4q-4 30 22 44q8 0 18 -2t18 -2t27 1t39 -1t36 -10t18 -24q2 -6 2 -26v-26q2 -46 -8 -76t-18 -70 q0 -4 -2 -14t-4 -22t-4 -23t-2 -13q-6 -16 -18 -26t-20 -22q-34 -46 -71 -67t-97 -21q-76 0 -124 14t-81 44t-56 74t-47 104q-14 12 -20 37t-16 65q-18 60 -21 133t-5 137q-10 12 -18 24t-8 28zM134 666q62 -10 123 -14t125 -2q58 0 103 1t105 11q4 0 20 7t18 17l2 174 q-8 12 -9 18t0 11t2 12t-3 23q-10 36 -27 89t-43 102t-61 84t-79 35q-58 0 -97 -32t-67 -82q-30 -52 -51 -110t-35 -117t-20 -118t-6 -109zM299 1482q-1 8 5 10q10 6 17 13l19 19t32 31t58 49l54 50q6 6 14 0t14 -16t9 -22t1 -18q-2 -4 -12 -13t-10 -11q-6 -4 -19 -17 l-17 -17l-17 -17t-27 -28t-27 -28t-15 -17q-12 -10 -23 -18t-27 -2q-6 6 -12 15t-11 19t-6 18z" />
<glyph unicode="&#xea;" horiz-adv-x="758" d="M40 660q-2 14 2 20t20 16q16 188 69 335t171 249q24 12 50 15t54 3q54 0 95 -29t72 -78t51 -109t32 -121t18 -117t8 -94q0 -8 1 -26t1 -39t1 -39t1 -24q-4 -8 -22 -14t-40 -11t-41 -7t-27 -2q-16 0 -33 4t-33 4q-46 0 -88 -4t-86 -4q-32 -2 -62 2t-60 4h-56q-8 -4 -8 -8 v-8q-2 -88 11 -168t37 -146t60 -116t78 -80q18 -12 48 -14t52 -2q56 0 94 25t62 64t33 87t7 96q0 6 -2 19t-2 15l-8 8q-10 -2 -30 1t-30 5q-2 0 -14 6t-18 10l-8 8v4q-4 30 22 44q8 0 18 -2t18 -2t27 1t39 -1t36 -10t18 -24q2 -6 2 -26v-26q2 -46 -8 -76t-18 -70 q0 -4 -2 -14t-4 -22t-4 -23t-2 -13q-6 -16 -18 -26t-20 -22q-34 -46 -71 -67t-97 -21q-76 0 -124 14t-81 44t-56 74t-47 104q-14 12 -20 37t-16 65q-18 60 -21 133t-5 137q-10 12 -18 24t-8 28zM134 666q62 -10 123 -14t125 -2q58 0 103 1t105 11q4 0 20 7t18 17l2 174 q-8 12 -9 18t0 11t2 12t-3 23q-10 36 -27 89t-43 102t-61 84t-79 35q-58 0 -97 -32t-67 -82q-30 -52 -51 -110t-35 -117t-20 -118t-6 -109zM222 1342q36 78 66 140q24 52 45 95t23 45q8 10 11 11t13 3q16 2 27 -10t19 -31t13 -39t11 -32l8 -16t13 -27t13 -29t10 -20 q2 -2 7 -11t11 -19t11 -19t5 -11q2 -2 2 -6q0 -8 2 -10q4 -16 -1 -20t-19 -6q-10 -2 -18 -2t-14 12l-50 100q-10 16 -18 46t-24 46h-4q-2 -2 -4 -2q-2 -6 -10 -21t-17 -32t-17 -31t-10 -20q-8 -14 -14 -32t-14 -33t-19 -27t-25 -14q-26 -4 -32 22z" />
<glyph unicode="&#xeb;" horiz-adv-x="758" d="M40 660q-2 14 2 20t20 16q16 188 69 335t171 249q24 12 50 15t54 3q54 0 95 -29t72 -78t51 -109t32 -121t18 -117t8 -94q0 -8 1 -26t1 -39t1 -39t1 -24q-4 -8 -22 -14t-40 -11t-41 -7t-27 -2q-16 0 -33 4t-33 4q-46 0 -88 -4t-86 -4q-32 -2 -62 2t-60 4h-56q-8 -4 -8 -8 v-8q-2 -88 11 -168t37 -146t60 -116t78 -80q18 -12 48 -14t52 -2q56 0 94 25t62 64t33 87t7 96q0 6 -2 19t-2 15l-8 8q-10 -2 -30 1t-30 5q-2 0 -14 6t-18 10l-8 8v4q-4 30 22 44q8 0 18 -2t18 -2t27 1t39 -1t36 -10t18 -24q2 -6 2 -26v-26q2 -46 -8 -76t-18 -70 q0 -4 -2 -14t-4 -22t-4 -23t-2 -13q-6 -16 -18 -26t-20 -22q-34 -46 -71 -67t-97 -21q-76 0 -124 14t-81 44t-56 74t-47 104q-14 12 -20 37t-16 65q-18 60 -21 133t-5 137q-10 12 -18 24t-8 28zM134 666q62 -10 123 -14t125 -2q58 0 103 1t105 11q4 0 20 7t18 17l2 174 q-8 12 -9 18t0 11t2 12t-3 23q-10 36 -27 89t-43 102t-61 84t-79 35q-58 0 -97 -32t-67 -82q-30 -52 -51 -110t-35 -117t-20 -118t-6 -109zM226 1446q0 24 11 52t49 28q26 0 46 -12t20 -42t-17 -58t-57 -28q-4 0 -13 1t-13 1q-20 14 -23 24t-3 34zM446 1446q0 24 11 52 t49 28q26 0 46 -12t20 -42t-17 -58t-57 -28q-4 0 -13 1t-13 1q-20 14 -23 24t-3 34z" />
<glyph unicode="&#xec;" horiz-adv-x="304" d="M42 1512q-2 8 3 20t12 22t16 14t15 -2l50 -56q36 -36 55 -59t30 -36t18 -21t19 -16q4 -2 2 -10t-7 -18t-12 -19t-13 -13q-18 -6 -30 4t-22 22q-2 4 -14 19t-25 32t-26 32t-15 19q-2 2 -10 9t-17 16t-16 17t-9 12q-2 2 -2 4q-2 2 -2 8zM46 1244l4 40q16 -6 26 -1t26 5h44 q10 0 17 -3t11 -13q6 -46 7 -76t1 -76q0 -70 -1 -148t-3 -152t-3 -136t3 -102l-2 -478q0 -24 5 -37t15 -3h22q40 0 40 -28q0 -8 -3 -18t-15 -10l-96 -8q-16 0 -23 15t-9 25v41t-1 62t-1 63v42q4 86 2 233t8 311l6 352q0 22 -1 41t-11 35q2 0 -4 6q-2 2 -4 6h-52z" />
<glyph unicode="&#xed;" horiz-adv-x="304" d="M43 1410q-1 8 5 10q10 6 17 13l19 19t32 31t58 49l54 50q6 6 14 0t14 -16t9 -22t1 -18q-2 -4 -12 -13t-10 -11q-6 -4 -19 -17l-17 -17l-17 -17t-27 -28t-27 -28t-15 -17q-12 -10 -23 -18t-27 -2q-6 6 -12 15t-11 19t-6 18zM46 1244l4 40q16 -6 26 -1t26 5h44q10 0 17 -3 t11 -13q6 -46 7 -76t1 -76q0 -70 -1 -148t-3 -152t-3 -136t3 -102l-2 -478q0 -24 5 -37t15 -3h22q40 0 40 -28q0 -8 -3 -18t-15 -10l-96 -8q-16 0 -23 15t-9 25v41t-1 62t-1 63v42q4 86 2 233t8 311l6 352q0 22 -1 41t-11 35q2 0 -4 6q-2 2 -4 6h-52z" />
<glyph unicode="&#xee;" horiz-adv-x="304" d="M-2 1342q36 78 66 140q24 52 45 95t23 45q8 10 11 11t13 3q16 2 27 -10t19 -31t13 -39t11 -32l8 -16t13 -27t13 -29t10 -20q2 -2 7 -11t11 -19t11 -19t5 -11q2 -2 2 -6q0 -8 2 -10q4 -16 -1 -20t-19 -6q-10 -2 -18 -2t-14 12l-50 100q-10 16 -18 46t-24 46h-4 q-2 -2 -4 -2q-2 -6 -10 -21t-17 -32t-17 -31t-10 -20q-8 -14 -14 -32t-14 -33t-19 -27t-25 -14q-26 -4 -32 22zM46 1244l4 40q16 -6 26 -1t26 5h44q10 0 17 -3t11 -13q6 -46 7 -76t1 -76q0 -70 -1 -148t-3 -152t-3 -136t3 -102l-2 -478q0 -24 5 -37t15 -3h22q40 0 40 -28 q0 -8 -3 -18t-15 -10l-96 -8q-16 0 -23 15t-9 25v41t-1 62t-1 63v42q4 86 2 233t8 311l6 352q0 22 -1 41t-11 35q2 0 -4 6q-2 2 -4 6h-52z" />
<glyph unicode="&#xef;" horiz-adv-x="304" d="M-18 1394q0 24 11 52t49 28q26 0 46 -12t20 -42t-17 -58t-57 -28q-4 0 -13 1t-13 1q-20 14 -23 24t-3 34zM46 1244l4 40q16 -6 26 -1t26 5h44q10 0 17 -3t11 -13q6 -46 7 -76t1 -76q0 -70 -1 -148t-3 -152t-3 -136t3 -102l-2 -478q0 -24 5 -37t15 -3h22q40 0 40 -28 q0 -8 -3 -18t-15 -10l-96 -8q-16 0 -23 15t-9 25v41t-1 62t-1 63v42q4 86 2 233t8 311l6 352q0 22 -1 41t-11 35q2 0 -4 6q-2 2 -4 6h-52zM202 1394q0 24 11 52t49 28q26 0 46 -12t20 -42t-17 -58t-57 -28q-4 0 -13 1t-13 1q-20 14 -23 24t-3 34z" />
<glyph unicode="&#xf1;" horiz-adv-x="890" d="M52 1267q2 19 0 29l88 4q2 0 16 1t16 -9q2 -12 1 -49t-2 -80t-2 -80t1 -47q-6 -12 -8 -22t-1 -17t7 -9q28 28 56 71t52 75q20 24 54 52t73 51t79 39t74 16q10 0 28 -1t37 -4t36 -10t25 -17q30 -36 48 -84t28 -100t15 -103t5 -93q2 -72 -2 -142t-2 -142q2 -116 3 -242 t-3 -242q2 -4 5 -16t3 -16l8 -8l36 -8q12 0 18 -15t6 -23q2 -16 -3 -19t-23 -3h-10q-4 0 -19 -2t-19 -2q-16 6 -26 5t-17 2t-10 15t-3 42q-2 44 0 87t0 87q-2 78 -1 135t-1 135q0 8 -1 27t-1 41v41v27q2 6 2 25v41t-1 41t-1 25v29t-1 50t-2 50t-1 29q-2 20 -7 67t-17 96 t-31 87t-47 38h-120q-2 0 -14 -6t-18 -10q-46 -30 -82 -56t-66 -72q-12 -18 -33 -48t-42 -58t-36 -50l-15 -22l-14 -8l-1 -56t-1 -135t1 -163t3 -140v-34t1 -61t2 -61t1 -34q0 -12 -1 -43t-2 -66t-1 -65v-42h-20h-19t-17 8q0 4 -1 18t-1 18q-2 78 -2 150t4 142q-6 20 -4 43 t0 39q0 46 -1 82t-1 84v18v34t-1 36t-1 24q-2 2 -6 15t-4 17v2v6q0 4 2 23t5 42t6 42t3 25v8v8q0 6 -1 29t-1 48v48v29l-2 212q-4 0 -8 2l-8 4h-34q-10 0 -8 19zM132 1440q0 20 22 23t32 3q8 30 20 68t31 71t46 56t65 23q28 0 60 -15t42 -41l62 -128q8 -16 26 -25t34 -9 q26 0 48 18t39 44t27 55t10 51v14q-2 4 5 19t7 17q-4 18 10 23t24 3q6 0 22 -2t32 -7t29 -13t13 -22q0 -12 -10 -18t-22 -9t-24 -3h-18q-22 -34 -36 -74t-33 -75t-48 -59t-81 -24q-30 0 -56 11t-46 39q-2 6 -9 21t-14 32t-15 33t-10 22q-10 22 -26 38t-44 16q-20 0 -37 -14 t-29 -35t-19 -43t-7 -40q0 -10 -1 -13t-2 -5t-2 -6t-1 -16q0 -26 -11 -29t-27 -3h-19t-26 2t-23 8t-10 18z" />
<glyph unicode="&#xf2;" horiz-adv-x="760" d="M53 578q-1 66 3 108q-2 132 11 241t73 213q2 2 16 19t30 37t31 37t17 21q30 16 53 27t46 16t52 6t71 -1q42 -10 74 -36t57 -62t44 -78t37 -82q0 -10 4 -28t9 -38t9 -39t6 -27q2 -16 4 -42t3 -54t1 -54v-42q2 -94 0 -198t-24 -190q-12 -46 -24 -90t-46 -108 q-22 -36 -45 -63t-54 -43t-75 -21t-108 1q-62 4 -108 43t-78 101t-51 137t-28 149t-10 140zM116 732q2 -22 3 -73t1 -108t1 -109t3 -74q6 -36 20 -86t37 -96t57 -80t82 -36q10 -2 28 -2t38 1t38 4t28 7q58 36 90 76t49 84t26 94t23 104q6 22 8 55t2 69t-1 69t-1 55 q0 6 -2 24t-3 37t-3 37t-2 24q-10 24 -10 40v36q-2 4 -2 8v14q-2 8 -2 20q0 2 -1 12t-3 23t-3 23t-1 12q-12 36 -23 75t-30 74t-48 61t-75 36q-94 10 -156 -37t-100 -123t-54 -165t-14 -161v-24zM278 1564q-2 8 3 20t12 22t16 14t15 -2l50 -56q36 -36 55 -59t30 -36t18 -21 t19 -16q4 -2 2 -10t-7 -18t-12 -19t-13 -13q-18 -6 -30 4t-22 22q-2 4 -14 19t-25 32t-26 32t-15 19q-2 2 -10 9t-17 16t-16 17t-9 12q-2 2 -2 4q-2 2 -2 8z" />
<glyph unicode="&#xf3;" horiz-adv-x="760" d="M53 578q-1 66 3 108q-2 132 11 241t73 213q2 2 16 19t30 37t31 37t17 21q30 16 53 27t46 16t52 6t71 -1q42 -10 74 -36t57 -62t44 -78t37 -82q0 -10 4 -28t9 -38t9 -39t6 -27q2 -16 4 -42t3 -54t1 -54v-42q2 -94 0 -198t-24 -190q-12 -46 -24 -90t-46 -108 q-22 -36 -45 -63t-54 -43t-75 -21t-108 1q-62 4 -108 43t-78 101t-51 137t-28 149t-10 140zM116 732q2 -22 3 -73t1 -108t1 -109t3 -74q6 -36 20 -86t37 -96t57 -80t82 -36q10 -2 28 -2t38 1t38 4t28 7q58 36 90 76t49 84t26 94t23 104q6 22 8 55t2 69t-1 69t-1 55 q0 6 -2 24t-3 37t-3 37t-2 24q-10 24 -10 40v36q-2 4 -2 8v14q-2 8 -2 20q0 2 -1 12t-3 23t-3 23t-1 12q-12 36 -23 75t-30 74t-48 61t-75 36q-94 10 -156 -37t-100 -123t-54 -165t-14 -161v-24zM269 1410q-1 8 5 10q10 6 17 13l19 19t32 31t58 49l54 50q6 6 14 0t14 -16 t9 -22t1 -18q-2 -4 -12 -13t-10 -11q-6 -4 -19 -17l-17 -17l-17 -17t-27 -28t-27 -28t-15 -17q-12 -10 -23 -18t-27 -2q-6 6 -12 15t-11 19t-6 18z" />
<glyph unicode="&#xf4;" horiz-adv-x="760" d="M53 578q-1 66 3 108q-2 132 11 241t73 213q2 2 16 19t30 37t31 37t17 21q30 16 53 27t46 16t52 6t71 -1q42 -10 74 -36t57 -62t44 -78t37 -82q0 -10 4 -28t9 -38t9 -39t6 -27q2 -16 4 -42t3 -54t1 -54v-42q2 -94 0 -198t-24 -190q-12 -46 -24 -90t-46 -108 q-22 -36 -45 -63t-54 -43t-75 -21t-108 1q-62 4 -108 43t-78 101t-51 137t-28 149t-10 140zM116 732q2 -22 3 -73t1 -108t1 -109t3 -74q6 -36 20 -86t37 -96t57 -80t82 -36q10 -2 28 -2t38 1t38 4t28 7q58 36 90 76t49 84t26 94t23 104q6 22 8 55t2 69t-1 69t-1 55 q0 6 -2 24t-3 37t-3 37t-2 24q-10 24 -10 40v36q-2 4 -2 8v14q-2 8 -2 20q0 2 -1 12t-3 23t-3 23t-1 12q-12 36 -23 75t-30 74t-48 61t-75 36q-94 10 -156 -37t-100 -123t-54 -165t-14 -161v-24zM222 1342q36 78 66 140q24 52 45 95t23 45q8 10 11 11t13 3q16 2 27 -10 t19 -31t13 -39t11 -32l8 -16t13 -27t13 -29t10 -20q2 -2 7 -11t11 -19t11 -19t5 -11q2 -2 2 -6q0 -8 2 -10q4 -16 -1 -20t-19 -6q-10 -2 -18 -2t-14 12l-50 100q-10 16 -18 46t-24 46h-4q-2 -2 -4 -2q-2 -6 -10 -21t-17 -32t-17 -31t-10 -20q-8 -14 -14 -32t-14 -33t-19 -27 t-25 -14q-26 -4 -32 22z" />
<glyph unicode="&#xf5;" horiz-adv-x="760" d="M30 1398q0 20 22 23t32 3q8 30 20 68t31 71t46 56t65 23q28 0 60 -15t42 -41l62 -128q8 -16 26 -25t34 -9q26 0 48 18t39 44t27 55t10 51v14q-2 4 5 19t7 17q-4 18 10 23t24 3q6 0 22 -2t32 -7t29 -13t13 -22q0 -12 -10 -18t-22 -9t-24 -3h-18q-22 -34 -36 -74t-33 -75 t-48 -59t-81 -24q-30 0 -56 11t-46 39q-2 6 -9 21t-14 32t-15 33t-10 22q-10 22 -26 38t-44 16q-20 0 -37 -14t-29 -35t-19 -43t-7 -40q0 -10 -1 -13t-2 -5t-2 -6t-1 -16q0 -26 -11 -29t-27 -3h-19t-26 2t-23 8t-10 18zM53 578q-1 66 3 108q-2 132 11 241t73 213q2 2 16 19 t30 37t31 37t17 21q30 16 53 27t46 16t52 6t71 -1q42 -10 74 -36t57 -62t44 -78t37 -82q0 -10 4 -28t9 -38t9 -39t6 -27q2 -16 4 -42t3 -54t1 -54v-42q2 -94 0 -198t-24 -190q-12 -46 -24 -90t-46 -108q-22 -36 -45 -63t-54 -43t-75 -21t-108 1q-62 4 -108 43t-78 101 t-51 137t-28 149t-10 140zM116 732q2 -22 3 -73t1 -108t1 -109t3 -74q6 -36 20 -86t37 -96t57 -80t82 -36q10 -2 28 -2t38 1t38 4t28 7q58 36 90 76t49 84t26 94t23 104q6 22 8 55t2 69t-1 69t-1 55q0 6 -2 24t-3 37t-3 37t-2 24q-10 24 -10 40v36q-2 4 -2 8v14q-2 8 -2 20 q0 2 -1 12t-3 23t-3 23t-1 12q-12 36 -23 75t-30 74t-48 61t-75 36q-94 10 -156 -37t-100 -123t-54 -165t-14 -161v-24z" />
<glyph unicode="&#xf6;" horiz-adv-x="760" d="M53 578q-1 66 3 108q-2 132 11 241t73 213q2 2 16 19t30 37t31 37t17 21q30 16 53 27t46 16t52 6t71 -1q42 -10 74 -36t57 -62t44 -78t37 -82q0 -10 4 -28t9 -38t9 -39t6 -27q2 -16 4 -42t3 -54t1 -54v-42q2 -94 0 -198t-24 -190q-12 -46 -24 -90t-46 -108 q-22 -36 -45 -63t-54 -43t-75 -21t-108 1q-62 4 -108 43t-78 101t-51 137t-28 149t-10 140zM116 732q2 -22 3 -73t1 -108t1 -109t3 -74q6 -36 20 -86t37 -96t57 -80t82 -36q10 -2 28 -2t38 1t38 4t28 7q58 36 90 76t49 84t26 94t23 104q6 22 8 55t2 69t-1 69t-1 55 q0 6 -2 24t-3 37t-3 37t-2 24q-10 24 -10 40v36q-2 4 -2 8v14q-2 8 -2 20q0 2 -1 12t-3 23t-3 23t-1 12q-12 36 -23 75t-30 74t-48 61t-75 36q-94 10 -156 -37t-100 -123t-54 -165t-14 -161v-24zM206 1394q0 24 11 52t49 28q26 0 46 -12t20 -42t-17 -58t-57 -28q-4 0 -13 1 t-13 1q-20 14 -23 24t-3 34zM426 1394q0 24 11 52t49 28q26 0 46 -12t20 -42t-17 -58t-57 -28q-4 0 -13 1t-13 1q-20 14 -23 24t-3 34z" />
<glyph unicode="&#xf7;" d="M56 791q0 19 3 35t9 16q10 2 23 -4t33 -4v-40l104 10q26 0 49 -4t47 -4h4h52t52 2l11 1t25 3t25 3l11 1q2 -2 6 -4l8 -4q28 0 25 -19t-3 -51q0 -6 -6 -13t-13 -10t-15 -3t-10 8q-10 26 -11 27t-21 1l-394 4q-6 0 -10 15t-4 34zM218 540q0 48 31 78t77 30h28 q18 -12 29 -42t11 -50q0 -40 -23 -74t-69 -34q-42 0 -63 26t-21 66zM226 954q0 18 3 37t11 35t22 26t36 10q32 0 56 -16t24 -56t-20 -77t-68 -37q-4 0 -16 1t-16 1q-24 18 -28 32t-4 44z" />
<glyph unicode="&#xf8;" horiz-adv-x="790" d="M83 578q-1 66 3 108q-2 132 11 241t73 213q2 2 16 19t30 37t31 37t17 21q30 16 53 27t46 16t52 6t71 -1q42 -10 74 -36t57 -62t44 -78t37 -82q0 -10 4 -28t9 -38t9 -39t6 -27q2 -16 4 -42t3 -54t1 -54v-42q2 -94 0 -198t-24 -190q-12 -46 -24 -90t-46 -108 q-22 -36 -45 -63t-54 -43t-75 -21t-108 1q-62 4 -108 43t-78 101t-51 137t-28 149t-10 140zM128 -90q0 26 15 52t25 48q4 8 11 35t14 56t14 55t11 36q4 20 17 58t29 85t35 98t36 98t30 85t19 58q2 8 14 45t27 79t27 79t14 45q8 24 13 49t19 47l34 146q0 40 17 86t27 86 l-64 -8q-14 0 -19 13t-5 23q0 6 3 23t13 17l124 -2l16 -16v-8q0 -4 1 -8t1 -6q0 -28 -5 -62t-13 -58l-168 -570q-16 -48 -26 -86l-24 -88q-16 -62 -30 -102t-29 -76t-31 -76t-32 -102q-4 -12 -12 -43t-17 -65t-19 -63t-18 -37l22 4h8q16 0 24 -13t8 -27q0 -20 -14 -26 t-33 -6t-39 3t-32 3q-16 0 -27 8t-11 28zM146 732q2 -22 3 -73t1 -108t1 -109t3 -74q6 -36 20 -86t37 -96t57 -80t82 -36q10 -2 28 -2t38 1t38 4t28 7q58 36 90 76t49 84t26 94t23 104q6 22 8 55t2 69t-1 69t-1 55q0 6 -2 24t-3 37t-3 37t-2 24q-10 24 -10 40v36q-2 4 -2 8 v14q-2 8 -2 20q0 2 -1 12t-3 23t-3 23t-1 12q-12 36 -23 75t-30 74t-48 61t-75 36q-94 10 -156 -37t-100 -123t-54 -165t-14 -161v-24z" />
<glyph unicode="&#xf9;" horiz-adv-x="776" d="M44 584v176v470q0 10 2 28t2 28q0 14 15 15t31 1q4 0 10 -4t6 -14v-704q0 -2 -1 -24t-1 -49t1 -54t3 -39q2 -68 12 -131t31 -111t58 -77t95 -27q62 0 106 28t74 75t48 108t28 127q12 58 19 127t7 131q0 78 5 160t1 162q-2 28 -3 68t-1 83v83v68q0 16 23 19t45 -13 q-6 -144 -6 -229t2 -134t4 -75t2 -52q0 -42 -4 -84t-4 -86v-74q0 -24 -2 -91t-5 -144t-5 -144t-2 -91q6 -12 24 -16l-24 -4l10 2t25 4t21 2q26 0 36 -16q0 -6 -2 -25t-6 -23q0 -8 -8 -8h-126v258q-16 -42 -31 -78t-34 -68t-45 -57t-66 -43q-28 -10 -49 -13t-67 -3 q-56 0 -89 13t-61 33q-34 28 -55 96t-31 148t-14 160t-4 132zM276 1512q-2 8 3 20t12 22t16 14t15 -2l50 -56q36 -36 55 -59t30 -36t18 -21t19 -16q4 -2 2 -10t-7 -18t-12 -19t-13 -13q-18 -6 -30 4t-22 22q-2 4 -14 19t-25 32t-26 32t-15 19q-2 2 -10 9t-17 16t-16 17 t-9 12q-2 2 -2 4q-2 2 -2 8z" />
<glyph unicode="&#xfa;" horiz-adv-x="776" d="M44 584v176v470q0 10 2 28t2 28q0 14 15 15t31 1q4 0 10 -4t6 -14v-704q0 -2 -1 -24t-1 -49t1 -54t3 -39q2 -68 12 -131t31 -111t58 -77t95 -27q62 0 106 28t74 75t48 108t28 127q12 58 19 127t7 131q0 78 5 160t1 162q-2 28 -3 68t-1 83v83v68q0 16 23 19t45 -13 q-6 -144 -6 -229t2 -134t4 -75t2 -52q0 -42 -4 -84t-4 -86v-74q0 -24 -2 -91t-5 -144t-5 -144t-2 -91q6 -12 24 -16l-24 -4l10 2t25 4t21 2q26 0 36 -16q0 -6 -2 -25t-6 -23q0 -8 -8 -8h-126v258q-16 -42 -31 -78t-34 -68t-45 -57t-66 -43q-28 -10 -49 -13t-67 -3 q-56 0 -89 13t-61 33q-34 28 -55 96t-31 148t-14 160t-4 132zM277 1410q-1 8 5 10q10 6 17 13l19 19t32 31t58 49l54 50q6 6 14 0t14 -16t9 -22t1 -18q-2 -4 -12 -13t-10 -11q-6 -4 -19 -17l-17 -17l-17 -17t-27 -28t-27 -28t-15 -17q-12 -10 -23 -18t-27 -2q-6 6 -12 15 t-11 19t-6 18z" />
<glyph unicode="&#xfb;" horiz-adv-x="776" d="M44 584v176v470q0 10 2 28t2 28q0 14 15 15t31 1q4 0 10 -4t6 -14v-704q0 -2 -1 -24t-1 -49t1 -54t3 -39q2 -68 12 -131t31 -111t58 -77t95 -27q62 0 106 28t74 75t48 108t28 127q12 58 19 127t7 131q0 78 5 160t1 162q-2 28 -3 68t-1 83v83v68q0 16 23 19t45 -13 q-6 -144 -6 -229t2 -134t4 -75t2 -52q0 -42 -4 -84t-4 -86v-74q0 -24 -2 -91t-5 -144t-5 -144t-2 -91q6 -12 24 -16l-24 -4l10 2t25 4t21 2q26 0 36 -16q0 -6 -2 -25t-6 -23q0 -8 -8 -8h-126v258q-16 -42 -31 -78t-34 -68t-45 -57t-66 -43q-28 -10 -49 -13t-67 -3 q-56 0 -89 13t-61 33q-34 28 -55 96t-31 148t-14 160t-4 132zM230 1342q36 78 66 140q24 52 45 95t23 45q8 10 11 11t13 3q16 2 27 -10t19 -31t13 -39t11 -32l8 -16t13 -27t13 -29t10 -20q2 -2 7 -11t11 -19t11 -19t5 -11q2 -2 2 -6q0 -8 2 -10q4 -16 -1 -20t-19 -6 q-10 -2 -18 -2t-14 12l-50 100q-10 16 -18 46t-24 46h-4q-2 -2 -4 -2q-2 -6 -10 -21t-17 -32t-17 -31t-10 -20q-8 -14 -14 -32t-14 -33t-19 -27t-25 -14q-26 -4 -32 22z" />
<glyph unicode="&#xfc;" horiz-adv-x="776" d="M44 584v176v470q0 10 2 28t2 28q0 14 15 15t31 1q4 0 10 -4t6 -14v-704q0 -2 -1 -24t-1 -49t1 -54t3 -39q2 -68 12 -131t31 -111t58 -77t95 -27q62 0 106 28t74 75t48 108t28 127q12 58 19 127t7 131q0 78 5 160t1 162q-2 28 -3 68t-1 83v83v68q0 16 23 19t45 -13 q-6 -144 -6 -229t2 -134t4 -75t2 -52q0 -42 -4 -84t-4 -86v-74q0 -24 -2 -91t-5 -144t-5 -144t-2 -91q6 -12 24 -16l-24 -4l10 2t25 4t21 2q26 0 36 -16q0 -6 -2 -25t-6 -23q0 -8 -8 -8h-126v258q-16 -42 -31 -78t-34 -68t-45 -57t-66 -43q-28 -10 -49 -13t-67 -3 q-56 0 -89 13t-61 33q-34 28 -55 96t-31 148t-14 160t-4 132zM214 1394q0 24 11 52t49 28q26 0 46 -12t20 -42t-17 -58t-57 -28q-4 0 -13 1t-13 1q-20 14 -23 24t-3 34zM434 1394q0 24 11 52t49 28q26 0 46 -12t20 -42t-17 -58t-57 -28q-4 0 -13 1t-13 1q-20 14 -23 24 t-3 34z" />
<glyph unicode="&#xfd;" horiz-adv-x="722" d="M24 -166q0 20 10 26t25 6t30 -2t27 2q4 2 17 -1t21 1q6 -8 10 -14q8 -14 10 -12l-4 -24q0 -10 -5 -11t-12 -1t-12 1t-5 -3h-54q-8 -44 -3 -83t13 -79q26 -98 88 -165t174 -67q36 0 72 14t67 37t53 54t30 65q0 12 2 44t5 69t5 70t2 45v56q0 74 -3 155t-7 205q-2 0 -7 -11 t-5 -13q-16 -34 -30 -62t-32 -52t-45 -41t-69 -27q-4 -2 -10 -2h-14q-92 -4 -151 35t-93 96t-48 123t-16 118q0 4 -1 24t-3 44t-3 45t-1 25q-10 76 -11 163t-1 145q-4 102 -1 211t13 229q8 26 32 26l4 -2h4q2 -2 14 0t16 0q0 -2 2 -2h8h22q6 0 8 -1t8 -11q-2 -4 -2 -8v-10 q0 -6 -2 -15t-8 -9l-28 -2q-2 2 -7 -1t-7 -3h-4q-2 0 -4 -2q-8 -46 -6 -107t2 -107v-25t1 -30t1 -26v-13q0 -18 1 -64t1 -98v-98t2 -62q2 -10 4 -37t3 -57t3 -56t4 -36q-2 -26 3 -71t29 -99q10 -30 26 -61t42 -55t63 -38t91 -10q36 -4 67 28t55 77t40 95t22 86q4 34 7 67 t7 67q10 138 14 275t10 275v22v37v37v22v22v34v34v20q2 12 13 19t23 8t24 -2t16 -11l-6 -158l-8 -254l-10 -420q-10 -174 -8 -358t2 -354q0 -56 -4 -104t-18 -91t-41 -81t-73 -74q-14 -12 -36 -20t-46 -14t-48 -9t-42 -5q-56 4 -96 16t-71 34t-54 54t-47 76q-8 14 -16 41 t-15 58t-11 59t-4 46q0 14 4 26t4 28q0 14 -4 23t-4 21zM147 1295q-7 -1 7 -1q0 2 -7 1zM249 1410q-1 8 5 10q10 6 17 13l19 19t32 31t58 49l54 50q6 6 14 0t14 -16t9 -22t1 -18q-2 -4 -12 -13t-10 -11q-6 -4 -19 -17l-17 -17l-17 -17t-27 -28t-27 -28t-15 -17 q-12 -10 -23 -18t-27 -2q-6 6 -12 15t-11 19t-6 18z" />
<glyph unicode="&#xfe;" horiz-adv-x="816" d="M56 -18q0 14 3 23t19 11q20 0 26 7t34 7v140q-4 94 -4 136t2 72t2 71t-6 133q10 20 7 41t-3 39l2 390l-2 20q-2 24 2 52t2 52q-2 34 -4 57t-2 57v53t1 106t2 105l1 48q0 2 -2 12t-3 20t-3 20t-2 12v15v30t1 30t1 15v14q0 4 -1 10t-1 8t-2 11t-3 20t-1 20v13l4 4q6 6 8 10 q0 2 8 5t10 3q4 -4 18 -2t14 -6l4 -606q0 -2 2 -4q4 -4 6 -4h4q8 14 32 61t63 98t94 92t125 45q22 0 56 -3t68 -19q44 -34 70 -89t40 -117t18 -125t6 -113q2 -12 2 -36v-26v-56t-1 -100t-1 -100v-54q-2 -72 -10 -139t-34 -122t-72 -99t-122 -70h-21t-35 -4h-22 q-30 -2 -65 11t-68 32t-62 42t-47 41l-4 12q-2 6 -2 12h-4l-8 -8q0 -6 1 -20t1 -29t1 -28t1 -19q0 -70 -1 -107t-2 -68t-3 -68t-4 -109l-8 -8q-4 0 -19 -1t-21 -3h-4l-72 4q-8 2 -9 9t-1 11zM194 666q2 -34 5 -77t7 -77q2 -26 33 -58t73 -60t85 -46t71 -18q90 4 139 47 t73 107t30 139t10 141q0 30 1 75t1 92v92t-2 77q-2 40 -6 98t-17 115t-36 104t-63 67q-8 -2 -33 3t-31 3q-64 -2 -116 -42t-93 -93t-70 -109t-47 -90q-2 -2 -5 -7t-1 -9q-6 -18 -7 -27t-1 -17t1 -19t1 -31q0 -10 -1 -62t-1 -113v-113v-62v-30z" />
<glyph unicode="&#xff;" horiz-adv-x="722" d="M24 -166q0 20 10 26t25 6t30 -2t27 2q4 2 17 -1t21 1q6 -8 10 -14q8 -14 10 -12l-4 -24q0 -10 -5 -11t-12 -1t-12 1t-5 -3h-54q-8 -44 -3 -83t13 -79q26 -98 88 -165t174 -67q36 0 72 14t67 37t53 54t30 65q0 12 2 44t5 69t5 70t2 45v56q0 74 -3 155t-7 205q-2 0 -7 -11 t-5 -13q-16 -34 -30 -62t-32 -52t-45 -41t-69 -27q-4 -2 -10 -2h-14q-92 -4 -151 35t-93 96t-48 123t-16 118q0 4 -1 24t-3 44t-3 45t-1 25q-10 76 -11 163t-1 145q-4 102 -1 211t13 229q8 26 32 26l4 -2h4q2 -2 14 0t16 0q0 -2 2 -2h8h22q6 0 8 -1t8 -11q-2 -4 -2 -8v-10 q0 -6 -2 -15t-8 -9l-28 -2q-2 2 -7 -1t-7 -3h-4q-2 0 -4 -2q-8 -46 -6 -107t2 -107v-25t1 -30t1 -26v-13q0 -18 1 -64t1 -98v-98t2 -62q2 -10 4 -37t3 -57t3 -56t4 -36q-2 -26 3 -71t29 -99q10 -30 26 -61t42 -55t63 -38t91 -10q36 -4 67 28t55 77t40 95t22 86q4 34 7 67 t7 67q10 138 14 275t10 275v22v37v37v22v22v34v34v20q2 12 13 19t23 8t24 -2t16 -11l-6 -158l-8 -254l-10 -420q-10 -174 -8 -358t2 -354q0 -56 -4 -104t-18 -91t-41 -81t-73 -74q-14 -12 -36 -20t-46 -14t-48 -9t-42 -5q-56 4 -96 16t-71 34t-54 54t-47 76q-8 14 -16 41 t-15 58t-11 59t-4 46q0 14 4 26t4 28q0 14 -4 23t-4 21zM147 1295q-7 -1 7 -1q0 2 -7 1zM178 1476q0 24 11 52t49 28q26 0 46 -12t20 -42t-17 -58t-57 -28q-4 0 -13 1t-13 1q-20 14 -23 24t-3 34zM398 1476q0 24 11 52t49 28q26 0 46 -12t20 -42t-17 -58t-57 -28q-4 0 -13 1 t-13 1q-20 14 -23 24t-3 34z" />
<glyph unicode="&#x152;" horiz-adv-x="1088" d="M60 780v18t1 37t2 43t1 36q4 54 6 122t7 139t12 138t19 121q24 102 62 201t118 161l10 10t17 18t17 18t10 8l70 14l118 2h8q38 -2 63 -3t48 -1h48h63q52 0 95 3t93 3q2 0 14 -3t25 -8t24 -9t11 -6q0 -30 1 -41t1 -17t1 -17t1 -43q0 -12 -2 -21t-18 -9q-10 0 -19 1t-15 7 l-4 44v38q0 8 -8 8q-6 0 -21 -2t-19 -2q-50 0 -91 1t-91 1h-57t-39 1t-38 1h-56q-8 0 -33 -8t-31 -8q-8 -16 -8 -28v-30v-36q0 -26 -1 -82t-2 -127t-4 -148t-4 -148t-2 -127t-1 -82q2 -8 27 -11t56 -4t61 -1h42q20 0 27 -2t7 -22q0 -16 -16 -31t-32 -17l-172 10q-2 0 -5 -12 t-5 -26t-3 -26l-1 -12q-2 -22 -2 -37t1 -27l2 -24t1 -30v-28q0 -24 3 -75t6 -113t6 -130t6 -127t5 -103t4 -58l74 -12q10 0 26 1t20 1l326 20q0 4 2 21t2 21l-2 52q8 30 33 25t47 -25v-6q0 -12 -5 -8t-5 -8v-16l6 -58l2 -9t3 -20t3 -20l2 -9q-4 -10 -13 -13t-19 -9 q-8 0 -27 1t-40 2t-39 2t-26 1q-4 0 -16 -3t-16 -5q-56 2 -95 1t-74 -2t-74 -2t-95 3q-2 -10 -11 -9t-13 1q-12 0 -22 3t-18 13v4q-78 6 -134 45t-95 99t-63 136t-36 158t-16 166t-2 158zM131 903q-1 -91 1 -167q2 -70 5 -152t18 -163t48 -156t93 -129q28 -28 53 -41t61 -17 q-2 32 -3 70t-2 72t-1 62v40v24q0 12 -2 45t-4 70t-4 70t-2 47l14 640l10 330q2 12 1 36t-3 51t-4 52t0 35l12 78q-40 8 -81 -32t-76 -99t-60 -125t-33 -112q-14 -74 -23 -163t-13 -182t-5 -184z" />
<glyph unicode="&#x153;" horiz-adv-x="1110" d="M53 578q-1 66 3 108q-2 132 11 241t73 213q2 2 16 19t30 37t31 37t17 21q30 16 53 27t46 16t52 6t71 -1q64 -14 108 -68l-28 -50q-18 22 -40 36t-56 22q-94 10 -156 -37t-100 -123t-54 -165t-14 -161v-24q2 -22 3 -73t1 -108t1 -109t3 -74q6 -36 20 -86t37 -96t57 -80 t82 -36q10 -2 28 -2t38 1t38 4t28 7q26 16 45 31t35 31q-16 24 -28 53t-26 63q-14 12 -20 37t-16 65q-18 60 -21 133t-5 137q-10 12 -18 24t-8 28q-2 14 2 20t20 16q16 188 69 335t171 249q24 12 50 15t54 3q54 0 95 -29t72 -78t51 -109t32 -121t18 -117t8 -94q0 -8 1 -26 t1 -39t1 -39t1 -24q-4 -8 -22 -14t-40 -11t-41 -7t-27 -2q-16 0 -33 4t-33 4q-46 0 -88 -4t-86 -4q-32 -2 -62 2t-60 4h-56q-8 -4 -8 -8v-8q-2 -88 11 -168t37 -146t60 -116t78 -80q18 -12 48 -14t52 -2q56 0 94 25t62 64t33 87t7 96q0 6 -2 19t-2 15l-8 8q-10 -2 -30 1 t-30 5q-2 0 -14 6t-18 10l-8 8v4q-4 30 22 44q8 0 18 -2t18 -2t27 1t39 -1t36 -10t18 -24q2 -6 2 -26v-26q2 -46 -8 -76t-18 -70q0 -4 -2 -14t-4 -22t-4 -23t-2 -13q-6 -16 -18 -26t-20 -22q-34 -46 -71 -67t-97 -21q-78 -2 -127 14t-83 48q-38 -46 -92 -66t-156 -10 q-62 4 -108 43t-78 101t-51 137t-28 149t-10 140zM484 688q62 -10 123 -14t125 -2q58 0 103 1t105 11q4 0 20 7t18 17l2 174q-8 12 -9 18t0 11t2 12t-3 23q-10 36 -27 89t-43 102t-61 84t-79 35q-58 0 -97 -32t-67 -82q-30 -52 -51 -110t-35 -117t-20 -118t-6 -109z" />
<glyph unicode="&#x178;" horiz-adv-x="960" d="M42 1840q0 24 1 33t4 10t13 -1t28 0q14 0 14 1t16 -1h4h40q22 -4 32 -2t32 6h2h4q16 -10 15 -23t-3 -27q2 -12 -3 -14t-16 -1t-23 3t-20 -2q6 -46 31 -115t52 -137t50 -126t27 -84q8 -20 32 -72t50 -111t49 -112t33 -75l20 -62l100 -226h8q30 232 49 478t53 480q2 4 4 19 t4 32t3 33t1 20q0 6 4 23t8 36t7 36t3 23q4 10 17 8t17 -2t17 1t28 2t27 2t16 1h6q18 0 26 -14t8 -30q0 -6 -3 -14t-17 -8l-64 2q-2 0 -8 -6t-8 -10q-4 -6 -11 -31t-9 -31l-54 -556v-16l-62 -548q-2 -6 -8 -47t-14 -91t-14 -92t-6 -48q-2 -14 -6 -50t-9 -76t-8 -76t-5 -50 q6 -8 5 -23t-6 -29t-9 -26t-2 -14l-34 -12h-82l-6 4q-6 8 -10 30t26 38q14 0 18 -1t5 -2t4 1t17 10q2 4 5 26t7 28l40 338q0 4 1 22t1 28v72q-2 2 -6 14t-9 26t-9 25t-6 13q-62 110 -106 219t-94 227q-12 30 -25 62t-33 60q-56 140 -104 290t-104 298h-58q-8 0 -9 5t-1 9z M318 1968q0 24 11 52t49 28q26 0 46 -12t20 -42t-17 -58t-57 -28q-4 0 -13 1t-13 1q-20 14 -23 24t-3 34zM538 1968q0 24 11 52t49 28q26 0 46 -12t20 -42t-17 -58t-57 -28q-4 0 -13 1t-13 1q-20 14 -23 24t-3 34z" />
<glyph unicode="&#x2c6;" horiz-adv-x="424" d="M60 1342q36 78 66 140q24 52 45 95t23 45q8 10 11 11t13 3q16 2 27 -10t19 -31t13 -39t11 -32l8 -16t13 -27t13 -29t10 -20q2 -2 7 -11t11 -19t11 -19t5 -11q2 -2 2 -6q0 -8 2 -10q4 -16 -1 -20t-19 -6q-10 -2 -18 -2t-14 12l-50 100q-10 16 -18 46t-24 46h-4 q-2 -2 -4 -2q-2 -6 -10 -21t-17 -32t-17 -31t-10 -20q-8 -14 -14 -32t-14 -33t-19 -27t-25 -14q-26 -4 -32 22z" />
<glyph unicode="&#x2dc;" horiz-adv-x="842" d="M48 1398q0 20 22 23t32 3q8 30 20 68t31 71t46 56t65 23q28 0 60 -15t42 -41l62 -128q8 -16 26 -25t34 -9q26 0 48 18t39 44t27 55t10 51v14q-2 4 5 19t7 17q-4 18 10 23t24 3q6 0 22 -2t32 -7t29 -13t13 -22q0 -12 -10 -18t-22 -9t-24 -3h-18q-22 -34 -36 -74t-33 -75 t-48 -59t-81 -24q-30 0 -56 11t-46 39q-2 6 -9 21t-14 32t-15 33t-10 22q-10 22 -26 38t-44 16q-20 0 -37 -14t-29 -35t-19 -43t-7 -40q0 -10 -1 -13t-2 -5t-2 -6t-1 -16q0 -26 -11 -29t-27 -3h-19t-26 2t-23 8t-10 18z" />
<glyph unicode="&#x2000;" horiz-adv-x="1132" />
<glyph unicode="&#x2001;" horiz-adv-x="2264" />
<glyph unicode="&#x2002;" horiz-adv-x="1132" />
<glyph unicode="&#x2003;" horiz-adv-x="2264" />
<glyph unicode="&#x2004;" horiz-adv-x="754" />
<glyph unicode="&#x2005;" horiz-adv-x="566" />
<glyph unicode="&#x2006;" horiz-adv-x="377" />
<glyph unicode="&#x2007;" horiz-adv-x="377" />
<glyph unicode="&#x2008;" horiz-adv-x="283" />
<glyph unicode="&#x2009;" horiz-adv-x="452" />
<glyph unicode="&#x200a;" horiz-adv-x="125" />
<glyph unicode="&#x2010;" d="M70 743q0 19 3 35t9 16q10 2 23 -4t33 -4v-40l104 10q26 0 49 -4t47 -4h4h52t52 2l11 1t25 3t25 3l11 1q2 -2 6 -4l8 -4q28 0 25 -19t-3 -51q0 -6 -6 -13t-13 -10t-15 -3t-10 8q-10 26 -11 27t-21 1l-394 4q-6 0 -10 15t-4 34z" />
<glyph unicode="&#x2011;" d="M70 743q0 19 3 35t9 16q10 2 23 -4t33 -4v-40l104 10q26 0 49 -4t47 -4h4h52t52 2l11 1t25 3t25 3l11 1q2 -2 6 -4l8 -4q28 0 25 -19t-3 -51q0 -6 -6 -13t-13 -10t-15 -3t-10 8q-10 26 -11 27t-21 1l-394 4q-6 0 -10 15t-4 34z" />
<glyph unicode="&#x2012;" d="M70 743q0 19 3 35t9 16q10 2 23 -4t33 -4v-40l104 10q26 0 49 -4t47 -4h4h52t52 2l11 1t25 3t25 3l11 1q2 -2 6 -4l8 -4q28 0 25 -19t-3 -51q0 -6 -6 -13t-13 -10t-15 -3t-10 8q-10 26 -11 27t-21 1l-394 4q-6 0 -10 15t-4 34z" />
<glyph unicode="&#x2013;" d="M70 743q0 19 3 35t9 16q10 2 23 -4t33 -4v-40l104 10q26 0 49 -4t47 -4h4h52t52 2l11 1t25 3t25 3l11 1q2 -2 6 -4l8 -4q28 0 25 -19t-3 -51q0 -6 -6 -13t-13 -10t-15 -3t-10 8q-10 26 -11 27t-21 1l-394 4q-6 0 -10 15t-4 34z" />
<glyph unicode="&#x2014;" horiz-adv-x="714" d="M70 743q0 19 3 35t9 16q10 2 23 -4t33 -4v-40l104 10h41t60 1t59 1h40h4h52t52 2l11 1t25 3t25 3l11 1q2 -2 6 -4l8 -4q28 0 25 -19t-3 -51q0 -6 -6 -13t-13 -10t-15 -3t-10 8q-10 26 -11 27t-21 1l-498 -6q-6 0 -10 15t-4 34z" />
<glyph unicode="&#x2018;" horiz-adv-x="304" d="M82 1314q0 14 2 38t8 48t18 41t32 17q18 0 29 -16t7 -34q-4 -30 -18 -54t-14 -58q0 -16 -1 -39t9 -39t17 -22t7 -26q0 -14 -3 -19t-17 -5q-26 0 -41 19t-23 46t-10 56t-2 47z" />
<glyph unicode="&#x2019;" horiz-adv-x="304" d="M84 1170q0 20 7 26t17 22t9 39t-1 39q0 34 -14 58t-18 54q-4 18 7 34t29 16q20 0 32 -17t18 -41t8 -48t2 -38q0 -18 -2 -47t-10 -56t-23 -46t-41 -19q-14 0 -17 5t-3 19z" />
<glyph unicode="&#x201a;" horiz-adv-x="304" d="M98 -30q0 20 7 26t17 22t9 39t-1 39q0 34 -14 58t-18 54q-4 18 7 34t29 16q20 0 32 -17t18 -41t8 -48t2 -38q0 -18 -2 -47t-10 -56t-23 -46t-41 -19q-14 0 -17 5t-3 19z" />
<glyph unicode="&#x201c;" horiz-adv-x="406" d="M80 1290q0 18 2 46t10 55t23 47t41 20q14 0 17 -5t3 -19q0 -20 -7 -26t-17 -22t-9 -39t1 -39q0 -34 14 -58t18 -54q4 -18 -7 -34t-29 -16q-20 0 -32 17t-18 41t-8 48t-2 38zM210 1316q0 18 2 46t10 55t23 47t41 20q14 0 17 -5t3 -19q0 -20 -7 -26t-17 -22t-9 -39t1 -39 q0 -34 14 -58t18 -54q4 -18 -7 -34t-29 -16q-20 0 -32 17t-18 41t-8 48t-2 38z" />
<glyph unicode="&#x201d;" horiz-adv-x="400" d="M84 1170q0 20 7 26t17 22t9 39t-1 39q0 34 -14 58t-18 54q-4 18 7 34t29 16q20 0 32 -17t18 -41t8 -48t2 -38q0 -18 -2 -47t-10 -56t-23 -46t-41 -19q-14 0 -17 5t-3 19zM214 1196q0 20 7 26t17 22t9 39t-1 39q0 34 -14 58t-18 54q-4 18 7 34t29 16q20 0 32 -17t18 -41 t8 -48t2 -38q0 -18 -2 -47t-10 -56t-23 -46t-41 -19q-14 0 -17 5t-3 19z" />
<glyph unicode="&#x201e;" horiz-adv-x="400" d="M90 -54q0 20 7 26t17 22t9 39t-1 39q0 34 -14 58t-18 54q-4 18 7 34t29 16q20 0 32 -17t18 -41t8 -48t2 -38q0 -18 -2 -47t-10 -56t-23 -46t-41 -19q-14 0 -17 5t-3 19zM220 -28q0 20 7 26t17 22t9 39t-1 39q0 34 -14 58t-18 54q-4 18 7 34t29 16q20 0 32 -17t18 -41 t8 -48t2 -38q0 -18 -2 -47t-10 -56t-23 -46t-41 -19q-14 0 -17 5t-3 19z" />
<glyph unicode="&#x2026;" horiz-adv-x="700" d="M62 70q0 24 11 52t49 28q26 0 46 -12t20 -42t-17 -58t-57 -28q-4 0 -13 1t-13 1q-20 14 -23 24t-3 34zM282 70q0 24 11 52t49 28q26 0 46 -12t20 -42t-17 -58t-57 -28q-4 0 -13 1t-13 1q-20 14 -23 24t-3 34zM502 70q0 24 11 52t49 28q26 0 46 -12t20 -42t-17 -58 t-57 -28q-4 0 -13 1t-13 1q-20 14 -23 24t-3 34z" />
<glyph unicode="&#x202f;" horiz-adv-x="452" />
<glyph unicode="&#x205f;" horiz-adv-x="566" />
<glyph unicode="&#x20ac;" horiz-adv-x="812" d="M68 860v22v20t16 14q60 -4 112 8q2 6 5 28t3 28q0 12 -3 37t-5 27l-8 8h-24q-16 0 -30 -4t-30 -4q-18 0 -23 11t-5 25q0 4 -1 15t9 13l112 16q-2 6 -2 27t2 29l5 105t11 136t23 148t41 138t64 110t94 63q8 0 34 1t34 1h18h29t30 -2t23 -8q84 -52 119 -137t35 -181v-4 q-8 -8 -14 -8q-4 -2 -8 0h-98q-2 0 -2 20t-2 26v4l58 24q0 68 -40 119t-104 73q-4 0 -22 1t-22 1q-58 0 -98 -34t-66 -88t-41 -121t-22 -135t-8 -129t-1 -101q0 -12 1 -36t1 -26l8 -8q4 -2 10 -2h14q46 0 90 5t90 5q14 0 28 -8t14 -24q0 -24 -24 -32t-40 -8h-27h-45h-44h-26 q-12 -2 -30 -4t-18 -4v-128q0 -10 17 -13t27 -3q34 0 67 9t67 9q4 0 18 -1t18 -1q14 -4 16 -12t2 -18t-1 -18t-9 -16q-24 -6 -54 -9t-60 -4t-57 -5t-43 -14q0 -6 -1 -31t-1 -33q0 -12 1 -36t1 -26q6 -92 22 -174t32 -170q2 -2 2 -8t-2 -8q8 -40 20 -90t33 -94t56 -74t89 -30 q10 0 31 1t27 9l64 64q4 32 22 61t18 61h-84q0 14 -1 37t11 23q14 0 36 5t43 8t35 -2t14 -25q0 -42 -12 -94t-37 -99t-61 -79t-84 -32q-40 0 -88 10t-76 38q-34 34 -59 85t-35 99q-32 136 -49 254t-31 256q-4 28 -10 64q-4 20 -6 42h-120q-2 0 -5 5t-3 7z" />
<glyph unicode="&#xe000;" horiz-adv-x="1300" d="M0 0v1300h1300v-1300h-1300z" />
</font>
</defs>
</svg>
